M48
;DRILL file {KiCad 4.0.2+dfsg1-stable} date Fri 29 Jul 2016 09:24:40 AM CST
;FORMAT={-:-/ absolute / inch / decimal}
FMAT,2
INCH,TZ
T1C0.012
T2C0.016
T3C0.040
%
G90
G05
M72
T1
X4.77Y-4.1
X4.77Y-4.2
X4.77Y-4.935
X4.77Y-5.025
X4.875Y-4.935
X4.88Y-4.2
X4.8813Y-4.1014
X5.01Y-3.87
X5.01Y-4.1
X5.01Y-4.2
X5.01Y-4.935
X5.01Y-5.04
X5.01Y-5.175
X5.0112Y-3.9863
X5.125Y-4.935
X5.125Y-5.04
X5.125Y-5.175
X5.135Y-3.87
X5.14Y-3.985
X5.14Y-4.1
X5.235Y-4.1
X5.24Y-3.87
X5.24Y-3.985
X5.24Y-4.48
X5.24Y-4.935
X5.24Y-5.04
X5.24Y-5.175
X5.25Y-4.275
X5.35Y-3.87
X5.355Y-3.985
X5.4Y-4.705
X5.4Y-4.825
X5.4Y-4.93
X5.455Y-3.87
X5.455Y-3.985
X5.495Y-5.18
X5.52Y-4.385
X5.535Y-4.11
X5.54Y-4.705
X5.54Y-4.825
X5.54Y-4.93
X5.555Y-5.06
X5.64Y-4.385
X5.65Y-5.18
X5.66Y-4.705
X5.66Y-4.825
X5.66Y-4.93
X5.695Y-4.44
X5.695Y-4.56
X5.705Y-5.05
X5.735Y-4.81
X5.76Y-5.07
X5.785Y-5.18
X5.805Y-4.58
X5.805Y-4.685
X5.805Y-4.8
X5.885Y-5.23
X5.995Y-4.11
X6.01Y-4.71
X6.02Y-4.915
X6.025Y-4.465
X6.03Y-4.615
X6.105Y-4.81
X6.115Y-4.405
X6.135Y-4.56
X6.136Y-4.526
X6.136Y-4.594
X6.15Y-4.915
X6.165Y-4.885
X6.17Y-4.3
X6.17Y-4.525
X6.17Y-4.595
X6.204Y-4.526
X6.204Y-4.594
X6.205Y-4.56
X6.225Y-4.805
X6.235Y-4.35
X6.255Y-4.915
X6.26Y-3.85
X6.26Y-3.965
X6.26Y-4.745
X6.275Y-4.395
X6.275Y-4.71
X6.29Y-4.43
X6.3Y-4.545
X6.32Y-4.5
X6.325Y-4.402
X6.325Y-4.47
X6.345Y-4.575
X6.36Y-4.185
X6.36Y-4.735
X6.365Y-4.905
X6.415Y-3.85
X6.415Y-3.965
X6.46Y-4.575
X6.49Y-5.035
X6.49Y-5.145
X6.505Y-4.15
X6.54Y-3.85
X6.54Y-3.965
X6.545Y-4.27
X6.58Y-5.035
X6.58Y-5.145
X6.595Y-4.35
X6.67Y-3.85
X6.67Y-3.965
X6.67Y-4.09
X6.67Y-4.435
X6.685Y-4.9
X6.685Y-5.035
X6.7275Y-5.2225
X6.75Y-4.407
X6.81Y-3.85
X6.81Y-3.965
X6.81Y-4.09
X6.81Y-4.345
X6.815Y-4.68
X6.82Y-4.425
X6.825Y-4.9
X6.8625Y-4.2625
X6.8625Y-5.0875
X6.865Y-5.225
X6.89Y-4.68
X6.895Y-4.575
X6.9Y-4.345
X6.9Y-4.38
X6.9Y-4.425
X6.935Y-4.575
X6.945Y-3.85
X6.945Y-3.965
X6.945Y-4.085
X6.98Y-4.775
X6.9825Y-4.9675
X6.985Y-5.085
X6.985Y-5.225
X7.04Y-4.09
X7.04Y-4.245
X7.125Y-4.965
X7.18Y-4.24
X7.185Y-4.095
X7.235Y-4.965
T2
X5.3Y-4.48
X5.3866Y-4.4784
X5.495Y-4.525
X5.495Y-4.6
X5.735Y-4.445
X5.875Y-4.855
X5.965Y-4.945
X5.985Y-4.62
X5.99Y-4.175
X5.99Y-4.285
X6.34Y-4.075
X6.37Y-4.84
X6.48Y-4.96
X6.51Y-4.23
X6.55Y-4.15
T3
X6.Y-5.05
X6.Y-5.15
X6.1Y-5.05
X6.1Y-5.15
X6.2Y-5.05
X6.2Y-5.15
X6.3Y-5.05
X6.3Y-5.15
X6.4Y-5.05
X6.4Y-5.15
X7.075Y-4.35
X7.075Y-4.45
X7.075Y-4.55
X7.075Y-4.65
X7.075Y-4.75
X7.175Y-4.35
X7.175Y-4.45
X7.175Y-4.55
X7.175Y-4.65
X7.175Y-4.75
T0
M30
