G04 #@! TF.FileFunction,Legend,Top*
%FSLAX46Y46*%
G04 Gerber Fmt 4.6, Leading zero omitted, Abs format (unit mm)*
G04 Created by KiCad (PCBNEW 4.0.2+dfsg1-stable) date Fri 29 Jul 2016 09:24:32 AM CST*
%MOMM*%
G01*
G04 APERTURE LIST*
%ADD10C,0.100000*%
%ADD11C,0.300000*%
%ADD12C,0.150000*%
%ADD13C,0.125000*%
G04 APERTURE END LIST*
D10*
D11*
X115041429Y-109284287D02*
X115041429Y-110212858D01*
X114470000Y-109712858D01*
X114470000Y-109927144D01*
X114398571Y-110070001D01*
X114327143Y-110141430D01*
X114184286Y-110212858D01*
X113827143Y-110212858D01*
X113684286Y-110141430D01*
X113612857Y-110070001D01*
X113541429Y-109927144D01*
X113541429Y-109498572D01*
X113612857Y-109355715D01*
X113684286Y-109284287D01*
X114398571Y-111070001D02*
X114470000Y-110927143D01*
X114541429Y-110855715D01*
X114684286Y-110784286D01*
X114755714Y-110784286D01*
X114898571Y-110855715D01*
X114970000Y-110927143D01*
X115041429Y-111070001D01*
X115041429Y-111355715D01*
X114970000Y-111498572D01*
X114898571Y-111570001D01*
X114755714Y-111641429D01*
X114684286Y-111641429D01*
X114541429Y-111570001D01*
X114470000Y-111498572D01*
X114398571Y-111355715D01*
X114398571Y-111070001D01*
X114327143Y-110927143D01*
X114255714Y-110855715D01*
X114112857Y-110784286D01*
X113827143Y-110784286D01*
X113684286Y-110855715D01*
X113612857Y-110927143D01*
X113541429Y-111070001D01*
X113541429Y-111355715D01*
X113612857Y-111498572D01*
X113684286Y-111570001D01*
X113827143Y-111641429D01*
X114112857Y-111641429D01*
X114255714Y-111570001D01*
X114327143Y-111498572D01*
X114398571Y-111355715D01*
X113684286Y-112284286D02*
X113612857Y-112355714D01*
X113541429Y-112284286D01*
X113612857Y-112212857D01*
X113684286Y-112284286D01*
X113541429Y-112284286D01*
X113541429Y-113784286D02*
X113541429Y-112927143D01*
X113541429Y-113355715D02*
X115041429Y-113355715D01*
X114827143Y-113212858D01*
X114684286Y-113070000D01*
X114612857Y-112927143D01*
X115041429Y-114712857D02*
X115041429Y-114855714D01*
X114970000Y-114998571D01*
X114898571Y-115070000D01*
X114755714Y-115141429D01*
X114470000Y-115212857D01*
X114112857Y-115212857D01*
X113827143Y-115141429D01*
X113684286Y-115070000D01*
X113612857Y-114998571D01*
X113541429Y-114855714D01*
X113541429Y-114712857D01*
X113612857Y-114570000D01*
X113684286Y-114498571D01*
X113827143Y-114427143D01*
X114112857Y-114355714D01*
X114470000Y-114355714D01*
X114755714Y-114427143D01*
X114898571Y-114498571D01*
X114970000Y-114570000D01*
X115041429Y-114712857D01*
X115041429Y-116141428D02*
X115041429Y-116284285D01*
X114970000Y-116427142D01*
X114898571Y-116498571D01*
X114755714Y-116570000D01*
X114470000Y-116641428D01*
X114112857Y-116641428D01*
X113827143Y-116570000D01*
X113684286Y-116498571D01*
X113612857Y-116427142D01*
X113541429Y-116284285D01*
X113541429Y-116141428D01*
X113612857Y-115998571D01*
X113684286Y-115927142D01*
X113827143Y-115855714D01*
X114112857Y-115784285D01*
X114470000Y-115784285D01*
X114755714Y-115855714D01*
X114898571Y-115927142D01*
X114970000Y-115998571D01*
X115041429Y-116141428D01*
X113541429Y-118427142D02*
X114541429Y-118427142D01*
X114398571Y-118427142D02*
X114470000Y-118498570D01*
X114541429Y-118641428D01*
X114541429Y-118855713D01*
X114470000Y-118998570D01*
X114327143Y-119069999D01*
X113541429Y-119069999D01*
X114327143Y-119069999D02*
X114470000Y-119141428D01*
X114541429Y-119284285D01*
X114541429Y-119498570D01*
X114470000Y-119641428D01*
X114327143Y-119712856D01*
X113541429Y-119712856D01*
X113541429Y-120427142D02*
X114541429Y-120427142D01*
X114398571Y-120427142D02*
X114470000Y-120498570D01*
X114541429Y-120641428D01*
X114541429Y-120855713D01*
X114470000Y-120998570D01*
X114327143Y-121069999D01*
X113541429Y-121069999D01*
X114327143Y-121069999D02*
X114470000Y-121141428D01*
X114541429Y-121284285D01*
X114541429Y-121498570D01*
X114470000Y-121641428D01*
X114327143Y-121712856D01*
X113541429Y-121712856D01*
X115570000Y-96520000D02*
X115570000Y-134620000D01*
X123190000Y-96520000D02*
X112870000Y-96520000D01*
X123190000Y-134620000D02*
X112870000Y-134620000D01*
X115570000Y-134620000D02*
X114983579Y-133493496D01*
X115570000Y-134620000D02*
X116156421Y-133493496D01*
X115570000Y-96520000D02*
X114983579Y-97646504D01*
X115570000Y-96520000D02*
X116156421Y-97646504D01*
X146900001Y-138958571D02*
X146614287Y-138958571D01*
X146471430Y-139030000D01*
X146400001Y-139101429D01*
X146257144Y-139315714D01*
X146185715Y-139601429D01*
X146185715Y-140172857D01*
X146257144Y-140315714D01*
X146328572Y-140387143D01*
X146471430Y-140458571D01*
X146757144Y-140458571D01*
X146900001Y-140387143D01*
X146971430Y-140315714D01*
X147042858Y-140172857D01*
X147042858Y-139815714D01*
X146971430Y-139672857D01*
X146900001Y-139601429D01*
X146757144Y-139530000D01*
X146471430Y-139530000D01*
X146328572Y-139601429D01*
X146257144Y-139672857D01*
X146185715Y-139815714D01*
X148328572Y-138958571D02*
X148042858Y-138958571D01*
X147900001Y-139030000D01*
X147828572Y-139101429D01*
X147685715Y-139315714D01*
X147614286Y-139601429D01*
X147614286Y-140172857D01*
X147685715Y-140315714D01*
X147757143Y-140387143D01*
X147900001Y-140458571D01*
X148185715Y-140458571D01*
X148328572Y-140387143D01*
X148400001Y-140315714D01*
X148471429Y-140172857D01*
X148471429Y-139815714D01*
X148400001Y-139672857D01*
X148328572Y-139601429D01*
X148185715Y-139530000D01*
X147900001Y-139530000D01*
X147757143Y-139601429D01*
X147685715Y-139672857D01*
X147614286Y-139815714D01*
X149114286Y-140315714D02*
X149185714Y-140387143D01*
X149114286Y-140458571D01*
X149042857Y-140387143D01*
X149114286Y-140315714D01*
X149114286Y-140458571D01*
X150114286Y-138958571D02*
X150257143Y-138958571D01*
X150400000Y-139030000D01*
X150471429Y-139101429D01*
X150542858Y-139244286D01*
X150614286Y-139530000D01*
X150614286Y-139887143D01*
X150542858Y-140172857D01*
X150471429Y-140315714D01*
X150400000Y-140387143D01*
X150257143Y-140458571D01*
X150114286Y-140458571D01*
X149971429Y-140387143D01*
X149900000Y-140315714D01*
X149828572Y-140172857D01*
X149757143Y-139887143D01*
X149757143Y-139530000D01*
X149828572Y-139244286D01*
X149900000Y-139101429D01*
X149971429Y-139030000D01*
X150114286Y-138958571D01*
X151900000Y-139458571D02*
X151900000Y-140458571D01*
X151542857Y-138887143D02*
X151185714Y-139958571D01*
X152114286Y-139958571D01*
X152971428Y-138958571D02*
X153114285Y-138958571D01*
X153257142Y-139030000D01*
X153328571Y-139101429D01*
X153400000Y-139244286D01*
X153471428Y-139530000D01*
X153471428Y-139887143D01*
X153400000Y-140172857D01*
X153328571Y-140315714D01*
X153257142Y-140387143D01*
X153114285Y-140458571D01*
X152971428Y-140458571D01*
X152828571Y-140387143D01*
X152757142Y-140315714D01*
X152685714Y-140172857D01*
X152614285Y-139887143D01*
X152614285Y-139530000D01*
X152685714Y-139244286D01*
X152757142Y-139101429D01*
X152828571Y-139030000D01*
X152971428Y-138958571D01*
X155257142Y-140458571D02*
X155257142Y-139458571D01*
X155257142Y-139601429D02*
X155328570Y-139530000D01*
X155471428Y-139458571D01*
X155685713Y-139458571D01*
X155828570Y-139530000D01*
X155899999Y-139672857D01*
X155899999Y-140458571D01*
X155899999Y-139672857D02*
X155971428Y-139530000D01*
X156114285Y-139458571D01*
X156328570Y-139458571D01*
X156471428Y-139530000D01*
X156542856Y-139672857D01*
X156542856Y-140458571D01*
X157257142Y-140458571D02*
X157257142Y-139458571D01*
X157257142Y-139601429D02*
X157328570Y-139530000D01*
X157471428Y-139458571D01*
X157685713Y-139458571D01*
X157828570Y-139530000D01*
X157899999Y-139672857D01*
X157899999Y-140458571D01*
X157899999Y-139672857D02*
X157971428Y-139530000D01*
X158114285Y-139458571D01*
X158328570Y-139458571D01*
X158471428Y-139530000D01*
X158542856Y-139672857D01*
X158542856Y-140458571D01*
X119380000Y-138430000D02*
X185420000Y-138430000D01*
X119380000Y-130810000D02*
X119380000Y-141130000D01*
X185420000Y-130810000D02*
X185420000Y-141130000D01*
X185420000Y-138430000D02*
X184293496Y-139016421D01*
X185420000Y-138430000D02*
X184293496Y-137843579D01*
X119380000Y-138430000D02*
X120506504Y-139016421D01*
X119380000Y-138430000D02*
X120506504Y-137843579D01*
D12*
X142811500Y-128524000D02*
X137414000Y-128524000D01*
X142748000Y-130556000D02*
X142811500Y-130556000D01*
X137414000Y-130556000D02*
X142748000Y-130556000D01*
X142811500Y-128524000D02*
X142811500Y-130556000D01*
X137414000Y-130556000D02*
X137414000Y-128524000D01*
X169164000Y-119380000D02*
X167767000Y-119380000D01*
X165735000Y-117475000D02*
X165735000Y-118173500D01*
X169164000Y-116205000D02*
X167767000Y-116205000D01*
X171196000Y-118173500D02*
X171196000Y-117475000D01*
X137414000Y-112141000D02*
X137414000Y-112204500D01*
X137414000Y-111633000D02*
X137414000Y-111569500D01*
X135953500Y-110553500D02*
X136017000Y-110553500D01*
X135445500Y-110553500D02*
X135953500Y-110553500D01*
X135509000Y-113157000D02*
X135445500Y-113157000D01*
X134112000Y-112204500D02*
X134112000Y-111950500D01*
X136017000Y-113157000D02*
X135509000Y-113157000D01*
X137414000Y-111633000D02*
X137414000Y-112141000D01*
X147701000Y-101981000D02*
X147701000Y-98933000D01*
X147701000Y-98933000D02*
X140589000Y-98933000D01*
X140589000Y-98933000D02*
X140589000Y-101981000D01*
X147701000Y-105029000D02*
X147701000Y-105791000D01*
X147701000Y-105791000D02*
X146177000Y-108077000D01*
X146177000Y-108077000D02*
X142113000Y-108077000D01*
X142113000Y-108077000D02*
X140589000Y-105791000D01*
X140589000Y-105791000D02*
X140589000Y-105029000D01*
X168148000Y-106172000D02*
X168148000Y-110998000D01*
X168148000Y-110998000D02*
X164592000Y-110998000D01*
X164592000Y-110998000D02*
X164592000Y-106172000D01*
X164592000Y-106172000D02*
X168148000Y-106172000D01*
X165608000Y-106807000D02*
G75*
G03X165608000Y-106807000I-381000J0D01*
G01*
X148725000Y-106640000D02*
X149725000Y-106640000D01*
X149725000Y-107990000D02*
X148725000Y-107990000D01*
X141740000Y-126325000D02*
X142740000Y-126325000D01*
X142740000Y-127675000D02*
X141740000Y-127675000D01*
X155488000Y-108720000D02*
X155488000Y-109720000D01*
X154138000Y-109720000D02*
X154138000Y-108720000D01*
X152233000Y-109720000D02*
X152233000Y-108720000D01*
X153583000Y-108720000D02*
X153583000Y-109720000D01*
X159345000Y-123690000D02*
X159345000Y-122690000D01*
X160695000Y-122690000D02*
X160695000Y-123690000D01*
X165060000Y-123690000D02*
X165060000Y-122690000D01*
X166410000Y-122690000D02*
X166410000Y-123690000D01*
X158885000Y-101560000D02*
X159885000Y-101560000D01*
X159885000Y-102910000D02*
X158885000Y-102910000D01*
X164505000Y-122690000D02*
X164505000Y-123690000D01*
X163155000Y-123690000D02*
X163155000Y-122690000D01*
X163060000Y-105450000D02*
X162060000Y-105450000D01*
X162060000Y-104100000D02*
X163060000Y-104100000D01*
X141740000Y-114260000D02*
X142740000Y-114260000D01*
X142740000Y-115610000D02*
X141740000Y-115610000D01*
X142740000Y-117515000D02*
X141740000Y-117515000D01*
X141740000Y-116165000D02*
X142740000Y-116165000D01*
X170775000Y-105910000D02*
X170775000Y-104910000D01*
X172125000Y-104910000D02*
X172125000Y-105910000D01*
X178435000Y-121920000D02*
X178435000Y-109220000D01*
X178435000Y-109220000D02*
X183515000Y-109220000D01*
X183515000Y-109220000D02*
X183515000Y-119380000D01*
X178435000Y-121920000D02*
X180975000Y-121920000D01*
X182245000Y-122200000D02*
X183795000Y-122200000D01*
X180975000Y-121920000D02*
X180975000Y-119380000D01*
X180975000Y-119380000D02*
X183515000Y-119380000D01*
X183795000Y-122200000D02*
X183795000Y-120650000D01*
X151130000Y-127000000D02*
X163830000Y-127000000D01*
X163830000Y-127000000D02*
X163830000Y-132080000D01*
X163830000Y-132080000D02*
X153670000Y-132080000D01*
X151130000Y-127000000D02*
X151130000Y-129540000D01*
X150850000Y-130810000D02*
X150850000Y-132360000D01*
X151130000Y-129540000D02*
X153670000Y-129540000D01*
X153670000Y-129540000D02*
X153670000Y-132080000D01*
X150850000Y-132360000D02*
X152400000Y-132360000D01*
X120860820Y-111719360D02*
X120860820Y-119420640D01*
X119860060Y-111719360D02*
X119860060Y-119420640D01*
X119860060Y-119420640D02*
X129059940Y-119420640D01*
X129059940Y-119420640D02*
X129059940Y-111719360D01*
X129059940Y-111719360D02*
X119860060Y-111719360D01*
X132320000Y-119415000D02*
X132320000Y-120615000D01*
X130570000Y-120615000D02*
X130570000Y-119415000D01*
X132320000Y-110525000D02*
X132320000Y-111725000D01*
X130570000Y-111725000D02*
X130570000Y-110525000D01*
X155169820Y-102819200D02*
X155169820Y-103520240D01*
X155169820Y-103520240D02*
X154920900Y-103520240D01*
X152370840Y-103520240D02*
X152170180Y-103520240D01*
X152170180Y-103520240D02*
X152170180Y-102819200D01*
X133755180Y-104825800D02*
X133755180Y-104124760D01*
X133755180Y-104124760D02*
X134004100Y-104124760D01*
X136554160Y-104124760D02*
X136754820Y-104124760D01*
X136754820Y-104124760D02*
X136754820Y-104825800D01*
X157265000Y-105545000D02*
X157265000Y-106545000D01*
X158965000Y-106545000D02*
X158965000Y-105545000D01*
X151345000Y-103370000D02*
X151345000Y-102370000D01*
X149645000Y-102370000D02*
X149645000Y-103370000D01*
X139407000Y-105021000D02*
X139407000Y-104021000D01*
X137707000Y-104021000D02*
X137707000Y-105021000D01*
X138145000Y-127600000D02*
X137445000Y-127600000D01*
X137445000Y-126400000D02*
X138145000Y-126400000D01*
X151476000Y-117379000D02*
X151476000Y-118079000D01*
X150276000Y-118079000D02*
X150276000Y-117379000D01*
X130525000Y-107915000D02*
X129825000Y-107915000D01*
X129825000Y-106715000D02*
X130525000Y-106715000D01*
X162972000Y-118145000D02*
X163672000Y-118145000D01*
X163672000Y-119345000D02*
X162972000Y-119345000D01*
X162972000Y-116240000D02*
X163672000Y-116240000D01*
X163672000Y-117440000D02*
X162972000Y-117440000D01*
X146720000Y-112745000D02*
X146720000Y-112045000D01*
X147920000Y-112045000D02*
X147920000Y-112745000D01*
X148625000Y-112745000D02*
X148625000Y-112045000D01*
X149825000Y-112045000D02*
X149825000Y-112745000D01*
X150530000Y-112745000D02*
X150530000Y-112045000D01*
X151730000Y-112045000D02*
X151730000Y-112745000D01*
X159343000Y-113199000D02*
X159343000Y-113724000D01*
X154093000Y-118449000D02*
X154093000Y-117924000D01*
X159343000Y-118449000D02*
X159343000Y-117924000D01*
X154093000Y-113199000D02*
X154618000Y-113199000D01*
X154093000Y-118449000D02*
X154618000Y-118449000D01*
X159343000Y-118449000D02*
X158818000Y-118449000D01*
X159343000Y-113199000D02*
X158818000Y-113199000D01*
X183029903Y-100330000D02*
G75*
G03X183029903Y-100330000I-1419903J0D01*
G01*
X183029903Y-130810000D02*
G75*
G03X183029903Y-130810000I-1419903J0D01*
G01*
X124609903Y-130810000D02*
G75*
G03X124609903Y-130810000I-1419903J0D01*
G01*
X124609903Y-100330000D02*
G75*
G03X124609903Y-100330000I-1419903J0D01*
G01*
X148042381Y-105878095D02*
X148042381Y-105306666D01*
X149042381Y-105592381D02*
X148042381Y-105592381D01*
X149042381Y-104973333D02*
X148042381Y-104973333D01*
X148042381Y-104592380D01*
X148090000Y-104497142D01*
X148137619Y-104449523D01*
X148232857Y-104401904D01*
X148375714Y-104401904D01*
X148470952Y-104449523D01*
X148518571Y-104497142D01*
X148566190Y-104592380D01*
X148566190Y-104973333D01*
X149042381Y-103449523D02*
X149042381Y-104020952D01*
X149042381Y-103735238D02*
X148042381Y-103735238D01*
X148185238Y-103830476D01*
X148280476Y-103925714D01*
X148328095Y-104020952D01*
X148042381Y-102830476D02*
X148042381Y-102735237D01*
X148090000Y-102639999D01*
X148137619Y-102592380D01*
X148232857Y-102544761D01*
X148423333Y-102497142D01*
X148661429Y-102497142D01*
X148851905Y-102544761D01*
X148947143Y-102592380D01*
X148994762Y-102639999D01*
X149042381Y-102735237D01*
X149042381Y-102830476D01*
X148994762Y-102925714D01*
X148947143Y-102973333D01*
X148851905Y-103020952D01*
X148661429Y-103068571D01*
X148423333Y-103068571D01*
X148232857Y-103020952D01*
X148137619Y-102973333D01*
X148090000Y-102925714D01*
X148042381Y-102830476D01*
X139001667Y-131849762D02*
X139144524Y-131897381D01*
X139382620Y-131897381D01*
X139477858Y-131849762D01*
X139525477Y-131802143D01*
X139573096Y-131706905D01*
X139573096Y-131611667D01*
X139525477Y-131516429D01*
X139477858Y-131468810D01*
X139382620Y-131421190D01*
X139192143Y-131373571D01*
X139096905Y-131325952D01*
X139049286Y-131278333D01*
X139001667Y-131183095D01*
X139001667Y-131087857D01*
X139049286Y-130992619D01*
X139096905Y-130945000D01*
X139192143Y-130897381D01*
X139430239Y-130897381D01*
X139573096Y-130945000D01*
X139906429Y-130897381D02*
X140144524Y-131897381D01*
X140335001Y-131183095D01*
X140525477Y-131897381D01*
X140763572Y-130897381D01*
X141668334Y-131897381D02*
X141096905Y-131897381D01*
X141382619Y-131897381D02*
X141382619Y-130897381D01*
X141287381Y-131040238D01*
X141192143Y-131135476D01*
X141096905Y-131183095D01*
D13*
X152531048Y-112756190D02*
X152816762Y-112756190D01*
X152673905Y-113256190D02*
X152673905Y-112756190D01*
X152983429Y-113256190D02*
X152983429Y-112756190D01*
X153173905Y-112756190D01*
X153221524Y-112780000D01*
X153245333Y-112803810D01*
X153269143Y-112851429D01*
X153269143Y-112922857D01*
X153245333Y-112970476D01*
X153221524Y-112994286D01*
X153173905Y-113018095D01*
X152983429Y-113018095D01*
X153507238Y-113256190D02*
X153602476Y-113256190D01*
X153650095Y-113232381D01*
X153673905Y-113208571D01*
X153721524Y-113137143D01*
X153745333Y-113041905D01*
X153745333Y-112851429D01*
X153721524Y-112803810D01*
X153697714Y-112780000D01*
X153650095Y-112756190D01*
X153554857Y-112756190D01*
X153507238Y-112780000D01*
X153483429Y-112803810D01*
X153459619Y-112851429D01*
X153459619Y-112970476D01*
X153483429Y-113018095D01*
X153507238Y-113041905D01*
X153554857Y-113065714D01*
X153650095Y-113065714D01*
X153697714Y-113041905D01*
X153721524Y-113018095D01*
X153745333Y-112970476D01*
D12*
X158758095Y-108672381D02*
X159329524Y-108672381D01*
X159043809Y-109672381D02*
X159043809Y-108672381D01*
X159662857Y-109672381D02*
X159662857Y-108672381D01*
X160043810Y-108672381D01*
X160139048Y-108720000D01*
X160186667Y-108767619D01*
X160234286Y-108862857D01*
X160234286Y-109005714D01*
X160186667Y-109100952D01*
X160139048Y-109148571D01*
X160043810Y-109196190D01*
X159662857Y-109196190D01*
X160567619Y-108672381D02*
X161234286Y-108672381D01*
X160805714Y-109672381D01*
X167013095Y-112863381D02*
X167584524Y-112863381D01*
X167298809Y-113863381D02*
X167298809Y-112863381D01*
X167917857Y-113863381D02*
X167917857Y-112863381D01*
X168298810Y-112863381D01*
X168394048Y-112911000D01*
X168441667Y-112958619D01*
X168489286Y-113053857D01*
X168489286Y-113196714D01*
X168441667Y-113291952D01*
X168394048Y-113339571D01*
X168298810Y-113387190D01*
X167917857Y-113387190D01*
X169346429Y-112863381D02*
X169155952Y-112863381D01*
X169060714Y-112911000D01*
X169013095Y-112958619D01*
X168917857Y-113101476D01*
X168870238Y-113291952D01*
X168870238Y-113672905D01*
X168917857Y-113768143D01*
X168965476Y-113815762D01*
X169060714Y-113863381D01*
X169251191Y-113863381D01*
X169346429Y-113815762D01*
X169394048Y-113768143D01*
X169441667Y-113672905D01*
X169441667Y-113434810D01*
X169394048Y-113339571D01*
X169346429Y-113291952D01*
X169251191Y-113244333D01*
X169060714Y-113244333D01*
X168965476Y-113291952D01*
X168917857Y-113339571D01*
X168870238Y-113434810D01*
X164473095Y-112863381D02*
X165044524Y-112863381D01*
X164758809Y-113863381D02*
X164758809Y-112863381D01*
X165377857Y-113863381D02*
X165377857Y-112863381D01*
X165758810Y-112863381D01*
X165854048Y-112911000D01*
X165901667Y-112958619D01*
X165949286Y-113053857D01*
X165949286Y-113196714D01*
X165901667Y-113291952D01*
X165854048Y-113339571D01*
X165758810Y-113387190D01*
X165377857Y-113387190D01*
X166854048Y-112863381D02*
X166377857Y-112863381D01*
X166330238Y-113339571D01*
X166377857Y-113291952D01*
X166473095Y-113244333D01*
X166711191Y-113244333D01*
X166806429Y-113291952D01*
X166854048Y-113339571D01*
X166901667Y-113434810D01*
X166901667Y-113672905D01*
X166854048Y-113768143D01*
X166806429Y-113815762D01*
X166711191Y-113863381D01*
X166473095Y-113863381D01*
X166377857Y-113815762D01*
X166330238Y-113768143D01*
X167925809Y-120499190D02*
X167925809Y-120975381D01*
X167592476Y-119975381D02*
X167925809Y-120499190D01*
X168259143Y-119975381D01*
X169116286Y-120975381D02*
X168544857Y-120975381D01*
X168830571Y-120975381D02*
X168830571Y-119975381D01*
X168735333Y-120118238D01*
X168640095Y-120213476D01*
X168544857Y-120261095D01*
X160663095Y-121880381D02*
X161234524Y-121880381D01*
X160948809Y-122880381D02*
X160948809Y-121880381D01*
X161567857Y-122880381D02*
X161567857Y-121880381D01*
X161948810Y-121880381D01*
X162044048Y-121928000D01*
X162091667Y-121975619D01*
X162139286Y-122070857D01*
X162139286Y-122213714D01*
X162091667Y-122308952D01*
X162044048Y-122356571D01*
X161948810Y-122404190D01*
X161567857Y-122404190D01*
X162710714Y-122308952D02*
X162615476Y-122261333D01*
X162567857Y-122213714D01*
X162520238Y-122118476D01*
X162520238Y-122070857D01*
X162567857Y-121975619D01*
X162615476Y-121928000D01*
X162710714Y-121880381D01*
X162901191Y-121880381D01*
X162996429Y-121928000D01*
X163044048Y-121975619D01*
X163091667Y-122070857D01*
X163091667Y-122118476D01*
X163044048Y-122213714D01*
X162996429Y-122261333D01*
X162901191Y-122308952D01*
X162710714Y-122308952D01*
X162615476Y-122356571D01*
X162567857Y-122404190D01*
X162520238Y-122499429D01*
X162520238Y-122689905D01*
X162567857Y-122785143D01*
X162615476Y-122832762D01*
X162710714Y-122880381D01*
X162901191Y-122880381D01*
X162996429Y-122832762D01*
X163044048Y-122785143D01*
X163091667Y-122689905D01*
X163091667Y-122499429D01*
X163044048Y-122404190D01*
X162996429Y-122356571D01*
X162901191Y-122308952D01*
X149233095Y-123277381D02*
X149804524Y-123277381D01*
X149518809Y-124277381D02*
X149518809Y-123277381D01*
X150137857Y-124277381D02*
X150137857Y-123277381D01*
X150518810Y-123277381D01*
X150614048Y-123325000D01*
X150661667Y-123372619D01*
X150709286Y-123467857D01*
X150709286Y-123610714D01*
X150661667Y-123705952D01*
X150614048Y-123753571D01*
X150518810Y-123801190D01*
X150137857Y-123801190D01*
X151566429Y-123610714D02*
X151566429Y-124277381D01*
X151328333Y-123229762D02*
X151090238Y-123944048D01*
X151709286Y-123944048D01*
X150503095Y-120737381D02*
X151074524Y-120737381D01*
X150788809Y-121737381D02*
X150788809Y-120737381D01*
X151407857Y-121737381D02*
X151407857Y-120737381D01*
X151788810Y-120737381D01*
X151884048Y-120785000D01*
X151931667Y-120832619D01*
X151979286Y-120927857D01*
X151979286Y-121070714D01*
X151931667Y-121165952D01*
X151884048Y-121213571D01*
X151788810Y-121261190D01*
X151407857Y-121261190D01*
X152312619Y-120737381D02*
X152931667Y-120737381D01*
X152598333Y-121118333D01*
X152741191Y-121118333D01*
X152836429Y-121165952D01*
X152884048Y-121213571D01*
X152931667Y-121308810D01*
X152931667Y-121546905D01*
X152884048Y-121642143D01*
X152836429Y-121689762D01*
X152741191Y-121737381D01*
X152455476Y-121737381D01*
X152360238Y-121689762D01*
X152312619Y-121642143D01*
X133993095Y-118959381D02*
X134564524Y-118959381D01*
X134278809Y-119959381D02*
X134278809Y-118959381D01*
X134897857Y-119959381D02*
X134897857Y-118959381D01*
X135278810Y-118959381D01*
X135374048Y-119007000D01*
X135421667Y-119054619D01*
X135469286Y-119149857D01*
X135469286Y-119292714D01*
X135421667Y-119387952D01*
X135374048Y-119435571D01*
X135278810Y-119483190D01*
X134897857Y-119483190D01*
X135850238Y-119054619D02*
X135897857Y-119007000D01*
X135993095Y-118959381D01*
X136231191Y-118959381D01*
X136326429Y-119007000D01*
X136374048Y-119054619D01*
X136421667Y-119149857D01*
X136421667Y-119245095D01*
X136374048Y-119387952D01*
X135802619Y-119959381D01*
X136421667Y-119959381D01*
X151773095Y-123277381D02*
X152344524Y-123277381D01*
X152058809Y-124277381D02*
X152058809Y-123277381D01*
X152677857Y-124277381D02*
X152677857Y-123277381D01*
X153058810Y-123277381D01*
X153154048Y-123325000D01*
X153201667Y-123372619D01*
X153249286Y-123467857D01*
X153249286Y-123610714D01*
X153201667Y-123705952D01*
X153154048Y-123753571D01*
X153058810Y-123801190D01*
X152677857Y-123801190D01*
X154201667Y-124277381D02*
X153630238Y-124277381D01*
X153915952Y-124277381D02*
X153915952Y-123277381D01*
X153820714Y-123420238D01*
X153725476Y-123515476D01*
X153630238Y-123563095D01*
X138326905Y-112212381D02*
X138326905Y-111212381D01*
X138565000Y-111212381D01*
X138707858Y-111260000D01*
X138803096Y-111355238D01*
X138850715Y-111450476D01*
X138898334Y-111640952D01*
X138898334Y-111783810D01*
X138850715Y-111974286D01*
X138803096Y-112069524D01*
X138707858Y-112164762D01*
X138565000Y-112212381D01*
X138326905Y-112212381D01*
X139850715Y-112212381D02*
X139279286Y-112212381D01*
X139565000Y-112212381D02*
X139565000Y-111212381D01*
X139469762Y-111355238D01*
X139374524Y-111450476D01*
X139279286Y-111498095D01*
X135072381Y-109442285D02*
X135072381Y-110013714D01*
X135072381Y-109728000D02*
X134072381Y-109728000D01*
X134215238Y-109823238D01*
X134310476Y-109918476D01*
X134358095Y-110013714D01*
X143383095Y-108672381D02*
X143383095Y-109481905D01*
X143430714Y-109577143D01*
X143478333Y-109624762D01*
X143573571Y-109672381D01*
X143764048Y-109672381D01*
X143859286Y-109624762D01*
X143906905Y-109577143D01*
X143954524Y-109481905D01*
X143954524Y-108672381D01*
X144335476Y-108672381D02*
X144954524Y-108672381D01*
X144621190Y-109053333D01*
X144764048Y-109053333D01*
X144859286Y-109100952D01*
X144906905Y-109148571D01*
X144954524Y-109243810D01*
X144954524Y-109481905D01*
X144906905Y-109577143D01*
X144859286Y-109624762D01*
X144764048Y-109672381D01*
X144478333Y-109672381D01*
X144383095Y-109624762D01*
X144335476Y-109577143D01*
X165608095Y-111212381D02*
X165608095Y-112021905D01*
X165655714Y-112117143D01*
X165703333Y-112164762D01*
X165798571Y-112212381D01*
X165989048Y-112212381D01*
X166084286Y-112164762D01*
X166131905Y-112117143D01*
X166179524Y-112021905D01*
X166179524Y-111212381D01*
X166608095Y-111307619D02*
X166655714Y-111260000D01*
X166750952Y-111212381D01*
X166989048Y-111212381D01*
X167084286Y-111260000D01*
X167131905Y-111307619D01*
X167179524Y-111402857D01*
X167179524Y-111498095D01*
X167131905Y-111640952D01*
X166560476Y-112212381D01*
X167179524Y-112212381D01*
X148582143Y-109672381D02*
X148248809Y-109196190D01*
X148010714Y-109672381D02*
X148010714Y-108672381D01*
X148391667Y-108672381D01*
X148486905Y-108720000D01*
X148534524Y-108767619D01*
X148582143Y-108862857D01*
X148582143Y-109005714D01*
X148534524Y-109100952D01*
X148486905Y-109148571D01*
X148391667Y-109196190D01*
X148010714Y-109196190D01*
X149534524Y-109672381D02*
X148963095Y-109672381D01*
X149248809Y-109672381D02*
X149248809Y-108672381D01*
X149153571Y-108815238D01*
X149058333Y-108910476D01*
X148963095Y-108958095D01*
X149915476Y-108767619D02*
X149963095Y-108720000D01*
X150058333Y-108672381D01*
X150296429Y-108672381D01*
X150391667Y-108720000D01*
X150439286Y-108767619D01*
X150486905Y-108862857D01*
X150486905Y-108958095D01*
X150439286Y-109100952D01*
X149867857Y-109672381D01*
X150486905Y-109672381D01*
X141597143Y-125547381D02*
X141263809Y-125071190D01*
X141025714Y-125547381D02*
X141025714Y-124547381D01*
X141406667Y-124547381D01*
X141501905Y-124595000D01*
X141549524Y-124642619D01*
X141597143Y-124737857D01*
X141597143Y-124880714D01*
X141549524Y-124975952D01*
X141501905Y-125023571D01*
X141406667Y-125071190D01*
X141025714Y-125071190D01*
X142549524Y-125547381D02*
X141978095Y-125547381D01*
X142263809Y-125547381D02*
X142263809Y-124547381D01*
X142168571Y-124690238D01*
X142073333Y-124785476D01*
X141978095Y-124833095D01*
X143501905Y-125547381D02*
X142930476Y-125547381D01*
X143216190Y-125547381D02*
X143216190Y-124547381D01*
X143120952Y-124690238D01*
X143025714Y-124785476D01*
X142930476Y-124833095D01*
X154297143Y-107132381D02*
X153963809Y-106656190D01*
X153725714Y-107132381D02*
X153725714Y-106132381D01*
X154106667Y-106132381D01*
X154201905Y-106180000D01*
X154249524Y-106227619D01*
X154297143Y-106322857D01*
X154297143Y-106465714D01*
X154249524Y-106560952D01*
X154201905Y-106608571D01*
X154106667Y-106656190D01*
X153725714Y-106656190D01*
X155249524Y-107132381D02*
X154678095Y-107132381D01*
X154963809Y-107132381D02*
X154963809Y-106132381D01*
X154868571Y-106275238D01*
X154773333Y-106370476D01*
X154678095Y-106418095D01*
X155868571Y-106132381D02*
X155963810Y-106132381D01*
X156059048Y-106180000D01*
X156106667Y-106227619D01*
X156154286Y-106322857D01*
X156201905Y-106513333D01*
X156201905Y-106751429D01*
X156154286Y-106941905D01*
X156106667Y-107037143D01*
X156059048Y-107084762D01*
X155963810Y-107132381D01*
X155868571Y-107132381D01*
X155773333Y-107084762D01*
X155725714Y-107037143D01*
X155678095Y-106941905D01*
X155630476Y-106751429D01*
X155630476Y-106513333D01*
X155678095Y-106322857D01*
X155725714Y-106227619D01*
X155773333Y-106180000D01*
X155868571Y-106132381D01*
X152487334Y-107132381D02*
X152154000Y-106656190D01*
X151915905Y-107132381D02*
X151915905Y-106132381D01*
X152296858Y-106132381D01*
X152392096Y-106180000D01*
X152439715Y-106227619D01*
X152487334Y-106322857D01*
X152487334Y-106465714D01*
X152439715Y-106560952D01*
X152392096Y-106608571D01*
X152296858Y-106656190D01*
X151915905Y-106656190D01*
X152963524Y-107132381D02*
X153154000Y-107132381D01*
X153249239Y-107084762D01*
X153296858Y-107037143D01*
X153392096Y-106894286D01*
X153439715Y-106703810D01*
X153439715Y-106322857D01*
X153392096Y-106227619D01*
X153344477Y-106180000D01*
X153249239Y-106132381D01*
X153058762Y-106132381D01*
X152963524Y-106180000D01*
X152915905Y-106227619D01*
X152868286Y-106322857D01*
X152868286Y-106560952D01*
X152915905Y-106656190D01*
X152963524Y-106703810D01*
X153058762Y-106751429D01*
X153249239Y-106751429D01*
X153344477Y-106703810D01*
X153392096Y-106656190D01*
X153439715Y-106560952D01*
X157948334Y-123642381D02*
X157615000Y-123166190D01*
X157376905Y-123642381D02*
X157376905Y-122642381D01*
X157757858Y-122642381D01*
X157853096Y-122690000D01*
X157900715Y-122737619D01*
X157948334Y-122832857D01*
X157948334Y-122975714D01*
X157900715Y-123070952D01*
X157853096Y-123118571D01*
X157757858Y-123166190D01*
X157376905Y-123166190D01*
X158519762Y-123070952D02*
X158424524Y-123023333D01*
X158376905Y-122975714D01*
X158329286Y-122880476D01*
X158329286Y-122832857D01*
X158376905Y-122737619D01*
X158424524Y-122690000D01*
X158519762Y-122642381D01*
X158710239Y-122642381D01*
X158805477Y-122690000D01*
X158853096Y-122737619D01*
X158900715Y-122832857D01*
X158900715Y-122880476D01*
X158853096Y-122975714D01*
X158805477Y-123023333D01*
X158710239Y-123070952D01*
X158519762Y-123070952D01*
X158424524Y-123118571D01*
X158376905Y-123166190D01*
X158329286Y-123261429D01*
X158329286Y-123451905D01*
X158376905Y-123547143D01*
X158424524Y-123594762D01*
X158519762Y-123642381D01*
X158710239Y-123642381D01*
X158805477Y-123594762D01*
X158853096Y-123547143D01*
X158900715Y-123451905D01*
X158900715Y-123261429D01*
X158853096Y-123166190D01*
X158805477Y-123118571D01*
X158710239Y-123070952D01*
X167473334Y-124912381D02*
X167140000Y-124436190D01*
X166901905Y-124912381D02*
X166901905Y-123912381D01*
X167282858Y-123912381D01*
X167378096Y-123960000D01*
X167425715Y-124007619D01*
X167473334Y-124102857D01*
X167473334Y-124245714D01*
X167425715Y-124340952D01*
X167378096Y-124388571D01*
X167282858Y-124436190D01*
X166901905Y-124436190D01*
X167806667Y-123912381D02*
X168473334Y-123912381D01*
X168044762Y-124912381D01*
X156043334Y-102687381D02*
X155710000Y-102211190D01*
X155471905Y-102687381D02*
X155471905Y-101687381D01*
X155852858Y-101687381D01*
X155948096Y-101735000D01*
X155995715Y-101782619D01*
X156043334Y-101877857D01*
X156043334Y-102020714D01*
X155995715Y-102115952D01*
X155948096Y-102163571D01*
X155852858Y-102211190D01*
X155471905Y-102211190D01*
X156900477Y-101687381D02*
X156710000Y-101687381D01*
X156614762Y-101735000D01*
X156567143Y-101782619D01*
X156471905Y-101925476D01*
X156424286Y-102115952D01*
X156424286Y-102496905D01*
X156471905Y-102592143D01*
X156519524Y-102639762D01*
X156614762Y-102687381D01*
X156805239Y-102687381D01*
X156900477Y-102639762D01*
X156948096Y-102592143D01*
X156995715Y-102496905D01*
X156995715Y-102258810D01*
X156948096Y-102163571D01*
X156900477Y-102115952D01*
X156805239Y-102068333D01*
X156614762Y-102068333D01*
X156519524Y-102115952D01*
X156471905Y-102163571D01*
X156424286Y-102258810D01*
X161758334Y-124912381D02*
X161425000Y-124436190D01*
X161186905Y-124912381D02*
X161186905Y-123912381D01*
X161567858Y-123912381D01*
X161663096Y-123960000D01*
X161710715Y-124007619D01*
X161758334Y-124102857D01*
X161758334Y-124245714D01*
X161710715Y-124340952D01*
X161663096Y-124388571D01*
X161567858Y-124436190D01*
X161186905Y-124436190D01*
X162663096Y-123912381D02*
X162186905Y-123912381D01*
X162139286Y-124388571D01*
X162186905Y-124340952D01*
X162282143Y-124293333D01*
X162520239Y-124293333D01*
X162615477Y-124340952D01*
X162663096Y-124388571D01*
X162710715Y-124483810D01*
X162710715Y-124721905D01*
X162663096Y-124817143D01*
X162615477Y-124864762D01*
X162520239Y-124912381D01*
X162282143Y-124912381D01*
X162186905Y-124864762D01*
X162139286Y-124817143D01*
X162393334Y-103327381D02*
X162060000Y-102851190D01*
X161821905Y-103327381D02*
X161821905Y-102327381D01*
X162202858Y-102327381D01*
X162298096Y-102375000D01*
X162345715Y-102422619D01*
X162393334Y-102517857D01*
X162393334Y-102660714D01*
X162345715Y-102755952D01*
X162298096Y-102803571D01*
X162202858Y-102851190D01*
X161821905Y-102851190D01*
X163250477Y-102660714D02*
X163250477Y-103327381D01*
X163012381Y-102279762D02*
X162774286Y-102994048D01*
X163393334Y-102994048D01*
X142073334Y-113482381D02*
X141740000Y-113006190D01*
X141501905Y-113482381D02*
X141501905Y-112482381D01*
X141882858Y-112482381D01*
X141978096Y-112530000D01*
X142025715Y-112577619D01*
X142073334Y-112672857D01*
X142073334Y-112815714D01*
X142025715Y-112910952D01*
X141978096Y-112958571D01*
X141882858Y-113006190D01*
X141501905Y-113006190D01*
X142406667Y-112482381D02*
X143025715Y-112482381D01*
X142692381Y-112863333D01*
X142835239Y-112863333D01*
X142930477Y-112910952D01*
X142978096Y-112958571D01*
X143025715Y-113053810D01*
X143025715Y-113291905D01*
X142978096Y-113387143D01*
X142930477Y-113434762D01*
X142835239Y-113482381D01*
X142549524Y-113482381D01*
X142454286Y-113434762D01*
X142406667Y-113387143D01*
X142073334Y-119197381D02*
X141740000Y-118721190D01*
X141501905Y-119197381D02*
X141501905Y-118197381D01*
X141882858Y-118197381D01*
X141978096Y-118245000D01*
X142025715Y-118292619D01*
X142073334Y-118387857D01*
X142073334Y-118530714D01*
X142025715Y-118625952D01*
X141978096Y-118673571D01*
X141882858Y-118721190D01*
X141501905Y-118721190D01*
X142454286Y-118292619D02*
X142501905Y-118245000D01*
X142597143Y-118197381D01*
X142835239Y-118197381D01*
X142930477Y-118245000D01*
X142978096Y-118292619D01*
X143025715Y-118387857D01*
X143025715Y-118483095D01*
X142978096Y-118625952D01*
X142406667Y-119197381D01*
X143025715Y-119197381D01*
X173188334Y-105862381D02*
X172855000Y-105386190D01*
X172616905Y-105862381D02*
X172616905Y-104862381D01*
X172997858Y-104862381D01*
X173093096Y-104910000D01*
X173140715Y-104957619D01*
X173188334Y-105052857D01*
X173188334Y-105195714D01*
X173140715Y-105290952D01*
X173093096Y-105338571D01*
X172997858Y-105386190D01*
X172616905Y-105386190D01*
X174140715Y-105862381D02*
X173569286Y-105862381D01*
X173855000Y-105862381D02*
X173855000Y-104862381D01*
X173759762Y-105005238D01*
X173664524Y-105100476D01*
X173569286Y-105148095D01*
X182141905Y-123642381D02*
X182141905Y-122642381D01*
X182522858Y-122642381D01*
X182618096Y-122690000D01*
X182665715Y-122737619D01*
X182713334Y-122832857D01*
X182713334Y-122975714D01*
X182665715Y-123070952D01*
X182618096Y-123118571D01*
X182522858Y-123166190D01*
X182141905Y-123166190D01*
X183046667Y-122642381D02*
X183665715Y-122642381D01*
X183332381Y-123023333D01*
X183475239Y-123023333D01*
X183570477Y-123070952D01*
X183618096Y-123118571D01*
X183665715Y-123213810D01*
X183665715Y-123451905D01*
X183618096Y-123547143D01*
X183570477Y-123594762D01*
X183475239Y-123642381D01*
X183189524Y-123642381D01*
X183094286Y-123594762D01*
X183046667Y-123547143D01*
X148486905Y-131897381D02*
X148486905Y-130897381D01*
X148867858Y-130897381D01*
X148963096Y-130945000D01*
X149010715Y-130992619D01*
X149058334Y-131087857D01*
X149058334Y-131230714D01*
X149010715Y-131325952D01*
X148963096Y-131373571D01*
X148867858Y-131421190D01*
X148486905Y-131421190D01*
X149439286Y-130992619D02*
X149486905Y-130945000D01*
X149582143Y-130897381D01*
X149820239Y-130897381D01*
X149915477Y-130945000D01*
X149963096Y-130992619D01*
X150010715Y-131087857D01*
X150010715Y-131183095D01*
X149963096Y-131325952D01*
X149391667Y-131897381D01*
X150010715Y-131897381D01*
X123721905Y-122923561D02*
X123721905Y-121923561D01*
X124102858Y-121923561D01*
X124198096Y-121971180D01*
X124245715Y-122018799D01*
X124293334Y-122114037D01*
X124293334Y-122256894D01*
X124245715Y-122352132D01*
X124198096Y-122399751D01*
X124102858Y-122447370D01*
X123721905Y-122447370D01*
X125245715Y-122923561D02*
X124674286Y-122923561D01*
X124960000Y-122923561D02*
X124960000Y-121923561D01*
X124864762Y-122066418D01*
X124769524Y-122161656D01*
X124674286Y-122209275D01*
X131278334Y-123642381D02*
X130802143Y-123642381D01*
X130802143Y-122642381D01*
X131564048Y-122737619D02*
X131611667Y-122690000D01*
X131706905Y-122642381D01*
X131945001Y-122642381D01*
X132040239Y-122690000D01*
X132087858Y-122737619D01*
X132135477Y-122832857D01*
X132135477Y-122928095D01*
X132087858Y-123070952D01*
X131516429Y-123642381D01*
X132135477Y-123642381D01*
X131405334Y-114752381D02*
X130929143Y-114752381D01*
X130929143Y-113752381D01*
X132262477Y-114752381D02*
X131691048Y-114752381D01*
X131976762Y-114752381D02*
X131976762Y-113752381D01*
X131881524Y-113895238D01*
X131786286Y-113990476D01*
X131691048Y-114038095D01*
X154836905Y-105227381D02*
X154836905Y-104227381D01*
X155075000Y-104227381D01*
X155217858Y-104275000D01*
X155313096Y-104370238D01*
X155360715Y-104465476D01*
X155408334Y-104655952D01*
X155408334Y-104798810D01*
X155360715Y-104989286D01*
X155313096Y-105084524D01*
X155217858Y-105179762D01*
X155075000Y-105227381D01*
X154836905Y-105227381D01*
X156265477Y-104560714D02*
X156265477Y-105227381D01*
X156027381Y-104179762D02*
X155789286Y-104894048D01*
X156408334Y-104894048D01*
X132611905Y-103322381D02*
X132611905Y-102322381D01*
X132850000Y-102322381D01*
X132992858Y-102370000D01*
X133088096Y-102465238D01*
X133135715Y-102560476D01*
X133183334Y-102750952D01*
X133183334Y-102893810D01*
X133135715Y-103084286D01*
X133088096Y-103179524D01*
X132992858Y-103274762D01*
X132850000Y-103322381D01*
X132611905Y-103322381D01*
X133516667Y-102322381D02*
X134135715Y-102322381D01*
X133802381Y-102703333D01*
X133945239Y-102703333D01*
X134040477Y-102750952D01*
X134088096Y-102798571D01*
X134135715Y-102893810D01*
X134135715Y-103131905D01*
X134088096Y-103227143D01*
X134040477Y-103274762D01*
X133945239Y-103322381D01*
X133659524Y-103322381D01*
X133564286Y-103274762D01*
X133516667Y-103227143D01*
X159281905Y-107767381D02*
X159281905Y-106767381D01*
X159520000Y-106767381D01*
X159662858Y-106815000D01*
X159758096Y-106910238D01*
X159805715Y-107005476D01*
X159853334Y-107195952D01*
X159853334Y-107338810D01*
X159805715Y-107529286D01*
X159758096Y-107624524D01*
X159662858Y-107719762D01*
X159520000Y-107767381D01*
X159281905Y-107767381D01*
X160234286Y-106862619D02*
X160281905Y-106815000D01*
X160377143Y-106767381D01*
X160615239Y-106767381D01*
X160710477Y-106815000D01*
X160758096Y-106862619D01*
X160805715Y-106957857D01*
X160805715Y-107053095D01*
X160758096Y-107195952D01*
X160186667Y-107767381D01*
X160805715Y-107767381D01*
X149852143Y-100052143D02*
X149804524Y-100099762D01*
X149661667Y-100147381D01*
X149566429Y-100147381D01*
X149423571Y-100099762D01*
X149328333Y-100004524D01*
X149280714Y-99909286D01*
X149233095Y-99718810D01*
X149233095Y-99575952D01*
X149280714Y-99385476D01*
X149328333Y-99290238D01*
X149423571Y-99195000D01*
X149566429Y-99147381D01*
X149661667Y-99147381D01*
X149804524Y-99195000D01*
X149852143Y-99242619D01*
X150804524Y-100147381D02*
X150233095Y-100147381D01*
X150518809Y-100147381D02*
X150518809Y-99147381D01*
X150423571Y-99290238D01*
X150328333Y-99385476D01*
X150233095Y-99433095D01*
X151423571Y-99147381D02*
X151518810Y-99147381D01*
X151614048Y-99195000D01*
X151661667Y-99242619D01*
X151709286Y-99337857D01*
X151756905Y-99528333D01*
X151756905Y-99766429D01*
X151709286Y-99956905D01*
X151661667Y-100052143D01*
X151614048Y-100099762D01*
X151518810Y-100147381D01*
X151423571Y-100147381D01*
X151328333Y-100099762D01*
X151280714Y-100052143D01*
X151233095Y-99956905D01*
X151185476Y-99766429D01*
X151185476Y-99528333D01*
X151233095Y-99337857D01*
X151280714Y-99242619D01*
X151328333Y-99195000D01*
X151423571Y-99147381D01*
X138390334Y-101703143D02*
X138342715Y-101750762D01*
X138199858Y-101798381D01*
X138104620Y-101798381D01*
X137961762Y-101750762D01*
X137866524Y-101655524D01*
X137818905Y-101560286D01*
X137771286Y-101369810D01*
X137771286Y-101226952D01*
X137818905Y-101036476D01*
X137866524Y-100941238D01*
X137961762Y-100846000D01*
X138104620Y-100798381D01*
X138199858Y-100798381D01*
X138342715Y-100846000D01*
X138390334Y-100893619D01*
X138866524Y-101798381D02*
X139057000Y-101798381D01*
X139152239Y-101750762D01*
X139199858Y-101703143D01*
X139295096Y-101560286D01*
X139342715Y-101369810D01*
X139342715Y-100988857D01*
X139295096Y-100893619D01*
X139247477Y-100846000D01*
X139152239Y-100798381D01*
X138961762Y-100798381D01*
X138866524Y-100846000D01*
X138818905Y-100893619D01*
X138771286Y-100988857D01*
X138771286Y-101226952D01*
X138818905Y-101322190D01*
X138866524Y-101369810D01*
X138961762Y-101417429D01*
X139152239Y-101417429D01*
X139247477Y-101369810D01*
X139295096Y-101322190D01*
X139342715Y-101226952D01*
X137628334Y-125452143D02*
X137580715Y-125499762D01*
X137437858Y-125547381D01*
X137342620Y-125547381D01*
X137199762Y-125499762D01*
X137104524Y-125404524D01*
X137056905Y-125309286D01*
X137009286Y-125118810D01*
X137009286Y-124975952D01*
X137056905Y-124785476D01*
X137104524Y-124690238D01*
X137199762Y-124595000D01*
X137342620Y-124547381D01*
X137437858Y-124547381D01*
X137580715Y-124595000D01*
X137628334Y-124642619D01*
X138199762Y-124975952D02*
X138104524Y-124928333D01*
X138056905Y-124880714D01*
X138009286Y-124785476D01*
X138009286Y-124737857D01*
X138056905Y-124642619D01*
X138104524Y-124595000D01*
X138199762Y-124547381D01*
X138390239Y-124547381D01*
X138485477Y-124595000D01*
X138533096Y-124642619D01*
X138580715Y-124737857D01*
X138580715Y-124785476D01*
X138533096Y-124880714D01*
X138485477Y-124928333D01*
X138390239Y-124975952D01*
X138199762Y-124975952D01*
X138104524Y-125023571D01*
X138056905Y-125071190D01*
X138009286Y-125166429D01*
X138009286Y-125356905D01*
X138056905Y-125452143D01*
X138104524Y-125499762D01*
X138199762Y-125547381D01*
X138390239Y-125547381D01*
X138485477Y-125499762D01*
X138533096Y-125452143D01*
X138580715Y-125356905D01*
X138580715Y-125166429D01*
X138533096Y-125071190D01*
X138485477Y-125023571D01*
X138390239Y-124975952D01*
X148931334Y-118213143D02*
X148883715Y-118260762D01*
X148740858Y-118308381D01*
X148645620Y-118308381D01*
X148502762Y-118260762D01*
X148407524Y-118165524D01*
X148359905Y-118070286D01*
X148312286Y-117879810D01*
X148312286Y-117736952D01*
X148359905Y-117546476D01*
X148407524Y-117451238D01*
X148502762Y-117356000D01*
X148645620Y-117308381D01*
X148740858Y-117308381D01*
X148883715Y-117356000D01*
X148931334Y-117403619D01*
X149264667Y-117308381D02*
X149931334Y-117308381D01*
X149502762Y-118308381D01*
X126198334Y-110212143D02*
X126150715Y-110259762D01*
X126007858Y-110307381D01*
X125912620Y-110307381D01*
X125769762Y-110259762D01*
X125674524Y-110164524D01*
X125626905Y-110069286D01*
X125579286Y-109878810D01*
X125579286Y-109735952D01*
X125626905Y-109545476D01*
X125674524Y-109450238D01*
X125769762Y-109355000D01*
X125912620Y-109307381D01*
X126007858Y-109307381D01*
X126150715Y-109355000D01*
X126198334Y-109402619D01*
X127055477Y-109307381D02*
X126865000Y-109307381D01*
X126769762Y-109355000D01*
X126722143Y-109402619D01*
X126626905Y-109545476D01*
X126579286Y-109735952D01*
X126579286Y-110116905D01*
X126626905Y-110212143D01*
X126674524Y-110259762D01*
X126769762Y-110307381D01*
X126960239Y-110307381D01*
X127055477Y-110259762D01*
X127103096Y-110212143D01*
X127150715Y-110116905D01*
X127150715Y-109878810D01*
X127103096Y-109783571D01*
X127055477Y-109735952D01*
X126960239Y-109688333D01*
X126769762Y-109688333D01*
X126674524Y-109735952D01*
X126626905Y-109783571D01*
X126579286Y-109878810D01*
X163155334Y-120372143D02*
X163107715Y-120419762D01*
X162964858Y-120467381D01*
X162869620Y-120467381D01*
X162726762Y-120419762D01*
X162631524Y-120324524D01*
X162583905Y-120229286D01*
X162536286Y-120038810D01*
X162536286Y-119895952D01*
X162583905Y-119705476D01*
X162631524Y-119610238D01*
X162726762Y-119515000D01*
X162869620Y-119467381D01*
X162964858Y-119467381D01*
X163107715Y-119515000D01*
X163155334Y-119562619D01*
X164060096Y-119467381D02*
X163583905Y-119467381D01*
X163536286Y-119943571D01*
X163583905Y-119895952D01*
X163679143Y-119848333D01*
X163917239Y-119848333D01*
X164012477Y-119895952D01*
X164060096Y-119943571D01*
X164107715Y-120038810D01*
X164107715Y-120276905D01*
X164060096Y-120372143D01*
X164012477Y-120419762D01*
X163917239Y-120467381D01*
X163679143Y-120467381D01*
X163583905Y-120419762D01*
X163536286Y-120372143D01*
X163155334Y-115927143D02*
X163107715Y-115974762D01*
X162964858Y-116022381D01*
X162869620Y-116022381D01*
X162726762Y-115974762D01*
X162631524Y-115879524D01*
X162583905Y-115784286D01*
X162536286Y-115593810D01*
X162536286Y-115450952D01*
X162583905Y-115260476D01*
X162631524Y-115165238D01*
X162726762Y-115070000D01*
X162869620Y-115022381D01*
X162964858Y-115022381D01*
X163107715Y-115070000D01*
X163155334Y-115117619D01*
X164012477Y-115355714D02*
X164012477Y-116022381D01*
X163774381Y-114974762D02*
X163536286Y-115689048D01*
X164155334Y-115689048D01*
X147153334Y-115292143D02*
X147105715Y-115339762D01*
X146962858Y-115387381D01*
X146867620Y-115387381D01*
X146724762Y-115339762D01*
X146629524Y-115244524D01*
X146581905Y-115149286D01*
X146534286Y-114958810D01*
X146534286Y-114815952D01*
X146581905Y-114625476D01*
X146629524Y-114530238D01*
X146724762Y-114435000D01*
X146867620Y-114387381D01*
X146962858Y-114387381D01*
X147105715Y-114435000D01*
X147153334Y-114482619D01*
X147486667Y-114387381D02*
X148105715Y-114387381D01*
X147772381Y-114768333D01*
X147915239Y-114768333D01*
X148010477Y-114815952D01*
X148058096Y-114863571D01*
X148105715Y-114958810D01*
X148105715Y-115196905D01*
X148058096Y-115292143D01*
X148010477Y-115339762D01*
X147915239Y-115387381D01*
X147629524Y-115387381D01*
X147534286Y-115339762D01*
X147486667Y-115292143D01*
X149058334Y-115292143D02*
X149010715Y-115339762D01*
X148867858Y-115387381D01*
X148772620Y-115387381D01*
X148629762Y-115339762D01*
X148534524Y-115244524D01*
X148486905Y-115149286D01*
X148439286Y-114958810D01*
X148439286Y-114815952D01*
X148486905Y-114625476D01*
X148534524Y-114530238D01*
X148629762Y-114435000D01*
X148772620Y-114387381D01*
X148867858Y-114387381D01*
X149010715Y-114435000D01*
X149058334Y-114482619D01*
X149439286Y-114482619D02*
X149486905Y-114435000D01*
X149582143Y-114387381D01*
X149820239Y-114387381D01*
X149915477Y-114435000D01*
X149963096Y-114482619D01*
X150010715Y-114577857D01*
X150010715Y-114673095D01*
X149963096Y-114815952D01*
X149391667Y-115387381D01*
X150010715Y-115387381D01*
X150963334Y-115292143D02*
X150915715Y-115339762D01*
X150772858Y-115387381D01*
X150677620Y-115387381D01*
X150534762Y-115339762D01*
X150439524Y-115244524D01*
X150391905Y-115149286D01*
X150344286Y-114958810D01*
X150344286Y-114815952D01*
X150391905Y-114625476D01*
X150439524Y-114530238D01*
X150534762Y-114435000D01*
X150677620Y-114387381D01*
X150772858Y-114387381D01*
X150915715Y-114435000D01*
X150963334Y-114482619D01*
X151915715Y-115387381D02*
X151344286Y-115387381D01*
X151630000Y-115387381D02*
X151630000Y-114387381D01*
X151534762Y-114530238D01*
X151439524Y-114625476D01*
X151344286Y-114673095D01*
X155956095Y-111526381D02*
X155956095Y-112335905D01*
X156003714Y-112431143D01*
X156051333Y-112478762D01*
X156146571Y-112526381D01*
X156337048Y-112526381D01*
X156432286Y-112478762D01*
X156479905Y-112431143D01*
X156527524Y-112335905D01*
X156527524Y-111526381D01*
X157527524Y-112526381D02*
X156956095Y-112526381D01*
X157241809Y-112526381D02*
X157241809Y-111526381D01*
X157146571Y-111669238D01*
X157051333Y-111764476D01*
X156956095Y-111812095D01*
M02*
