G04 #@! TF.FileFunction,Copper,L1,Top,Signal*
%FSLAX46Y46*%
G04 Gerber Fmt 4.6, Leading zero omitted, Abs format (unit mm)*
G04 Created by KiCad (PCBNEW 4.0.2+dfsg1-stable) date Fri 29 Jul 2016 09:24:32 AM CST*
%MOMM*%
G01*
G04 APERTURE LIST*
%ADD10C,0.100000*%
%ADD11C,0.650000*%
%ADD12R,1.250000X1.250000*%
%ADD13R,2.000000X1.200000*%
%ADD14R,1.400000X1.400000*%
%ADD15R,1.400000X1.000000*%
%ADD16R,3.657600X2.032000*%
%ADD17R,1.016000X2.032000*%
%ADD18R,1.397000X0.431800*%
%ADD19R,1.200000X0.900000*%
%ADD20R,0.900000X1.200000*%
%ADD21R,1.727200X1.727200*%
%ADD22O,1.727200X1.727200*%
%ADD23R,2.301240X0.500380*%
%ADD24R,2.499360X1.998980*%
%ADD25R,1.300000X1.500000*%
%ADD26R,0.800100X1.800860*%
%ADD27R,1.250000X1.500000*%
%ADD28R,1.200000X0.750000*%
%ADD29R,0.750000X1.200000*%
%ADD30R,0.700000X0.250000*%
%ADD31R,0.250000X0.700000*%
%ADD32R,1.725000X1.725000*%
%ADD33C,5.080000*%
%ADD34C,0.600000*%
%ADD35C,0.400000*%
%ADD36C,0.149860*%
%ADD37C,0.762000*%
%ADD38C,0.450000*%
%ADD39C,0.250000*%
%ADD40C,0.254000*%
G04 APERTURE END LIST*
D10*
D11*
X148590000Y-101600000D03*
D12*
X136525000Y-129540000D03*
X143725000Y-129540000D03*
D11*
X153543000Y-112014000D03*
X158115000Y-109220000D03*
X163830000Y-113411000D03*
X162433000Y-113411000D03*
D13*
X170307000Y-116713000D03*
X166607000Y-116713000D03*
X166607000Y-118913000D03*
X170307000Y-118913000D03*
D11*
X161925000Y-121158000D03*
X150495000Y-122555000D03*
X151765000Y-122555000D03*
X135255000Y-117602000D03*
X153035000Y-122555000D03*
D14*
X134620000Y-111125000D03*
D15*
X134620000Y-112845000D03*
X136820000Y-112845000D03*
X136820000Y-110925000D03*
D16*
X144145000Y-106807000D03*
D17*
X144145000Y-100203000D03*
X141859000Y-100203000D03*
X146431000Y-100203000D03*
D18*
X163576000Y-106654600D03*
X163576000Y-107289600D03*
X163576000Y-107950000D03*
X163576000Y-108585000D03*
X163576000Y-109245400D03*
X163576000Y-109893100D03*
X163576000Y-110540800D03*
X169164000Y-110540800D03*
X169164000Y-109893100D03*
X169164000Y-109245400D03*
X169164000Y-108585000D03*
X169164000Y-107937300D03*
X169164000Y-107289600D03*
X169164000Y-106641900D03*
D19*
X150325000Y-107315000D03*
X148125000Y-107315000D03*
X143340000Y-127000000D03*
X141140000Y-127000000D03*
D20*
X154813000Y-110320000D03*
X154813000Y-108120000D03*
X152908000Y-108120000D03*
X152908000Y-110320000D03*
X160020000Y-122090000D03*
X160020000Y-124290000D03*
X165735000Y-122090000D03*
X165735000Y-124290000D03*
D19*
X160485000Y-102235000D03*
X158285000Y-102235000D03*
D20*
X163830000Y-124290000D03*
X163830000Y-122090000D03*
D19*
X161460000Y-104775000D03*
X163660000Y-104775000D03*
X143340000Y-114935000D03*
X141140000Y-114935000D03*
X141140000Y-116840000D03*
X143340000Y-116840000D03*
D20*
X171450000Y-104310000D03*
X171450000Y-106510000D03*
D21*
X182245000Y-120650000D03*
D22*
X179705000Y-120650000D03*
X182245000Y-118110000D03*
X179705000Y-118110000D03*
X182245000Y-115570000D03*
X179705000Y-115570000D03*
X182245000Y-113030000D03*
X179705000Y-113030000D03*
X182245000Y-110490000D03*
X179705000Y-110490000D03*
D21*
X152400000Y-130810000D03*
D22*
X152400000Y-128270000D03*
X154940000Y-130810000D03*
X154940000Y-128270000D03*
X157480000Y-130810000D03*
X157480000Y-128270000D03*
X160020000Y-130810000D03*
X160020000Y-128270000D03*
X162560000Y-130810000D03*
X162560000Y-128270000D03*
D23*
X127909320Y-113969800D03*
X127909320Y-114769900D03*
X127909320Y-115570000D03*
X127909320Y-116370100D03*
X127909320Y-117170200D03*
D24*
X127810260Y-111119920D03*
X122311160Y-111119920D03*
X127810260Y-120020080D03*
X122311160Y-120020080D03*
D25*
X131445000Y-121365000D03*
X131445000Y-118665000D03*
X131445000Y-112475000D03*
X131445000Y-109775000D03*
D26*
X154620000Y-101368860D03*
X152720000Y-101368860D03*
X153670000Y-104371140D03*
X134305000Y-106276140D03*
X136205000Y-106276140D03*
X135255000Y-103273860D03*
D27*
X158115000Y-107295000D03*
X158115000Y-104795000D03*
X150495000Y-101620000D03*
X150495000Y-104120000D03*
X138557000Y-103271000D03*
X138557000Y-105771000D03*
D28*
X138745000Y-127000000D03*
X136845000Y-127000000D03*
D29*
X150876000Y-116779000D03*
X150876000Y-118679000D03*
D28*
X131125000Y-107315000D03*
X129225000Y-107315000D03*
X162372000Y-118745000D03*
X164272000Y-118745000D03*
X162372000Y-116840000D03*
X164272000Y-116840000D03*
D29*
X147320000Y-113345000D03*
X147320000Y-111445000D03*
X149225000Y-113345000D03*
X149225000Y-111445000D03*
X151130000Y-113345000D03*
X151130000Y-111445000D03*
D30*
X154318000Y-114074000D03*
X154318000Y-114574000D03*
X154318000Y-115074000D03*
X154318000Y-115574000D03*
X154318000Y-116074000D03*
X154318000Y-116574000D03*
X154318000Y-117074000D03*
X154318000Y-117574000D03*
D31*
X154968000Y-118224000D03*
X155468000Y-118224000D03*
X155968000Y-118224000D03*
X156468000Y-118224000D03*
X156968000Y-118224000D03*
X157468000Y-118224000D03*
X157968000Y-118224000D03*
X158468000Y-118224000D03*
D30*
X159118000Y-117574000D03*
X159118000Y-117074000D03*
X159118000Y-116574000D03*
X159118000Y-116074000D03*
X159118000Y-115574000D03*
X159118000Y-115074000D03*
X159118000Y-114574000D03*
X159118000Y-114074000D03*
D31*
X158468000Y-113424000D03*
X157968000Y-113424000D03*
X157468000Y-113424000D03*
X156968000Y-113424000D03*
X156468000Y-113424000D03*
X155968000Y-113424000D03*
X155468000Y-113424000D03*
X154968000Y-113424000D03*
D32*
X157580500Y-116686500D03*
X157580500Y-114961500D03*
X155855500Y-116686500D03*
X155855500Y-114961500D03*
D33*
X181610000Y-100330000D03*
X181610000Y-130810000D03*
X123190000Y-130810000D03*
X123190000Y-100330000D03*
D34*
X166370000Y-105410000D03*
X165354000Y-107442000D03*
X161798000Y-122936000D03*
X161036000Y-103505000D03*
D35*
X145669000Y-122174000D03*
X153162000Y-117221000D03*
X153035000Y-113411000D03*
D34*
X145669000Y-112903000D03*
X152146000Y-106045000D03*
D35*
X175260000Y-110363000D03*
X175260000Y-111252000D03*
X177292000Y-121285000D03*
X161544000Y-106299000D03*
X165227000Y-105410000D03*
X152273000Y-104394000D03*
X133350000Y-108585000D03*
X141097000Y-128524000D03*
X144907000Y-128270000D03*
X158115000Y-122047000D03*
X159004000Y-120523000D03*
X161671000Y-124587000D03*
X174307500Y-108267500D03*
X173228000Y-112395000D03*
X169418000Y-112649000D03*
X159766000Y-112522000D03*
X140208000Y-111379000D03*
X143256000Y-111379000D03*
X147447000Y-116332000D03*
X147447000Y-118999000D03*
X147447000Y-121920000D03*
X175260000Y-112395000D03*
X175133000Y-116205000D03*
X169799000Y-124460000D03*
X173355000Y-124460000D03*
X175006000Y-118872000D03*
X156210000Y-124841000D03*
X152908000Y-124841000D03*
X155067000Y-122174000D03*
X137160000Y-122555000D03*
X137160000Y-125222000D03*
X140716000Y-125222000D03*
X140716000Y-122555000D03*
X140716000Y-119507000D03*
X143764000Y-119507000D03*
X143764000Y-122555000D03*
X143764000Y-125222000D03*
X152654000Y-119634000D03*
X139573000Y-131572000D03*
X143510000Y-131572000D03*
X146939000Y-131572000D03*
X149479000Y-132842000D03*
X183769000Y-126111000D03*
X180975000Y-126111000D03*
X177355500Y-126174500D03*
X177419000Y-129159000D03*
X177419000Y-132715000D03*
X174307500Y-129222500D03*
X170878500Y-132651500D03*
X174371000Y-132715000D03*
X162941000Y-97790000D03*
X162941000Y-100711000D03*
X166116000Y-100711000D03*
X166116000Y-97790000D03*
X159004000Y-100711000D03*
X172974000Y-97790000D03*
X176403000Y-97790000D03*
X176403000Y-100711000D03*
X169418000Y-97790000D03*
X169418000Y-100711000D03*
X169418000Y-103886000D03*
X182499000Y-104013000D03*
X182372000Y-107696000D03*
X178816000Y-107823000D03*
X178816000Y-103886000D03*
X176403000Y-103759000D03*
X172974000Y-103886000D03*
X172974000Y-100711000D03*
X164084000Y-116205000D03*
X157580500Y-116686500D03*
X157607000Y-115824000D03*
X157580500Y-114961500D03*
X156718000Y-114935000D03*
X155855500Y-114961500D03*
X155829000Y-115824000D03*
X155855500Y-116686500D03*
X156718000Y-116713000D03*
X166243000Y-108458000D03*
X138557000Y-98298000D03*
X138557000Y-101219000D03*
X136017000Y-101219000D03*
X135890000Y-98298000D03*
X133096000Y-98298000D03*
X133096000Y-101219000D03*
X132969000Y-104140000D03*
X130556000Y-104140000D03*
X130556000Y-101219000D03*
X130429000Y-98298000D03*
X127254000Y-98298000D03*
X127283524Y-101252320D03*
X127254000Y-104140000D03*
X127254000Y-106680000D03*
X123952000Y-106680000D03*
X123983918Y-104176022D03*
X121158000Y-104140000D03*
X133096000Y-131445000D03*
X133096000Y-128016000D03*
X133096000Y-125349000D03*
X130175000Y-125349000D03*
X130175000Y-128016000D03*
X130175000Y-131445000D03*
X121158000Y-127635000D03*
X121158000Y-125349000D03*
X123825000Y-125349000D03*
X127254000Y-125349000D03*
X127254000Y-128016000D03*
X127254000Y-131445000D03*
X121158000Y-106680000D03*
X173101000Y-118872000D03*
X167132000Y-130683000D03*
X169799000Y-127889000D03*
X167132000Y-127889000D03*
X164846000Y-127889000D03*
X164846000Y-130683000D03*
X159004000Y-97790000D03*
X140589000Y-104394000D03*
X137160000Y-119507000D03*
X133096000Y-113792000D03*
X144653000Y-115824000D03*
X144653000Y-112776000D03*
D34*
X152019000Y-117348000D03*
X164592000Y-125984000D03*
X149225000Y-123317000D03*
X152146000Y-108839000D03*
X151511000Y-125603000D03*
D35*
X146304000Y-128778000D03*
X160020000Y-115443000D03*
D34*
X134620000Y-113792000D03*
X139573000Y-116840000D03*
X136820000Y-113751000D03*
X139573000Y-114935000D03*
D35*
X156591000Y-124079000D03*
X158877000Y-124841000D03*
X161163000Y-116205000D03*
X161544000Y-120269000D03*
X160655000Y-111810800D03*
X171450000Y-111937800D03*
X160528000Y-114300000D03*
X160655000Y-113538000D03*
X156718000Y-109220000D03*
X155321000Y-111887000D03*
X176149000Y-116205000D03*
X159385000Y-119634000D03*
X159385000Y-111633000D03*
X172974000Y-110363000D03*
X167513000Y-110490000D03*
X158369000Y-110490000D03*
D36*
X168236900Y-106641900D02*
X168109900Y-106641900D01*
X168275000Y-106641900D02*
X168236900Y-106641900D01*
X169164000Y-106641900D02*
X168275000Y-106641900D01*
X166878000Y-105410000D02*
X166370000Y-105410000D01*
X168109900Y-106641900D02*
X166878000Y-105410000D01*
X165354000Y-108331000D02*
X165354000Y-107442000D01*
X163576000Y-108585000D02*
X165100000Y-108585000D01*
X165100000Y-108585000D02*
X165354000Y-108331000D01*
X153309000Y-117074000D02*
X153162000Y-117221000D01*
D37*
X160020000Y-124290000D02*
X160444000Y-124290000D01*
X160444000Y-124290000D02*
X161798000Y-122936000D01*
D36*
X169164000Y-106641900D02*
X170091100Y-106641900D01*
X170434000Y-105326000D02*
X171450000Y-104310000D01*
X170434000Y-106299000D02*
X170434000Y-105326000D01*
X170091100Y-106641900D02*
X170434000Y-106299000D01*
D37*
X161036000Y-103505000D02*
X160528000Y-102997000D01*
X160528000Y-102997000D02*
X160528000Y-102278000D01*
X160528000Y-102278000D02*
X160485000Y-102235000D01*
X161460000Y-103929000D02*
X161460000Y-104775000D01*
X161036000Y-103505000D02*
X161460000Y-103929000D01*
X145669000Y-125984000D02*
X148717000Y-129032000D01*
X150622000Y-130937000D02*
X152273000Y-130937000D01*
X148717000Y-129032000D02*
X150622000Y-130937000D01*
X152273000Y-130937000D02*
X152400000Y-130810000D01*
X144653000Y-127000000D02*
X143340000Y-127000000D01*
X145669000Y-125984000D02*
X144653000Y-127000000D01*
X145669000Y-122174000D02*
X145669000Y-125984000D01*
D36*
X153035000Y-113345000D02*
X153035000Y-113411000D01*
X153309000Y-117074000D02*
X154318000Y-117074000D01*
X151130000Y-113345000D02*
X153035000Y-113345000D01*
X153035000Y-113345000D02*
X153096000Y-113345000D01*
X153825000Y-114074000D02*
X154318000Y-114074000D01*
X153096000Y-113345000D02*
X153825000Y-114074000D01*
D37*
X149225000Y-113345000D02*
X151130000Y-113345000D01*
X147320000Y-113345000D02*
X149225000Y-113345000D01*
X145669000Y-112903000D02*
X146111000Y-113345000D01*
X146111000Y-113345000D02*
X147320000Y-113345000D01*
X153670000Y-104371140D02*
X153670000Y-105410000D01*
X153670000Y-105410000D02*
X153035000Y-106045000D01*
X153035000Y-106045000D02*
X152146000Y-106045000D01*
D38*
X146111000Y-113345000D02*
X147320000Y-113345000D01*
X153035000Y-106045000D02*
X152146000Y-106045000D01*
X153670000Y-105410000D02*
X153035000Y-106045000D01*
D39*
X175260000Y-110363000D02*
X175260000Y-109220000D01*
X175260000Y-111252000D02*
X175260000Y-110363000D01*
X175260000Y-109220000D02*
X174307500Y-108267500D01*
X177292000Y-121158000D02*
X177292000Y-121285000D01*
D36*
X166116000Y-100711000D02*
X166116000Y-101854000D01*
X159766000Y-105918000D02*
X159766000Y-105029000D01*
X160147000Y-106299000D02*
X159766000Y-105918000D01*
X161544000Y-106299000D02*
X160147000Y-106299000D01*
X165227000Y-102743000D02*
X165227000Y-105410000D01*
X166116000Y-101854000D02*
X165227000Y-102743000D01*
D39*
X152273000Y-104394000D02*
X152273000Y-103505000D01*
X133350000Y-108585000D02*
X133858000Y-108585000D01*
X141224000Y-128397000D02*
X141097000Y-128524000D01*
X144780000Y-128397000D02*
X141224000Y-128397000D01*
X144907000Y-128270000D02*
X144780000Y-128397000D01*
D36*
X158115000Y-122047000D02*
X158115000Y-121990138D01*
X161290000Y-124968000D02*
X161290000Y-126238000D01*
X161671000Y-124587000D02*
X161290000Y-124968000D01*
D39*
X174307500Y-108267500D02*
X174117000Y-108077000D01*
D36*
X169418000Y-112649000D02*
X169418000Y-112014000D01*
X169418000Y-112014000D02*
X169926000Y-111506000D01*
X168275000Y-113792000D02*
X169418000Y-112649000D01*
X159766000Y-112522000D02*
X159004000Y-112522000D01*
X144653000Y-112776000D02*
X143256000Y-111379000D01*
D39*
X147447000Y-121920000D02*
X147447000Y-118999000D01*
X155067000Y-122174000D02*
X155067000Y-121412000D01*
X155067000Y-121412000D02*
X155956000Y-120523000D01*
X175260000Y-116078000D02*
X175260000Y-112395000D01*
X175133000Y-116205000D02*
X175260000Y-116078000D01*
X173355000Y-124460000D02*
X174117000Y-124460000D01*
X169799000Y-124460000D02*
X173355000Y-124460000D01*
X177292000Y-121158000D02*
X175006000Y-118872000D01*
X174117000Y-124460000D02*
X177292000Y-121285000D01*
X153035000Y-124841000D02*
X152908000Y-124841000D01*
X155067000Y-122809000D02*
X153035000Y-124841000D01*
X155067000Y-122174000D02*
X155067000Y-122809000D01*
X137160000Y-125222000D02*
X140716000Y-125222000D01*
X140716000Y-122555000D02*
X140716000Y-119507000D01*
X143764000Y-119507000D02*
X143764000Y-122555000D01*
X137160000Y-119507000D02*
X137160000Y-122555000D01*
X152593000Y-118806000D02*
X152654000Y-118745000D01*
X152593000Y-119573000D02*
X152593000Y-118806000D01*
X152654000Y-119634000D02*
X152593000Y-119573000D01*
X143510000Y-131572000D02*
X146939000Y-131572000D01*
X139573000Y-133985000D02*
X139573000Y-131572000D01*
X177419000Y-126111000D02*
X180975000Y-126111000D01*
X177355500Y-126174500D02*
X177419000Y-126111000D01*
X177419000Y-132715000D02*
X177419000Y-129159000D01*
X174307500Y-132651500D02*
X170878500Y-132651500D01*
X174371000Y-132715000D02*
X174307500Y-132651500D01*
X162941000Y-100711000D02*
X162941000Y-97790000D01*
X166116000Y-97790000D02*
X166116000Y-100711000D01*
X176403000Y-103759000D02*
X176403000Y-100711000D01*
X176403000Y-97790000D02*
X172974000Y-97790000D01*
X171323000Y-97790000D02*
X181229000Y-107696000D01*
X181229000Y-107696000D02*
X183769000Y-107696000D01*
X183769000Y-107696000D02*
X184658000Y-108585000D01*
X184658000Y-116840000D02*
X184658000Y-123190000D01*
X184658000Y-108585000D02*
X184658000Y-116840000D01*
X184658000Y-123190000D02*
X183134000Y-124714000D01*
X183134000Y-124714000D02*
X178816000Y-124714000D01*
X178816000Y-124714000D02*
X174307500Y-129222500D01*
X171323000Y-97790000D02*
X169418000Y-97790000D01*
X169418000Y-100711000D02*
X169418000Y-103886000D01*
X178943000Y-107696000D02*
X182372000Y-107696000D01*
X178816000Y-107823000D02*
X178943000Y-107696000D01*
X176530000Y-103886000D02*
X178816000Y-103886000D01*
X176403000Y-103759000D02*
X176530000Y-103886000D01*
X172974000Y-100711000D02*
X172974000Y-103886000D01*
D36*
X164272000Y-116393000D02*
X164084000Y-116205000D01*
X164272000Y-116840000D02*
X164272000Y-116393000D01*
X157580500Y-115797500D02*
X157607000Y-115824000D01*
X157580500Y-115797500D02*
X157580500Y-114961500D01*
X156718000Y-114935000D02*
X156691500Y-114961500D01*
X156691500Y-114961500D02*
X155855500Y-114961500D01*
X155829000Y-115824000D02*
X155855500Y-115850500D01*
X155855500Y-115850500D02*
X155855500Y-116686500D01*
X156718000Y-116713000D02*
X156744500Y-116686500D01*
X156744500Y-116686500D02*
X157580500Y-116686500D01*
X165735000Y-108966000D02*
X166243000Y-108458000D01*
X165176200Y-110540800D02*
X165735000Y-109982000D01*
X165735000Y-109982000D02*
X165735000Y-108966000D01*
X163576000Y-110540800D02*
X165176200Y-110540800D01*
X154318000Y-114574000D02*
X147086000Y-114574000D01*
X144653000Y-114046000D02*
X144653000Y-112776000D01*
X144907000Y-114300000D02*
X144653000Y-114046000D01*
X146812000Y-114300000D02*
X144907000Y-114300000D01*
X147086000Y-114574000D02*
X146812000Y-114300000D01*
X154318000Y-114574000D02*
X155468000Y-114574000D01*
X155468000Y-114574000D02*
X155855500Y-114961500D01*
X155855500Y-114961500D02*
X155855500Y-116686500D01*
X157580500Y-116686500D02*
X157580500Y-114961500D01*
X157580500Y-114961500D02*
X155855500Y-114961500D01*
X164846000Y-113792000D02*
X164338000Y-114300000D01*
X163576000Y-111506000D02*
X164846000Y-112776000D01*
X164846000Y-112776000D02*
X164846000Y-113792000D01*
X163576000Y-110540800D02*
X163576000Y-111506000D01*
X164338000Y-114300000D02*
X162179000Y-114300000D01*
D39*
X121158000Y-106680000D02*
X121158000Y-104140000D01*
X138557000Y-101219000D02*
X138557000Y-98298000D01*
X136017000Y-98425000D02*
X136017000Y-101219000D01*
X135890000Y-98298000D02*
X136017000Y-98425000D01*
X133096000Y-101219000D02*
X133096000Y-98298000D01*
X130556000Y-104140000D02*
X132969000Y-104140000D01*
X130556000Y-98425000D02*
X130556000Y-101219000D01*
X130429000Y-98298000D02*
X130556000Y-98425000D01*
X127254000Y-101222796D02*
X127254000Y-98298000D01*
X127283524Y-101252320D02*
X127254000Y-101222796D01*
X127254000Y-106680000D02*
X127254000Y-104140000D01*
X123952000Y-104207940D02*
X123952000Y-106680000D01*
X123983918Y-104176022D02*
X123952000Y-104207940D01*
X130175000Y-131445000D02*
X127254000Y-131445000D01*
X133096000Y-128016000D02*
X133096000Y-125349000D01*
X130175000Y-125349000D02*
X130175000Y-128016000D01*
X133096000Y-133985000D02*
X133096000Y-131445000D01*
X123825000Y-125349000D02*
X121158000Y-125349000D01*
X127254000Y-128016000D02*
X127254000Y-125349000D01*
X121158000Y-106680000D02*
X126238000Y-102743000D01*
X170307000Y-118913000D02*
X173060000Y-118913000D01*
X173060000Y-118913000D02*
X173101000Y-118872000D01*
X164846000Y-133985000D02*
X164846000Y-130683000D01*
X167132000Y-130556000D02*
X167132000Y-130683000D01*
X169799000Y-127889000D02*
X167132000Y-130556000D01*
X164846000Y-127889000D02*
X167132000Y-127889000D01*
X136525000Y-129540000D02*
X136525000Y-133985000D01*
X136845000Y-127000000D02*
X136845000Y-129220000D01*
X136845000Y-129220000D02*
X136525000Y-129540000D01*
X131191000Y-133985000D02*
X133096000Y-133985000D01*
X133096000Y-133985000D02*
X133223000Y-133985000D01*
X133223000Y-133985000D02*
X136525000Y-133985000D01*
X136525000Y-133985000D02*
X139573000Y-133985000D01*
X139573000Y-133985000D02*
X164846000Y-133985000D01*
X164846000Y-133985000D02*
X169545000Y-133985000D01*
X174307500Y-129222500D02*
X169799000Y-133731000D01*
X169545000Y-133985000D02*
X169799000Y-133731000D01*
D36*
X155855500Y-114961500D02*
X157580500Y-114961500D01*
X157580500Y-116686500D02*
X155855500Y-116686500D01*
X166624000Y-116730000D02*
X166607000Y-116713000D01*
X150876000Y-118679000D02*
X152593000Y-118679000D01*
X153698000Y-117574000D02*
X154318000Y-117574000D01*
X152593000Y-118679000D02*
X153698000Y-117574000D01*
X155468000Y-114574000D02*
X155855500Y-114961500D01*
D39*
X149225000Y-111445000D02*
X151130000Y-111445000D01*
X147320000Y-111445000D02*
X149225000Y-111445000D01*
X137922000Y-115824000D02*
X137922000Y-118745000D01*
X137922000Y-118745000D02*
X137160000Y-119507000D01*
X138557000Y-105771000D02*
X139212000Y-105771000D01*
X148125000Y-106088000D02*
X148125000Y-107315000D01*
X146431000Y-104394000D02*
X148125000Y-106088000D01*
X140589000Y-104394000D02*
X146431000Y-104394000D01*
X139212000Y-105771000D02*
X140589000Y-104394000D01*
X146431000Y-100203000D02*
X146431000Y-97790000D01*
X134620000Y-111125000D02*
X134493000Y-111125000D01*
X134493000Y-111125000D02*
X133096000Y-112522000D01*
X133096000Y-112522000D02*
X133096000Y-113792000D01*
X137160000Y-119507000D02*
X134112000Y-119507000D01*
X129225000Y-107315000D02*
X129225000Y-105730000D01*
X129225000Y-105730000D02*
X126238000Y-102743000D01*
X144653000Y-115824000D02*
X137922000Y-115824000D01*
X145984000Y-111445000D02*
X144653000Y-112776000D01*
X147320000Y-111445000D02*
X145984000Y-111445000D01*
X137922000Y-115824000D02*
X136906000Y-114808000D01*
X136906000Y-114808000D02*
X136779000Y-114808000D01*
D36*
X164272000Y-116840000D02*
X166480000Y-116840000D01*
X169840000Y-118913000D02*
X170307000Y-118913000D01*
X164272000Y-118745000D02*
X164272000Y-117856000D01*
X164272000Y-117856000D02*
X164272000Y-116840000D01*
D39*
X127909320Y-117170200D02*
X129950200Y-117170200D01*
X129950200Y-117170200D02*
X131525000Y-118745000D01*
X131525000Y-118745000D02*
X133350000Y-118745000D01*
X133350000Y-118745000D02*
X134112000Y-119507000D01*
X134112000Y-119507000D02*
X134112000Y-127000000D01*
X136845000Y-127000000D02*
X134112000Y-127000000D01*
X131191000Y-97790000D02*
X146431000Y-97790000D01*
X126238000Y-102743000D02*
X131191000Y-97790000D01*
X146431000Y-97790000D02*
X159004000Y-97790000D01*
D36*
X162372000Y-116840000D02*
X162372000Y-116139000D01*
X170307000Y-115951000D02*
X170307000Y-116713000D01*
X169926000Y-115570000D02*
X170307000Y-115951000D01*
X162941000Y-115570000D02*
X169926000Y-115570000D01*
X162372000Y-116139000D02*
X162941000Y-115570000D01*
X162372000Y-116840000D02*
X162372000Y-116647000D01*
X159118000Y-117074000D02*
X162138000Y-117074000D01*
X162138000Y-117074000D02*
X162372000Y-116840000D01*
X162372000Y-118745000D02*
X162372000Y-119446000D01*
X166607000Y-119524000D02*
X166607000Y-118913000D01*
X166243000Y-119888000D02*
X166607000Y-119524000D01*
X162814000Y-119888000D02*
X166243000Y-119888000D01*
X162372000Y-119446000D02*
X162814000Y-119888000D01*
X159118000Y-117574000D02*
X160119000Y-117574000D01*
X161290000Y-118745000D02*
X162372000Y-118745000D01*
X160119000Y-117574000D02*
X161290000Y-118745000D01*
X152920000Y-116574000D02*
X152793000Y-116574000D01*
X154318000Y-116574000D02*
X152920000Y-116574000D01*
X152793000Y-116574000D02*
X152019000Y-117348000D01*
D37*
X133266140Y-107315000D02*
X134117000Y-107315000D01*
X134117000Y-107315000D02*
X134305000Y-107127000D01*
X134305000Y-107127000D02*
X134305000Y-106276140D01*
X131125000Y-107315000D02*
X131125000Y-109455000D01*
X131125000Y-109455000D02*
X131445000Y-109775000D01*
X133266140Y-107315000D02*
X131125000Y-107315000D01*
D36*
X152062000Y-108923000D02*
X152062000Y-108966000D01*
X152146000Y-108839000D02*
X152062000Y-108923000D01*
D37*
X149225000Y-123317000D02*
X151511000Y-125603000D01*
X163830000Y-124290000D02*
X163830000Y-125222000D01*
X182245000Y-122301000D02*
X182245000Y-120650000D01*
X181102000Y-123444000D02*
X182245000Y-122301000D01*
X176911000Y-123444000D02*
X181102000Y-123444000D01*
X174371000Y-125984000D02*
X176911000Y-123444000D01*
X164592000Y-125984000D02*
X174371000Y-125984000D01*
X163830000Y-125222000D02*
X164592000Y-125984000D01*
X134305000Y-106276140D02*
X134305000Y-107127000D01*
X134305000Y-107127000D02*
X135382000Y-108204000D01*
X135382000Y-108204000D02*
X140208000Y-108204000D01*
X140208000Y-108204000D02*
X140970000Y-108966000D01*
X151130000Y-108966000D02*
X152062000Y-108966000D01*
X140970000Y-108966000D02*
X151130000Y-108966000D01*
X152062000Y-108966000D02*
X152908000Y-108120000D01*
D38*
X152062000Y-108966000D02*
X152908000Y-108120000D01*
X131125000Y-107315000D02*
X133266140Y-107315000D01*
X131445000Y-109775000D02*
X131445000Y-107635000D01*
X131445000Y-107635000D02*
X131125000Y-107315000D01*
D36*
X154318000Y-116074000D02*
X152150000Y-116074000D01*
X151445000Y-116779000D02*
X150876000Y-116779000D01*
X152150000Y-116074000D02*
X151445000Y-116779000D01*
X143725000Y-129540000D02*
X145542000Y-129540000D01*
X145542000Y-129540000D02*
X146304000Y-128778000D01*
X138745000Y-127000000D02*
X138745000Y-128331000D01*
X139954000Y-129540000D02*
X143725000Y-129540000D01*
X138745000Y-128331000D02*
X139954000Y-129540000D01*
X138745000Y-127000000D02*
X141140000Y-127000000D01*
X159118000Y-115574000D02*
X159889000Y-115574000D01*
X159889000Y-115574000D02*
X160020000Y-115443000D01*
D37*
X138557000Y-103271000D02*
X138791000Y-103271000D01*
X138791000Y-103271000D02*
X141859000Y-100203000D01*
X135255000Y-103273860D02*
X138554140Y-103273860D01*
X138554140Y-103273860D02*
X138557000Y-103271000D01*
X138791000Y-103271000D02*
X141859000Y-100203000D01*
D38*
X138791000Y-103271000D02*
X141859000Y-100203000D01*
X138554140Y-103273860D02*
X138557000Y-103271000D01*
D37*
X150495000Y-101620000D02*
X150495000Y-100838000D01*
X150495000Y-100838000D02*
X151892000Y-99441000D01*
X151892000Y-99441000D02*
X154178000Y-99441000D01*
X154178000Y-99441000D02*
X154620000Y-99883000D01*
X154620000Y-99883000D02*
X154620000Y-101368860D01*
X144145000Y-100203000D02*
X144145000Y-101346000D01*
X144145000Y-101346000D02*
X145034000Y-102235000D01*
X145034000Y-102235000D02*
X147955000Y-102235000D01*
X147955000Y-102235000D02*
X148570000Y-101620000D01*
X148570000Y-101620000D02*
X150495000Y-101620000D01*
D38*
X154620000Y-99883000D02*
X154620000Y-101368860D01*
X154178000Y-99441000D02*
X154620000Y-99883000D01*
X151892000Y-99441000D02*
X154178000Y-99441000D01*
X150495000Y-100838000D02*
X151892000Y-99441000D01*
X147955000Y-102235000D02*
X148570000Y-101620000D01*
X145034000Y-102235000D02*
X147955000Y-102235000D01*
X144145000Y-101346000D02*
X145034000Y-102235000D01*
X148570000Y-101620000D02*
X150495000Y-101620000D01*
D39*
X150325000Y-107315000D02*
X150325000Y-104290000D01*
X150325000Y-104290000D02*
X150495000Y-104120000D01*
X141140000Y-116840000D02*
X139573000Y-116840000D01*
X127909320Y-114769900D02*
X133642100Y-114769900D01*
X134620000Y-113792000D02*
X134620000Y-112845000D01*
X133642100Y-114769900D02*
X134620000Y-113792000D01*
X141140000Y-114935000D02*
X139573000Y-114935000D01*
X127909320Y-115570000D02*
X135001000Y-115570000D01*
X136820000Y-113751000D02*
X136820000Y-112845000D01*
X135001000Y-115570000D02*
X136820000Y-113751000D01*
D37*
X132969000Y-110109000D02*
X133477000Y-109601000D01*
X131445000Y-111633000D02*
X131826000Y-111252000D01*
X131826000Y-111252000D02*
X132588000Y-111252000D01*
X132588000Y-111252000D02*
X132969000Y-110871000D01*
X132969000Y-110871000D02*
X132969000Y-110109000D01*
X131445000Y-112475000D02*
X131445000Y-111633000D01*
X136820000Y-110150000D02*
X136820000Y-110925000D01*
X136271000Y-109601000D02*
X136820000Y-110150000D01*
X133477000Y-109601000D02*
X136271000Y-109601000D01*
D38*
X130276600Y-113969800D02*
X130886200Y-113969800D01*
X131445000Y-113411000D02*
X131445000Y-112475000D01*
X130886200Y-113969800D02*
X131445000Y-113411000D01*
X127909320Y-113969800D02*
X129362200Y-113969800D01*
X131445000Y-112475000D02*
X131445000Y-112826800D01*
X129921000Y-113969800D02*
X130276600Y-113969800D01*
X130276600Y-113969800D02*
X130302000Y-113969800D01*
X131445000Y-112475000D02*
X131619000Y-112475000D01*
X127909320Y-113969800D02*
X129921000Y-113969800D01*
X129921000Y-113969800D02*
X129950200Y-113969800D01*
D36*
X158115000Y-109220000D02*
X158115000Y-107295000D01*
X156468000Y-113424000D02*
X156468000Y-110867000D01*
X156468000Y-110867000D02*
X158115000Y-109220000D01*
D39*
X158115000Y-104795000D02*
X158115000Y-102405000D01*
X158115000Y-102405000D02*
X158285000Y-102235000D01*
X122311160Y-111119920D02*
X122311160Y-120020080D01*
X122311160Y-120020080D02*
X127810260Y-120020080D01*
X127810260Y-120020080D02*
X129155180Y-121365000D01*
X129155180Y-121365000D02*
X131445000Y-121365000D01*
X127810260Y-111119920D02*
X122311160Y-111119920D01*
X127909320Y-116370100D02*
X134023100Y-116370100D01*
X134023100Y-116370100D02*
X135255000Y-117602000D01*
D36*
X160020000Y-122090000D02*
X159174000Y-122090000D01*
X159174000Y-122090000D02*
X158242000Y-123022000D01*
X158750000Y-129159000D02*
X158369000Y-129540000D01*
X158369000Y-129540000D02*
X153670000Y-129540000D01*
X153670000Y-129540000D02*
X152400000Y-128270000D01*
X158750000Y-127254000D02*
X158750000Y-129159000D01*
X158242000Y-126746000D02*
X158750000Y-127254000D01*
X158242000Y-123022000D02*
X158242000Y-126746000D01*
X157968000Y-118224000D02*
X157968000Y-120884000D01*
X157968000Y-120884000D02*
X159174000Y-122090000D01*
X156468000Y-118224000D02*
X156468000Y-123059000D01*
X154940000Y-124587000D02*
X154940000Y-128270000D01*
X156468000Y-123059000D02*
X154940000Y-124587000D01*
X157468000Y-118224000D02*
X157468000Y-128258000D01*
X157468000Y-128258000D02*
X157480000Y-128270000D01*
X160020000Y-128270000D02*
X160020000Y-126492000D01*
X156968000Y-123702000D02*
X156968000Y-118224000D01*
X156968000Y-123702000D02*
X156591000Y-124079000D01*
X158877000Y-125349000D02*
X158877000Y-124841000D01*
X160020000Y-126492000D02*
X158877000Y-125349000D01*
D39*
X163830000Y-122090000D02*
X163830000Y-123063000D01*
X162560000Y-123571000D02*
X162560000Y-128270000D01*
X162941000Y-123190000D02*
X162560000Y-123571000D01*
X163703000Y-123190000D02*
X162941000Y-123190000D01*
X163830000Y-123063000D02*
X163703000Y-123190000D01*
D36*
X160794000Y-116574000D02*
X161163000Y-116205000D01*
X160020000Y-116574000D02*
X160794000Y-116574000D01*
X161544000Y-120904000D02*
X161798000Y-121158000D01*
X161544000Y-120269000D02*
X161544000Y-120904000D01*
X161798000Y-121158000D02*
X161925000Y-121158000D01*
X163830000Y-122090000D02*
X165735000Y-122090000D01*
X161925000Y-121158000D02*
X162814000Y-122047000D01*
X162814000Y-122047000D02*
X163787000Y-122047000D01*
X163787000Y-122047000D02*
X163830000Y-122090000D01*
X159118000Y-116574000D02*
X160020000Y-116574000D01*
X160020000Y-116574000D02*
X160032000Y-116574000D01*
X161671000Y-121158000D02*
X161925000Y-121158000D01*
X178562000Y-116840000D02*
X180975000Y-116840000D01*
X170180000Y-108585000D02*
X172466000Y-110871000D01*
X172466000Y-110871000D02*
X172466000Y-114554000D01*
X172466000Y-114554000D02*
X174752000Y-116840000D01*
X174752000Y-116840000D02*
X178562000Y-116840000D01*
X169164000Y-108585000D02*
X170180000Y-108585000D01*
X180975000Y-116840000D02*
X182245000Y-118110000D01*
X171450000Y-111937800D02*
X171450000Y-114935000D01*
X174625000Y-118110000D02*
X176403000Y-118110000D01*
X171450000Y-114935000D02*
X174625000Y-118110000D01*
X169164000Y-109893100D02*
X170218100Y-109893100D01*
X171450000Y-111125000D02*
X171450000Y-111937800D01*
X170218100Y-109893100D02*
X171450000Y-111125000D01*
X161417000Y-107950000D02*
X160655000Y-108712000D01*
X160655000Y-108712000D02*
X160655000Y-111810800D01*
X163576000Y-107950000D02*
X161417000Y-107950000D01*
X176276000Y-118110000D02*
X176403000Y-118110000D01*
X176403000Y-118110000D02*
X179451000Y-118110000D01*
X179451000Y-118364000D02*
X179705000Y-118110000D01*
X159118000Y-114074000D02*
X160302000Y-114074000D01*
X160302000Y-114074000D02*
X160528000Y-114300000D01*
X158468000Y-113424000D02*
X160541000Y-113424000D01*
X160541000Y-113424000D02*
X160655000Y-113538000D01*
X155968000Y-113424000D02*
X155968000Y-109970000D01*
X155968000Y-109970000D02*
X156718000Y-109220000D01*
X155468000Y-113424000D02*
X155468000Y-112034000D01*
X155468000Y-112034000D02*
X155321000Y-111887000D01*
X158468000Y-118224000D02*
X158468000Y-118717000D01*
X158468000Y-118717000D02*
X159385000Y-119634000D01*
X173456600Y-107289600D02*
X171551600Y-107289600D01*
X175234600Y-107289600D02*
X173456600Y-107289600D01*
X176149000Y-108204000D02*
X175234600Y-107289600D01*
X176149000Y-116205000D02*
X176149000Y-108204000D01*
X171069000Y-107289600D02*
X171551600Y-107289600D01*
X171551600Y-107289600D02*
X171450000Y-107188000D01*
X169164000Y-107289600D02*
X167919400Y-107289600D01*
X167919400Y-109245400D02*
X169164000Y-109245400D01*
X167640000Y-108966000D02*
X167919400Y-109245400D01*
X167640000Y-107569000D02*
X167640000Y-108966000D01*
X167919400Y-107289600D02*
X167640000Y-107569000D01*
X171450000Y-106510000D02*
X171450000Y-107188000D01*
X171348400Y-107289600D02*
X171069000Y-107289600D01*
X171069000Y-107289600D02*
X169164000Y-107289600D01*
X171450000Y-107188000D02*
X171348400Y-107289600D01*
X154318000Y-115574000D02*
X145919000Y-115574000D01*
X144653000Y-116840000D02*
X143340000Y-116840000D01*
X145919000Y-115574000D02*
X144653000Y-116840000D01*
X154318000Y-115074000D02*
X143479000Y-115074000D01*
X143479000Y-115074000D02*
X143340000Y-114935000D01*
X165074600Y-106654600D02*
X166598600Y-106654600D01*
X163576000Y-106654600D02*
X165074600Y-106654600D01*
X164465000Y-115062000D02*
X166497000Y-113030000D01*
X161417000Y-115062000D02*
X164465000Y-115062000D01*
X161417000Y-115062000D02*
X160405000Y-116074000D01*
X166878000Y-112649000D02*
X166497000Y-113030000D01*
X166878000Y-106934000D02*
X166878000Y-112649000D01*
X166598600Y-106654600D02*
X166878000Y-106934000D01*
X160401000Y-116074000D02*
X160405000Y-116074000D01*
X163576000Y-106654600D02*
X163576000Y-104859000D01*
X163576000Y-104859000D02*
X163660000Y-104775000D01*
X159118000Y-116074000D02*
X160401000Y-116074000D01*
X160401000Y-116074000D02*
X160405000Y-116074000D01*
X152908000Y-110320000D02*
X154813000Y-110320000D01*
X154968000Y-113424000D02*
X154968000Y-112677000D01*
X154305000Y-112014000D02*
X153289000Y-112014000D01*
X154968000Y-112677000D02*
X154305000Y-112014000D01*
X153289000Y-112014000D02*
X152908000Y-111633000D01*
X152908000Y-111633000D02*
X152908000Y-110320000D01*
X154686000Y-110447000D02*
X154813000Y-110320000D01*
X155968000Y-118224000D02*
X155968000Y-119495000D01*
X155968000Y-119495000D02*
X153035000Y-122428000D01*
X153035000Y-122428000D02*
X153035000Y-122555000D01*
X155468000Y-118224000D02*
X155468000Y-119106000D01*
X151765000Y-121793000D02*
X151765000Y-122555000D01*
X152400000Y-121158000D02*
X151765000Y-121793000D01*
X153416000Y-121158000D02*
X152400000Y-121158000D01*
X155468000Y-119106000D02*
X153416000Y-121158000D01*
X154968000Y-118224000D02*
X154968000Y-118844000D01*
X150495000Y-121666000D02*
X150495000Y-122555000D01*
X151511000Y-120650000D02*
X150495000Y-121666000D01*
X153162000Y-120650000D02*
X151511000Y-120650000D01*
X154968000Y-118844000D02*
X153162000Y-120650000D01*
X163576000Y-109245400D02*
X162280600Y-109245400D01*
X161798000Y-112776000D02*
X162433000Y-113411000D01*
X161798000Y-109728000D02*
X161798000Y-112776000D01*
X162280600Y-109245400D02*
X161798000Y-109728000D01*
X163576000Y-109893100D02*
X162394900Y-109893100D01*
X162306000Y-111887000D02*
X163830000Y-113411000D01*
X162306000Y-109982000D02*
X162306000Y-111887000D01*
X162394900Y-109893100D02*
X162306000Y-109982000D01*
X157968000Y-112542000D02*
X158877000Y-111633000D01*
X158877000Y-111633000D02*
X159385000Y-111633000D01*
X157968000Y-113424000D02*
X157968000Y-112542000D01*
X172974000Y-110363000D02*
X172974000Y-110363000D01*
X172974000Y-110363000D02*
X170548300Y-107937300D01*
X169164000Y-107937300D02*
X170548300Y-107937300D01*
X159664400Y-110083600D02*
X159664400Y-108051600D01*
X157468000Y-112280000D02*
X159664400Y-110083600D01*
X157468000Y-113424000D02*
X157468000Y-112280000D01*
X160426400Y-107289600D02*
X163576000Y-107289600D01*
X159664400Y-108051600D02*
X160426400Y-107289600D01*
X156968000Y-113424000D02*
X156968000Y-111891000D01*
X167563800Y-110540800D02*
X169164000Y-110540800D01*
X167513000Y-110490000D02*
X167563800Y-110540800D01*
X156968000Y-111891000D02*
X158369000Y-110490000D01*
D40*
G36*
X130048000Y-109526606D02*
X130048000Y-111707394D01*
X129487394Y-112268000D01*
X126873000Y-112268000D01*
X126823590Y-112278006D01*
X126783197Y-112305197D01*
X126260341Y-112828053D01*
X126230898Y-112756797D01*
X125926067Y-112451434D01*
X125527583Y-112285969D01*
X125096110Y-112285592D01*
X124697337Y-112450362D01*
X124391974Y-112755193D01*
X124226509Y-113153677D01*
X124226132Y-113585150D01*
X124390902Y-113983923D01*
X124695733Y-114289286D01*
X125094217Y-114454751D01*
X125525690Y-114455128D01*
X125924463Y-114290358D01*
X126111000Y-114104146D01*
X126111000Y-117035970D01*
X125926067Y-116850714D01*
X125527583Y-116685249D01*
X125096110Y-116684872D01*
X124697337Y-116849642D01*
X124391974Y-117154473D01*
X124226509Y-117552957D01*
X124226132Y-117984430D01*
X124390902Y-118383203D01*
X124695733Y-118688566D01*
X125094217Y-118854031D01*
X125525690Y-118854408D01*
X125924463Y-118689638D01*
X126229826Y-118384807D01*
X126343936Y-118110000D01*
X129106394Y-118110000D01*
X129667000Y-118670606D01*
X129667000Y-119761000D01*
X129677006Y-119810410D01*
X129704197Y-119850803D01*
X129831197Y-119977803D01*
X129873211Y-120005666D01*
X129921000Y-120015000D01*
X130560734Y-120015000D01*
X130795000Y-120062440D01*
X132095000Y-120062440D01*
X132330317Y-120018162D01*
X132335231Y-120015000D01*
X132535394Y-120015000D01*
X132842000Y-120321606D01*
X132842000Y-123010394D01*
X132789394Y-123063000D01*
X120956606Y-123063000D01*
X120777000Y-122883394D01*
X120777000Y-109399606D01*
X120956606Y-109220000D01*
X129741394Y-109220000D01*
X130048000Y-109526606D01*
X130048000Y-109526606D01*
G37*
X130048000Y-109526606D02*
X130048000Y-111707394D01*
X129487394Y-112268000D01*
X126873000Y-112268000D01*
X126823590Y-112278006D01*
X126783197Y-112305197D01*
X126260341Y-112828053D01*
X126230898Y-112756797D01*
X125926067Y-112451434D01*
X125527583Y-112285969D01*
X125096110Y-112285592D01*
X124697337Y-112450362D01*
X124391974Y-112755193D01*
X124226509Y-113153677D01*
X124226132Y-113585150D01*
X124390902Y-113983923D01*
X124695733Y-114289286D01*
X125094217Y-114454751D01*
X125525690Y-114455128D01*
X125924463Y-114290358D01*
X126111000Y-114104146D01*
X126111000Y-117035970D01*
X125926067Y-116850714D01*
X125527583Y-116685249D01*
X125096110Y-116684872D01*
X124697337Y-116849642D01*
X124391974Y-117154473D01*
X124226509Y-117552957D01*
X124226132Y-117984430D01*
X124390902Y-118383203D01*
X124695733Y-118688566D01*
X125094217Y-118854031D01*
X125525690Y-118854408D01*
X125924463Y-118689638D01*
X126229826Y-118384807D01*
X126343936Y-118110000D01*
X129106394Y-118110000D01*
X129667000Y-118670606D01*
X129667000Y-119761000D01*
X129677006Y-119810410D01*
X129704197Y-119850803D01*
X129831197Y-119977803D01*
X129873211Y-120005666D01*
X129921000Y-120015000D01*
X130560734Y-120015000D01*
X130795000Y-120062440D01*
X132095000Y-120062440D01*
X132330317Y-120018162D01*
X132335231Y-120015000D01*
X132535394Y-120015000D01*
X132842000Y-120321606D01*
X132842000Y-123010394D01*
X132789394Y-123063000D01*
X120956606Y-123063000D01*
X120777000Y-122883394D01*
X120777000Y-109399606D01*
X120956606Y-109220000D01*
X129741394Y-109220000D01*
X130048000Y-109526606D01*
G36*
X179813857Y-97636796D02*
X178919935Y-98529159D01*
X178435552Y-99695683D01*
X178434450Y-100958776D01*
X178916796Y-102126143D01*
X179809159Y-103020065D01*
X180975683Y-103504448D01*
X182238776Y-103505550D01*
X183406143Y-103023204D01*
X184300065Y-102130841D01*
X184710000Y-101143608D01*
X184710000Y-129998379D01*
X184303204Y-129013857D01*
X183410841Y-128119935D01*
X182244317Y-127635552D01*
X180981224Y-127634450D01*
X179813857Y-128116796D01*
X178919935Y-129009159D01*
X178435552Y-130175683D01*
X178434450Y-131438776D01*
X178916796Y-132606143D01*
X179809159Y-133500065D01*
X180796392Y-133910000D01*
X124001621Y-133910000D01*
X124986143Y-133503204D01*
X125880065Y-132610841D01*
X126364448Y-131444317D01*
X126365550Y-130181224D01*
X126218672Y-129825750D01*
X135265000Y-129825750D01*
X135265000Y-130291310D01*
X135361673Y-130524699D01*
X135540302Y-130703327D01*
X135773691Y-130800000D01*
X136239250Y-130800000D01*
X136398000Y-130641250D01*
X136398000Y-129667000D01*
X136652000Y-129667000D01*
X136652000Y-130641250D01*
X136810750Y-130800000D01*
X137276309Y-130800000D01*
X137509698Y-130703327D01*
X137688327Y-130524699D01*
X137785000Y-130291310D01*
X137785000Y-129825750D01*
X137626250Y-129667000D01*
X136652000Y-129667000D01*
X136398000Y-129667000D01*
X135423750Y-129667000D01*
X135265000Y-129825750D01*
X126218672Y-129825750D01*
X125883204Y-129013857D01*
X125658430Y-128788690D01*
X135265000Y-128788690D01*
X135265000Y-129254250D01*
X135423750Y-129413000D01*
X136398000Y-129413000D01*
X136398000Y-128438750D01*
X136652000Y-128438750D01*
X136652000Y-129413000D01*
X137626250Y-129413000D01*
X137785000Y-129254250D01*
X137785000Y-128788690D01*
X137688327Y-128555301D01*
X137509698Y-128376673D01*
X137276309Y-128280000D01*
X136810750Y-128280000D01*
X136652000Y-128438750D01*
X136398000Y-128438750D01*
X136239250Y-128280000D01*
X135773691Y-128280000D01*
X135540302Y-128376673D01*
X135361673Y-128555301D01*
X135265000Y-128788690D01*
X125658430Y-128788690D01*
X124990841Y-128119935D01*
X123824317Y-127635552D01*
X122561224Y-127634450D01*
X121393857Y-128116796D01*
X120499935Y-129009159D01*
X120090000Y-129996392D01*
X120090000Y-127285750D01*
X135610000Y-127285750D01*
X135610000Y-127501310D01*
X135706673Y-127734699D01*
X135885302Y-127913327D01*
X136118691Y-128010000D01*
X136559250Y-128010000D01*
X136718000Y-127851250D01*
X136718000Y-127127000D01*
X135768750Y-127127000D01*
X135610000Y-127285750D01*
X120090000Y-127285750D01*
X120090000Y-126498690D01*
X135610000Y-126498690D01*
X135610000Y-126714250D01*
X135768750Y-126873000D01*
X136718000Y-126873000D01*
X136718000Y-126148750D01*
X136559250Y-125990000D01*
X136118691Y-125990000D01*
X135885302Y-126086673D01*
X135706673Y-126265301D01*
X135610000Y-126498690D01*
X120090000Y-126498690D01*
X120090000Y-124079000D01*
X133096000Y-124079000D01*
X133145410Y-124068994D01*
X133185803Y-124041803D01*
X133566803Y-123660803D01*
X133594666Y-123618789D01*
X133604000Y-123571000D01*
X133604000Y-120015000D01*
X133593994Y-119965590D01*
X133566803Y-119925197D01*
X132931803Y-119290197D01*
X132889789Y-119262334D01*
X132842000Y-119253000D01*
X132730000Y-119253000D01*
X132730000Y-118964750D01*
X149866000Y-118964750D01*
X149866000Y-119405309D01*
X149962673Y-119638698D01*
X150141301Y-119817327D01*
X150374690Y-119914000D01*
X150590250Y-119914000D01*
X150749000Y-119755250D01*
X150749000Y-118806000D01*
X151003000Y-118806000D01*
X151003000Y-119755250D01*
X151161750Y-119914000D01*
X151377310Y-119914000D01*
X151610699Y-119817327D01*
X151789327Y-119638698D01*
X151886000Y-119405309D01*
X151886000Y-118964750D01*
X151727250Y-118806000D01*
X151003000Y-118806000D01*
X150749000Y-118806000D01*
X150024750Y-118806000D01*
X149866000Y-118964750D01*
X132730000Y-118964750D01*
X132730000Y-118950750D01*
X132571250Y-118792000D01*
X131572000Y-118792000D01*
X131572000Y-118812000D01*
X131318000Y-118812000D01*
X131318000Y-118792000D01*
X131298000Y-118792000D01*
X131298000Y-118538000D01*
X131318000Y-118538000D01*
X131318000Y-117438750D01*
X131572000Y-117438750D01*
X131572000Y-118538000D01*
X132571250Y-118538000D01*
X132730000Y-118379250D01*
X132730000Y-117788691D01*
X132633327Y-117555302D01*
X132454699Y-117376673D01*
X132221310Y-117280000D01*
X131730750Y-117280000D01*
X131572000Y-117438750D01*
X131318000Y-117438750D01*
X131159250Y-117280000D01*
X130668690Y-117280000D01*
X130435301Y-117376673D01*
X130256673Y-117555302D01*
X130160000Y-117788691D01*
X130160000Y-117915394D01*
X129502803Y-117258197D01*
X129460789Y-117230334D01*
X129413000Y-117221000D01*
X129299068Y-117221000D01*
X129440330Y-117130100D01*
X133708298Y-117130100D01*
X134294899Y-117716701D01*
X134294833Y-117792118D01*
X134440677Y-118145086D01*
X134710493Y-118415374D01*
X135063206Y-118561833D01*
X135445118Y-118562167D01*
X135798086Y-118416323D01*
X136068374Y-118146507D01*
X136214833Y-117793794D01*
X136215167Y-117411882D01*
X136069323Y-117058914D01*
X135799507Y-116788626D01*
X135446794Y-116642167D01*
X135369902Y-116642100D01*
X135048378Y-116320576D01*
X135291839Y-116272148D01*
X135538401Y-116107401D01*
X136959680Y-114686122D01*
X137005167Y-114686162D01*
X137348943Y-114544117D01*
X137612192Y-114281327D01*
X137750130Y-113949138D01*
X137755317Y-113948162D01*
X137971441Y-113809090D01*
X138116431Y-113596890D01*
X138167440Y-113345000D01*
X138167440Y-112345000D01*
X138123162Y-112109683D01*
X137984090Y-111893559D01*
X137973385Y-111886245D01*
X138116431Y-111676890D01*
X138167440Y-111425000D01*
X138167440Y-110718691D01*
X146310000Y-110718691D01*
X146310000Y-111159250D01*
X146468750Y-111318000D01*
X147193000Y-111318000D01*
X147193000Y-110368750D01*
X147447000Y-110368750D01*
X147447000Y-111318000D01*
X148171250Y-111318000D01*
X148272500Y-111216750D01*
X148373750Y-111318000D01*
X149098000Y-111318000D01*
X149098000Y-110368750D01*
X149352000Y-110368750D01*
X149352000Y-111318000D01*
X150076250Y-111318000D01*
X150177500Y-111216750D01*
X150278750Y-111318000D01*
X151003000Y-111318000D01*
X151003000Y-110368750D01*
X150844250Y-110210000D01*
X150628690Y-110210000D01*
X150395301Y-110306673D01*
X150216673Y-110485302D01*
X150177500Y-110579874D01*
X150138327Y-110485302D01*
X149959699Y-110306673D01*
X149726310Y-110210000D01*
X149510750Y-110210000D01*
X149352000Y-110368750D01*
X149098000Y-110368750D01*
X148939250Y-110210000D01*
X148723690Y-110210000D01*
X148490301Y-110306673D01*
X148311673Y-110485302D01*
X148272500Y-110579874D01*
X148233327Y-110485302D01*
X148054699Y-110306673D01*
X147821310Y-110210000D01*
X147605750Y-110210000D01*
X147447000Y-110368750D01*
X147193000Y-110368750D01*
X147034250Y-110210000D01*
X146818690Y-110210000D01*
X146585301Y-110306673D01*
X146406673Y-110485302D01*
X146310000Y-110718691D01*
X138167440Y-110718691D01*
X138167440Y-110425000D01*
X138123162Y-110189683D01*
X137984090Y-109973559D01*
X137772091Y-109828706D01*
X137758662Y-109761194D01*
X137665268Y-109621421D01*
X137538420Y-109431579D01*
X137326841Y-109220000D01*
X139787160Y-109220000D01*
X140251580Y-109684421D01*
X140581193Y-109904662D01*
X140621810Y-109912741D01*
X140970000Y-109982000D01*
X151810560Y-109982000D01*
X151810560Y-110284248D01*
X151631310Y-110210000D01*
X151415750Y-110210000D01*
X151257000Y-110368750D01*
X151257000Y-111318000D01*
X151277000Y-111318000D01*
X151277000Y-111572000D01*
X151257000Y-111572000D01*
X151257000Y-111592000D01*
X151003000Y-111592000D01*
X151003000Y-111572000D01*
X150278750Y-111572000D01*
X150177500Y-111673250D01*
X150076250Y-111572000D01*
X149352000Y-111572000D01*
X149352000Y-111592000D01*
X149098000Y-111592000D01*
X149098000Y-111572000D01*
X148373750Y-111572000D01*
X148272500Y-111673250D01*
X148171250Y-111572000D01*
X147447000Y-111572000D01*
X147447000Y-111592000D01*
X147193000Y-111592000D01*
X147193000Y-111572000D01*
X146468750Y-111572000D01*
X146310000Y-111730750D01*
X146310000Y-112132849D01*
X146057807Y-111964338D01*
X145669000Y-111887001D01*
X145280193Y-111964338D01*
X144950580Y-112184580D01*
X144730338Y-112514193D01*
X144653001Y-112903000D01*
X144730338Y-113291807D01*
X144950580Y-113621420D01*
X145392579Y-114063420D01*
X145605271Y-114205536D01*
X145722194Y-114283662D01*
X146111000Y-114361000D01*
X146458104Y-114361000D01*
X146460080Y-114364070D01*
X144564685Y-114364070D01*
X144543162Y-114249683D01*
X144404090Y-114033559D01*
X144191890Y-113888569D01*
X143940000Y-113837560D01*
X142740000Y-113837560D01*
X142504683Y-113881838D01*
X142288559Y-114020910D01*
X142240866Y-114090711D01*
X142204090Y-114033559D01*
X141991890Y-113888569D01*
X141740000Y-113837560D01*
X140540000Y-113837560D01*
X140304683Y-113881838D01*
X140088559Y-114020910D01*
X140026942Y-114111090D01*
X139759799Y-114000162D01*
X139387833Y-113999838D01*
X139044057Y-114141883D01*
X138780808Y-114404673D01*
X138638162Y-114748201D01*
X138637838Y-115120167D01*
X138779883Y-115463943D01*
X139042673Y-115727192D01*
X139386201Y-115869838D01*
X139758167Y-115870162D01*
X140026314Y-115759366D01*
X140075910Y-115836441D01*
X140149479Y-115886709D01*
X140088559Y-115925910D01*
X140026942Y-116016090D01*
X139759799Y-115905162D01*
X139387833Y-115904838D01*
X139044057Y-116046883D01*
X138780808Y-116309673D01*
X138638162Y-116653201D01*
X138637838Y-117025167D01*
X138779883Y-117368943D01*
X139042673Y-117632192D01*
X139386201Y-117774838D01*
X139758167Y-117775162D01*
X140026314Y-117664366D01*
X140075910Y-117741441D01*
X140288110Y-117886431D01*
X140540000Y-117937440D01*
X141740000Y-117937440D01*
X141975317Y-117893162D01*
X142191441Y-117754090D01*
X142239134Y-117684289D01*
X142275910Y-117741441D01*
X142488110Y-117886431D01*
X142740000Y-117937440D01*
X143940000Y-117937440D01*
X144175317Y-117893162D01*
X144391441Y-117754090D01*
X144530938Y-117549930D01*
X144653000Y-117549930D01*
X144924679Y-117495890D01*
X145154996Y-117341996D01*
X146213063Y-116283930D01*
X149853560Y-116283930D01*
X149853560Y-117379000D01*
X149897838Y-117614317D01*
X149964329Y-117717646D01*
X149962673Y-117719302D01*
X149866000Y-117952691D01*
X149866000Y-118393250D01*
X150024750Y-118552000D01*
X150749000Y-118552000D01*
X150749000Y-118532000D01*
X151003000Y-118532000D01*
X151003000Y-118552000D01*
X151727250Y-118552000D01*
X151886000Y-118393250D01*
X151886000Y-118282885D01*
X152204167Y-118283162D01*
X152547943Y-118141117D01*
X152739646Y-117949748D01*
X152995179Y-118055855D01*
X153327363Y-118056145D01*
X153413818Y-118020423D01*
X153429673Y-118058699D01*
X153608302Y-118237327D01*
X153841691Y-118334000D01*
X154032250Y-118334000D01*
X154190998Y-118175252D01*
X154190998Y-118334000D01*
X154195560Y-118334000D01*
X154195560Y-118574000D01*
X154201649Y-118606358D01*
X152867938Y-119940070D01*
X151511000Y-119940070D01*
X151239321Y-119994110D01*
X151009004Y-120148004D01*
X149993004Y-121164004D01*
X149839110Y-121394321D01*
X149787091Y-121655839D01*
X149785070Y-121666000D01*
X149785070Y-121907230D01*
X149681626Y-122010493D01*
X149535363Y-122362735D01*
X149225000Y-122301001D01*
X148836193Y-122378338D01*
X148506580Y-122598580D01*
X148286338Y-122928193D01*
X148209001Y-123317000D01*
X148286338Y-123705807D01*
X148506580Y-124035420D01*
X150792579Y-126321420D01*
X151122193Y-126541661D01*
X151511000Y-126618999D01*
X151899807Y-126541661D01*
X152229420Y-126321420D01*
X152449661Y-125991807D01*
X152526999Y-125603000D01*
X152449661Y-125214193D01*
X152229420Y-124884579D01*
X150808873Y-123464032D01*
X151038086Y-123369323D01*
X151129923Y-123277646D01*
X151220493Y-123368374D01*
X151573206Y-123514833D01*
X151955118Y-123515167D01*
X152308086Y-123369323D01*
X152399923Y-123277646D01*
X152490493Y-123368374D01*
X152843206Y-123514833D01*
X153225118Y-123515167D01*
X153578086Y-123369323D01*
X153848374Y-123099507D01*
X153994833Y-122746794D01*
X153995073Y-122471919D01*
X155758070Y-120708923D01*
X155758070Y-122764937D01*
X154438004Y-124085004D01*
X154284110Y-124315321D01*
X154263885Y-124417000D01*
X154230070Y-124587000D01*
X154230070Y-126947282D01*
X153880330Y-127180971D01*
X153670000Y-127495752D01*
X153459670Y-127180971D01*
X152973489Y-126856115D01*
X152400000Y-126742041D01*
X151826511Y-126856115D01*
X151340330Y-127180971D01*
X151015474Y-127667152D01*
X150901400Y-128240641D01*
X150901400Y-128299359D01*
X151015474Y-128872848D01*
X151326574Y-129338442D01*
X151301083Y-129343238D01*
X151084959Y-129482310D01*
X150939969Y-129694510D01*
X150919151Y-129797311D01*
X149435423Y-128313583D01*
X149435421Y-128313580D01*
X146685000Y-125563160D01*
X146685000Y-122174000D01*
X146607662Y-121785194D01*
X146387420Y-121455580D01*
X146057806Y-121235338D01*
X145669000Y-121158000D01*
X145280194Y-121235338D01*
X144950580Y-121455580D01*
X144730338Y-121785194D01*
X144653000Y-122174000D01*
X144653000Y-125563159D01*
X144233892Y-125982268D01*
X144191890Y-125953569D01*
X143940000Y-125902560D01*
X142740000Y-125902560D01*
X142504683Y-125946838D01*
X142288559Y-126085910D01*
X142240866Y-126155711D01*
X142204090Y-126098559D01*
X141991890Y-125953569D01*
X141740000Y-125902560D01*
X140540000Y-125902560D01*
X140304683Y-125946838D01*
X140088559Y-126085910D01*
X139949062Y-126290070D01*
X139884063Y-126290070D01*
X139809090Y-126173559D01*
X139596890Y-126028569D01*
X139345000Y-125977560D01*
X138145000Y-125977560D01*
X137909683Y-126021838D01*
X137806354Y-126088329D01*
X137804698Y-126086673D01*
X137571309Y-125990000D01*
X137130750Y-125990000D01*
X136972000Y-126148750D01*
X136972000Y-126873000D01*
X136992000Y-126873000D01*
X136992000Y-127127000D01*
X136972000Y-127127000D01*
X136972000Y-127851250D01*
X137130750Y-128010000D01*
X137571309Y-128010000D01*
X137804698Y-127913327D01*
X137806068Y-127911957D01*
X137893110Y-127971431D01*
X138035070Y-128000179D01*
X138035070Y-128331000D01*
X138089110Y-128602679D01*
X138243004Y-128832996D01*
X139452004Y-130041996D01*
X139682322Y-130195890D01*
X139954000Y-130249930D01*
X142468541Y-130249930D01*
X142496838Y-130400317D01*
X142635910Y-130616441D01*
X142848110Y-130761431D01*
X143100000Y-130812440D01*
X144350000Y-130812440D01*
X144585317Y-130768162D01*
X144801441Y-130629090D01*
X144946431Y-130416890D01*
X144980241Y-130249930D01*
X145542000Y-130249930D01*
X145813679Y-130195890D01*
X146043996Y-130041996D01*
X146475301Y-129610691D01*
X146776372Y-129486292D01*
X147011466Y-129251607D01*
X147138855Y-128944821D01*
X147138902Y-128890743D01*
X147998580Y-129750421D01*
X147998583Y-129750423D01*
X149903580Y-131655421D01*
X150233193Y-131875662D01*
X150297700Y-131888493D01*
X150622000Y-131953000D01*
X150961605Y-131953000D01*
X151072310Y-132125041D01*
X151284510Y-132270031D01*
X151536400Y-132321040D01*
X153263600Y-132321040D01*
X153498917Y-132276762D01*
X153715041Y-132137690D01*
X153860031Y-131925490D01*
X153879039Y-131831625D01*
X154165053Y-132092688D01*
X154580974Y-132264958D01*
X154813000Y-132143817D01*
X154813000Y-130937000D01*
X155067000Y-130937000D01*
X155067000Y-132143817D01*
X155299026Y-132264958D01*
X155714947Y-132092688D01*
X156146821Y-131698490D01*
X156210000Y-131563687D01*
X156273179Y-131698490D01*
X156705053Y-132092688D01*
X157120974Y-132264958D01*
X157353000Y-132143817D01*
X157353000Y-130937000D01*
X155067000Y-130937000D01*
X154813000Y-130937000D01*
X154793000Y-130937000D01*
X154793000Y-130683000D01*
X154813000Y-130683000D01*
X154813000Y-130663000D01*
X155067000Y-130663000D01*
X155067000Y-130683000D01*
X157353000Y-130683000D01*
X157353000Y-130663000D01*
X157607000Y-130663000D01*
X157607000Y-130683000D01*
X157627000Y-130683000D01*
X157627000Y-130937000D01*
X157607000Y-130937000D01*
X157607000Y-132143817D01*
X157839026Y-132264958D01*
X158254947Y-132092688D01*
X158686821Y-131698490D01*
X158744336Y-131575772D01*
X158960330Y-131899029D01*
X159446511Y-132223885D01*
X160020000Y-132337959D01*
X160593489Y-132223885D01*
X161079670Y-131899029D01*
X161290000Y-131584248D01*
X161500330Y-131899029D01*
X161986511Y-132223885D01*
X162560000Y-132337959D01*
X163133489Y-132223885D01*
X163619670Y-131899029D01*
X163944526Y-131412848D01*
X164058600Y-130839359D01*
X164058600Y-130780641D01*
X163944526Y-130207152D01*
X163619670Y-129720971D01*
X163348828Y-129540000D01*
X163619670Y-129359029D01*
X163944526Y-128872848D01*
X164058600Y-128299359D01*
X164058600Y-128240641D01*
X163944526Y-127667152D01*
X163619670Y-127180971D01*
X163320000Y-126980738D01*
X163320000Y-126148840D01*
X163873580Y-126702421D01*
X164203193Y-126922662D01*
X164267700Y-126935493D01*
X164592000Y-127000000D01*
X174371000Y-127000000D01*
X174695300Y-126935493D01*
X174759807Y-126922662D01*
X175089420Y-126702420D01*
X177331841Y-124460000D01*
X181102000Y-124460000D01*
X181426300Y-124395493D01*
X181490807Y-124382662D01*
X181820420Y-124162420D01*
X182963420Y-123019421D01*
X183183662Y-122689807D01*
X183203117Y-122591997D01*
X183261000Y-122301000D01*
X183261000Y-122132364D01*
X183343917Y-122116762D01*
X183560041Y-121977690D01*
X183705031Y-121765490D01*
X183756040Y-121513600D01*
X183756040Y-119786400D01*
X183711762Y-119551083D01*
X183572690Y-119334959D01*
X183360490Y-119189969D01*
X183316869Y-119181136D01*
X183334029Y-119169670D01*
X183658885Y-118683489D01*
X183772959Y-118110000D01*
X183658885Y-117536511D01*
X183334029Y-117050330D01*
X183019248Y-116840000D01*
X183334029Y-116629670D01*
X183658885Y-116143489D01*
X183772959Y-115570000D01*
X183658885Y-114996511D01*
X183334029Y-114510330D01*
X183019248Y-114300000D01*
X183334029Y-114089670D01*
X183658885Y-113603489D01*
X183772959Y-113030000D01*
X183658885Y-112456511D01*
X183334029Y-111970330D01*
X183019248Y-111760000D01*
X183334029Y-111549670D01*
X183658885Y-111063489D01*
X183772959Y-110490000D01*
X183658885Y-109916511D01*
X183334029Y-109430330D01*
X182847848Y-109105474D01*
X182274359Y-108991400D01*
X182215641Y-108991400D01*
X181642152Y-109105474D01*
X181155971Y-109430330D01*
X180975000Y-109701172D01*
X180794029Y-109430330D01*
X180307848Y-109105474D01*
X179734359Y-108991400D01*
X179675641Y-108991400D01*
X179102152Y-109105474D01*
X178615971Y-109430330D01*
X178291115Y-109916511D01*
X178177041Y-110490000D01*
X178291115Y-111063489D01*
X178615971Y-111549670D01*
X178930752Y-111760000D01*
X178615971Y-111970330D01*
X178291115Y-112456511D01*
X178177041Y-113030000D01*
X178291115Y-113603489D01*
X178615971Y-114089670D01*
X178939228Y-114305664D01*
X178816510Y-114363179D01*
X178422312Y-114795053D01*
X178250042Y-115210974D01*
X178371183Y-115443000D01*
X179578000Y-115443000D01*
X179578000Y-115423000D01*
X179832000Y-115423000D01*
X179832000Y-115443000D01*
X179852000Y-115443000D01*
X179852000Y-115697000D01*
X179832000Y-115697000D01*
X179832000Y-115717000D01*
X179578000Y-115717000D01*
X179578000Y-115697000D01*
X178371183Y-115697000D01*
X178250042Y-115929026D01*
X178333312Y-116130070D01*
X176984066Y-116130070D01*
X176984145Y-116039637D01*
X176858930Y-115736592D01*
X176858930Y-108204000D01*
X176838627Y-108101931D01*
X176804890Y-107932321D01*
X176650996Y-107702004D01*
X175736596Y-106787604D01*
X175506279Y-106633710D01*
X175234600Y-106579670D01*
X172547440Y-106579670D01*
X172547440Y-105910000D01*
X172503162Y-105674683D01*
X172364090Y-105458559D01*
X172294289Y-105410866D01*
X172351441Y-105374090D01*
X172496431Y-105161890D01*
X172547440Y-104910000D01*
X172547440Y-103710000D01*
X172503162Y-103474683D01*
X172364090Y-103258559D01*
X172151890Y-103113569D01*
X171900000Y-103062560D01*
X171000000Y-103062560D01*
X170764683Y-103106838D01*
X170548559Y-103245910D01*
X170403569Y-103458110D01*
X170352560Y-103710000D01*
X170352560Y-104403448D01*
X169932004Y-104824004D01*
X169778110Y-105054321D01*
X169751552Y-105187838D01*
X169724070Y-105326000D01*
X169724070Y-105778560D01*
X168465500Y-105778560D01*
X168284593Y-105812600D01*
X167379996Y-104908004D01*
X167149679Y-104754110D01*
X167008323Y-104725993D01*
X166900327Y-104617808D01*
X166556799Y-104475162D01*
X166184833Y-104474838D01*
X165841057Y-104616883D01*
X165577808Y-104879673D01*
X165435162Y-105223201D01*
X165434838Y-105595167D01*
X165576883Y-105938943D01*
X165582600Y-105944670D01*
X164676259Y-105944670D01*
X164526390Y-105842269D01*
X164475314Y-105831926D01*
X164495317Y-105828162D01*
X164711441Y-105689090D01*
X164856431Y-105476890D01*
X164907440Y-105225000D01*
X164907440Y-104325000D01*
X164863162Y-104089683D01*
X164724090Y-103873559D01*
X164511890Y-103728569D01*
X164260000Y-103677560D01*
X163060000Y-103677560D01*
X162824683Y-103721838D01*
X162608559Y-103860910D01*
X162560866Y-103930711D01*
X162524090Y-103873559D01*
X162455674Y-103826812D01*
X162398662Y-103540193D01*
X162178421Y-103210580D01*
X161754422Y-102786582D01*
X161754420Y-102786579D01*
X161719035Y-102751194D01*
X161732440Y-102685000D01*
X161732440Y-101785000D01*
X161688162Y-101549683D01*
X161549090Y-101333559D01*
X161336890Y-101188569D01*
X161085000Y-101137560D01*
X159885000Y-101137560D01*
X159649683Y-101181838D01*
X159433559Y-101320910D01*
X159385866Y-101390711D01*
X159349090Y-101333559D01*
X159136890Y-101188569D01*
X158885000Y-101137560D01*
X157685000Y-101137560D01*
X157449683Y-101181838D01*
X157233559Y-101320910D01*
X157088569Y-101533110D01*
X157037560Y-101785000D01*
X157037560Y-102685000D01*
X157081838Y-102920317D01*
X157220910Y-103136441D01*
X157355000Y-103228061D01*
X157355000Y-103422962D01*
X157254683Y-103441838D01*
X157038559Y-103580910D01*
X156893569Y-103793110D01*
X156842560Y-104045000D01*
X156842560Y-105545000D01*
X156886838Y-105780317D01*
X157025910Y-105996441D01*
X157095711Y-106044134D01*
X157038559Y-106080910D01*
X156893569Y-106293110D01*
X156842560Y-106545000D01*
X156842560Y-108045000D01*
X156886838Y-108280317D01*
X156979624Y-108424511D01*
X156884821Y-108385145D01*
X156552637Y-108384855D01*
X156245628Y-108511708D01*
X156010534Y-108746393D01*
X155884790Y-109049218D01*
X155690470Y-109243538D01*
X155658994Y-109222031D01*
X155801327Y-109079698D01*
X155898000Y-108846309D01*
X155898000Y-108405750D01*
X155739250Y-108247000D01*
X154940000Y-108247000D01*
X154940000Y-108267000D01*
X154686000Y-108267000D01*
X154686000Y-108247000D01*
X154666000Y-108247000D01*
X154666000Y-107993000D01*
X154686000Y-107993000D01*
X154686000Y-107043750D01*
X154940000Y-107043750D01*
X154940000Y-107993000D01*
X155739250Y-107993000D01*
X155898000Y-107834250D01*
X155898000Y-107393691D01*
X155801327Y-107160302D01*
X155622699Y-106981673D01*
X155389310Y-106885000D01*
X155098750Y-106885000D01*
X154940000Y-107043750D01*
X154686000Y-107043750D01*
X154527250Y-106885000D01*
X154236690Y-106885000D01*
X154003301Y-106981673D01*
X153859022Y-107125953D01*
X153822090Y-107068559D01*
X153609890Y-106923569D01*
X153536104Y-106908627D01*
X153753420Y-106763420D01*
X154388421Y-106128420D01*
X154608662Y-105798807D01*
X154662179Y-105529756D01*
X154666481Y-105523460D01*
X154717490Y-105271570D01*
X154717490Y-103470710D01*
X154673212Y-103235393D01*
X154534140Y-103019269D01*
X154384069Y-102916730D01*
X155020050Y-102916730D01*
X155255367Y-102872452D01*
X155471491Y-102733380D01*
X155616481Y-102521180D01*
X155667490Y-102269290D01*
X155667490Y-100468430D01*
X155636000Y-100301075D01*
X155636000Y-99883000D01*
X155558662Y-99494194D01*
X155405077Y-99264339D01*
X155338420Y-99164579D01*
X154896420Y-98722580D01*
X154566807Y-98502338D01*
X154502300Y-98489507D01*
X154178000Y-98425000D01*
X151892000Y-98425000D01*
X151503194Y-98502338D01*
X151503192Y-98502339D01*
X151503193Y-98502339D01*
X151173579Y-98722580D01*
X149776580Y-100119580D01*
X149684441Y-100257475D01*
X149634683Y-100266838D01*
X149418559Y-100405910D01*
X149283210Y-100604000D01*
X148570000Y-100604000D01*
X148181194Y-100681338D01*
X148181192Y-100681339D01*
X148181193Y-100681339D01*
X147851579Y-100901580D01*
X147574000Y-101179159D01*
X147574000Y-100488750D01*
X147415250Y-100330000D01*
X146558000Y-100330000D01*
X146558000Y-100350000D01*
X146304000Y-100350000D01*
X146304000Y-100330000D01*
X146284000Y-100330000D01*
X146284000Y-100076000D01*
X146304000Y-100076000D01*
X146304000Y-98710750D01*
X146558000Y-98710750D01*
X146558000Y-100076000D01*
X147415250Y-100076000D01*
X147574000Y-99917250D01*
X147574000Y-99060690D01*
X147477327Y-98827301D01*
X147298698Y-98648673D01*
X147065309Y-98552000D01*
X146716750Y-98552000D01*
X146558000Y-98710750D01*
X146304000Y-98710750D01*
X146145250Y-98552000D01*
X145796691Y-98552000D01*
X145563302Y-98648673D01*
X145384673Y-98827301D01*
X145288000Y-99060690D01*
X145288000Y-99120887D01*
X145256162Y-98951683D01*
X145117090Y-98735559D01*
X144904890Y-98590569D01*
X144653000Y-98539560D01*
X143637000Y-98539560D01*
X143401683Y-98583838D01*
X143185559Y-98722910D01*
X143040569Y-98935110D01*
X143002457Y-99123314D01*
X142970162Y-98951683D01*
X142831090Y-98735559D01*
X142618890Y-98590569D01*
X142367000Y-98539560D01*
X141351000Y-98539560D01*
X141115683Y-98583838D01*
X140899559Y-98722910D01*
X140754569Y-98935110D01*
X140703560Y-99187000D01*
X140703560Y-99921599D01*
X138751600Y-101873560D01*
X137932000Y-101873560D01*
X137696683Y-101917838D01*
X137480559Y-102056910D01*
X137343256Y-102257860D01*
X136280744Y-102257860D01*
X136258212Y-102138113D01*
X136119140Y-101921989D01*
X135906940Y-101776999D01*
X135655050Y-101725990D01*
X134854950Y-101725990D01*
X134619633Y-101770268D01*
X134403509Y-101909340D01*
X134258519Y-102121540D01*
X134207510Y-102373430D01*
X134207510Y-104174290D01*
X134251788Y-104409607D01*
X134390860Y-104625731D01*
X134540931Y-104728270D01*
X133904950Y-104728270D01*
X133669633Y-104772548D01*
X133453509Y-104911620D01*
X133308519Y-105123820D01*
X133257510Y-105375710D01*
X133257510Y-106299000D01*
X131756802Y-106299000D01*
X131725000Y-106292560D01*
X130525000Y-106292560D01*
X130289683Y-106336838D01*
X130186354Y-106403329D01*
X130184698Y-106401673D01*
X129951309Y-106305000D01*
X129510750Y-106305000D01*
X129352000Y-106463750D01*
X129352000Y-107188000D01*
X129372000Y-107188000D01*
X129372000Y-107442000D01*
X129352000Y-107442000D01*
X129352000Y-108166250D01*
X129510750Y-108325000D01*
X129951309Y-108325000D01*
X130109000Y-108259682D01*
X130109000Y-108349095D01*
X130095789Y-108340334D01*
X130048000Y-108331000D01*
X120090000Y-108331000D01*
X120090000Y-107600750D01*
X127990000Y-107600750D01*
X127990000Y-107816310D01*
X128086673Y-108049699D01*
X128265302Y-108228327D01*
X128498691Y-108325000D01*
X128939250Y-108325000D01*
X129098000Y-108166250D01*
X129098000Y-107442000D01*
X128148750Y-107442000D01*
X127990000Y-107600750D01*
X120090000Y-107600750D01*
X120090000Y-106813690D01*
X127990000Y-106813690D01*
X127990000Y-107029250D01*
X128148750Y-107188000D01*
X129098000Y-107188000D01*
X129098000Y-106463750D01*
X128939250Y-106305000D01*
X128498691Y-106305000D01*
X128265302Y-106401673D01*
X128086673Y-106580301D01*
X127990000Y-106813690D01*
X120090000Y-106813690D01*
X120090000Y-101141621D01*
X120496796Y-102126143D01*
X121389159Y-103020065D01*
X122555683Y-103504448D01*
X123818776Y-103505550D01*
X124986143Y-103023204D01*
X125880065Y-102130841D01*
X126364448Y-100964317D01*
X126365550Y-99701224D01*
X125883204Y-98533857D01*
X124990841Y-97639935D01*
X124003608Y-97230000D01*
X180798379Y-97230000D01*
X179813857Y-97636796D01*
X179813857Y-97636796D01*
G37*
X179813857Y-97636796D02*
X178919935Y-98529159D01*
X178435552Y-99695683D01*
X178434450Y-100958776D01*
X178916796Y-102126143D01*
X179809159Y-103020065D01*
X180975683Y-103504448D01*
X182238776Y-103505550D01*
X183406143Y-103023204D01*
X184300065Y-102130841D01*
X184710000Y-101143608D01*
X184710000Y-129998379D01*
X184303204Y-129013857D01*
X183410841Y-128119935D01*
X182244317Y-127635552D01*
X180981224Y-127634450D01*
X179813857Y-128116796D01*
X178919935Y-129009159D01*
X178435552Y-130175683D01*
X178434450Y-131438776D01*
X178916796Y-132606143D01*
X179809159Y-133500065D01*
X180796392Y-133910000D01*
X124001621Y-133910000D01*
X124986143Y-133503204D01*
X125880065Y-132610841D01*
X126364448Y-131444317D01*
X126365550Y-130181224D01*
X126218672Y-129825750D01*
X135265000Y-129825750D01*
X135265000Y-130291310D01*
X135361673Y-130524699D01*
X135540302Y-130703327D01*
X135773691Y-130800000D01*
X136239250Y-130800000D01*
X136398000Y-130641250D01*
X136398000Y-129667000D01*
X136652000Y-129667000D01*
X136652000Y-130641250D01*
X136810750Y-130800000D01*
X137276309Y-130800000D01*
X137509698Y-130703327D01*
X137688327Y-130524699D01*
X137785000Y-130291310D01*
X137785000Y-129825750D01*
X137626250Y-129667000D01*
X136652000Y-129667000D01*
X136398000Y-129667000D01*
X135423750Y-129667000D01*
X135265000Y-129825750D01*
X126218672Y-129825750D01*
X125883204Y-129013857D01*
X125658430Y-128788690D01*
X135265000Y-128788690D01*
X135265000Y-129254250D01*
X135423750Y-129413000D01*
X136398000Y-129413000D01*
X136398000Y-128438750D01*
X136652000Y-128438750D01*
X136652000Y-129413000D01*
X137626250Y-129413000D01*
X137785000Y-129254250D01*
X137785000Y-128788690D01*
X137688327Y-128555301D01*
X137509698Y-128376673D01*
X137276309Y-128280000D01*
X136810750Y-128280000D01*
X136652000Y-128438750D01*
X136398000Y-128438750D01*
X136239250Y-128280000D01*
X135773691Y-128280000D01*
X135540302Y-128376673D01*
X135361673Y-128555301D01*
X135265000Y-128788690D01*
X125658430Y-128788690D01*
X124990841Y-128119935D01*
X123824317Y-127635552D01*
X122561224Y-127634450D01*
X121393857Y-128116796D01*
X120499935Y-129009159D01*
X120090000Y-129996392D01*
X120090000Y-127285750D01*
X135610000Y-127285750D01*
X135610000Y-127501310D01*
X135706673Y-127734699D01*
X135885302Y-127913327D01*
X136118691Y-128010000D01*
X136559250Y-128010000D01*
X136718000Y-127851250D01*
X136718000Y-127127000D01*
X135768750Y-127127000D01*
X135610000Y-127285750D01*
X120090000Y-127285750D01*
X120090000Y-126498690D01*
X135610000Y-126498690D01*
X135610000Y-126714250D01*
X135768750Y-126873000D01*
X136718000Y-126873000D01*
X136718000Y-126148750D01*
X136559250Y-125990000D01*
X136118691Y-125990000D01*
X135885302Y-126086673D01*
X135706673Y-126265301D01*
X135610000Y-126498690D01*
X120090000Y-126498690D01*
X120090000Y-124079000D01*
X133096000Y-124079000D01*
X133145410Y-124068994D01*
X133185803Y-124041803D01*
X133566803Y-123660803D01*
X133594666Y-123618789D01*
X133604000Y-123571000D01*
X133604000Y-120015000D01*
X133593994Y-119965590D01*
X133566803Y-119925197D01*
X132931803Y-119290197D01*
X132889789Y-119262334D01*
X132842000Y-119253000D01*
X132730000Y-119253000D01*
X132730000Y-118964750D01*
X149866000Y-118964750D01*
X149866000Y-119405309D01*
X149962673Y-119638698D01*
X150141301Y-119817327D01*
X150374690Y-119914000D01*
X150590250Y-119914000D01*
X150749000Y-119755250D01*
X150749000Y-118806000D01*
X151003000Y-118806000D01*
X151003000Y-119755250D01*
X151161750Y-119914000D01*
X151377310Y-119914000D01*
X151610699Y-119817327D01*
X151789327Y-119638698D01*
X151886000Y-119405309D01*
X151886000Y-118964750D01*
X151727250Y-118806000D01*
X151003000Y-118806000D01*
X150749000Y-118806000D01*
X150024750Y-118806000D01*
X149866000Y-118964750D01*
X132730000Y-118964750D01*
X132730000Y-118950750D01*
X132571250Y-118792000D01*
X131572000Y-118792000D01*
X131572000Y-118812000D01*
X131318000Y-118812000D01*
X131318000Y-118792000D01*
X131298000Y-118792000D01*
X131298000Y-118538000D01*
X131318000Y-118538000D01*
X131318000Y-117438750D01*
X131572000Y-117438750D01*
X131572000Y-118538000D01*
X132571250Y-118538000D01*
X132730000Y-118379250D01*
X132730000Y-117788691D01*
X132633327Y-117555302D01*
X132454699Y-117376673D01*
X132221310Y-117280000D01*
X131730750Y-117280000D01*
X131572000Y-117438750D01*
X131318000Y-117438750D01*
X131159250Y-117280000D01*
X130668690Y-117280000D01*
X130435301Y-117376673D01*
X130256673Y-117555302D01*
X130160000Y-117788691D01*
X130160000Y-117915394D01*
X129502803Y-117258197D01*
X129460789Y-117230334D01*
X129413000Y-117221000D01*
X129299068Y-117221000D01*
X129440330Y-117130100D01*
X133708298Y-117130100D01*
X134294899Y-117716701D01*
X134294833Y-117792118D01*
X134440677Y-118145086D01*
X134710493Y-118415374D01*
X135063206Y-118561833D01*
X135445118Y-118562167D01*
X135798086Y-118416323D01*
X136068374Y-118146507D01*
X136214833Y-117793794D01*
X136215167Y-117411882D01*
X136069323Y-117058914D01*
X135799507Y-116788626D01*
X135446794Y-116642167D01*
X135369902Y-116642100D01*
X135048378Y-116320576D01*
X135291839Y-116272148D01*
X135538401Y-116107401D01*
X136959680Y-114686122D01*
X137005167Y-114686162D01*
X137348943Y-114544117D01*
X137612192Y-114281327D01*
X137750130Y-113949138D01*
X137755317Y-113948162D01*
X137971441Y-113809090D01*
X138116431Y-113596890D01*
X138167440Y-113345000D01*
X138167440Y-112345000D01*
X138123162Y-112109683D01*
X137984090Y-111893559D01*
X137973385Y-111886245D01*
X138116431Y-111676890D01*
X138167440Y-111425000D01*
X138167440Y-110718691D01*
X146310000Y-110718691D01*
X146310000Y-111159250D01*
X146468750Y-111318000D01*
X147193000Y-111318000D01*
X147193000Y-110368750D01*
X147447000Y-110368750D01*
X147447000Y-111318000D01*
X148171250Y-111318000D01*
X148272500Y-111216750D01*
X148373750Y-111318000D01*
X149098000Y-111318000D01*
X149098000Y-110368750D01*
X149352000Y-110368750D01*
X149352000Y-111318000D01*
X150076250Y-111318000D01*
X150177500Y-111216750D01*
X150278750Y-111318000D01*
X151003000Y-111318000D01*
X151003000Y-110368750D01*
X150844250Y-110210000D01*
X150628690Y-110210000D01*
X150395301Y-110306673D01*
X150216673Y-110485302D01*
X150177500Y-110579874D01*
X150138327Y-110485302D01*
X149959699Y-110306673D01*
X149726310Y-110210000D01*
X149510750Y-110210000D01*
X149352000Y-110368750D01*
X149098000Y-110368750D01*
X148939250Y-110210000D01*
X148723690Y-110210000D01*
X148490301Y-110306673D01*
X148311673Y-110485302D01*
X148272500Y-110579874D01*
X148233327Y-110485302D01*
X148054699Y-110306673D01*
X147821310Y-110210000D01*
X147605750Y-110210000D01*
X147447000Y-110368750D01*
X147193000Y-110368750D01*
X147034250Y-110210000D01*
X146818690Y-110210000D01*
X146585301Y-110306673D01*
X146406673Y-110485302D01*
X146310000Y-110718691D01*
X138167440Y-110718691D01*
X138167440Y-110425000D01*
X138123162Y-110189683D01*
X137984090Y-109973559D01*
X137772091Y-109828706D01*
X137758662Y-109761194D01*
X137665268Y-109621421D01*
X137538420Y-109431579D01*
X137326841Y-109220000D01*
X139787160Y-109220000D01*
X140251580Y-109684421D01*
X140581193Y-109904662D01*
X140621810Y-109912741D01*
X140970000Y-109982000D01*
X151810560Y-109982000D01*
X151810560Y-110284248D01*
X151631310Y-110210000D01*
X151415750Y-110210000D01*
X151257000Y-110368750D01*
X151257000Y-111318000D01*
X151277000Y-111318000D01*
X151277000Y-111572000D01*
X151257000Y-111572000D01*
X151257000Y-111592000D01*
X151003000Y-111592000D01*
X151003000Y-111572000D01*
X150278750Y-111572000D01*
X150177500Y-111673250D01*
X150076250Y-111572000D01*
X149352000Y-111572000D01*
X149352000Y-111592000D01*
X149098000Y-111592000D01*
X149098000Y-111572000D01*
X148373750Y-111572000D01*
X148272500Y-111673250D01*
X148171250Y-111572000D01*
X147447000Y-111572000D01*
X147447000Y-111592000D01*
X147193000Y-111592000D01*
X147193000Y-111572000D01*
X146468750Y-111572000D01*
X146310000Y-111730750D01*
X146310000Y-112132849D01*
X146057807Y-111964338D01*
X145669000Y-111887001D01*
X145280193Y-111964338D01*
X144950580Y-112184580D01*
X144730338Y-112514193D01*
X144653001Y-112903000D01*
X144730338Y-113291807D01*
X144950580Y-113621420D01*
X145392579Y-114063420D01*
X145605271Y-114205536D01*
X145722194Y-114283662D01*
X146111000Y-114361000D01*
X146458104Y-114361000D01*
X146460080Y-114364070D01*
X144564685Y-114364070D01*
X144543162Y-114249683D01*
X144404090Y-114033559D01*
X144191890Y-113888569D01*
X143940000Y-113837560D01*
X142740000Y-113837560D01*
X142504683Y-113881838D01*
X142288559Y-114020910D01*
X142240866Y-114090711D01*
X142204090Y-114033559D01*
X141991890Y-113888569D01*
X141740000Y-113837560D01*
X140540000Y-113837560D01*
X140304683Y-113881838D01*
X140088559Y-114020910D01*
X140026942Y-114111090D01*
X139759799Y-114000162D01*
X139387833Y-113999838D01*
X139044057Y-114141883D01*
X138780808Y-114404673D01*
X138638162Y-114748201D01*
X138637838Y-115120167D01*
X138779883Y-115463943D01*
X139042673Y-115727192D01*
X139386201Y-115869838D01*
X139758167Y-115870162D01*
X140026314Y-115759366D01*
X140075910Y-115836441D01*
X140149479Y-115886709D01*
X140088559Y-115925910D01*
X140026942Y-116016090D01*
X139759799Y-115905162D01*
X139387833Y-115904838D01*
X139044057Y-116046883D01*
X138780808Y-116309673D01*
X138638162Y-116653201D01*
X138637838Y-117025167D01*
X138779883Y-117368943D01*
X139042673Y-117632192D01*
X139386201Y-117774838D01*
X139758167Y-117775162D01*
X140026314Y-117664366D01*
X140075910Y-117741441D01*
X140288110Y-117886431D01*
X140540000Y-117937440D01*
X141740000Y-117937440D01*
X141975317Y-117893162D01*
X142191441Y-117754090D01*
X142239134Y-117684289D01*
X142275910Y-117741441D01*
X142488110Y-117886431D01*
X142740000Y-117937440D01*
X143940000Y-117937440D01*
X144175317Y-117893162D01*
X144391441Y-117754090D01*
X144530938Y-117549930D01*
X144653000Y-117549930D01*
X144924679Y-117495890D01*
X145154996Y-117341996D01*
X146213063Y-116283930D01*
X149853560Y-116283930D01*
X149853560Y-117379000D01*
X149897838Y-117614317D01*
X149964329Y-117717646D01*
X149962673Y-117719302D01*
X149866000Y-117952691D01*
X149866000Y-118393250D01*
X150024750Y-118552000D01*
X150749000Y-118552000D01*
X150749000Y-118532000D01*
X151003000Y-118532000D01*
X151003000Y-118552000D01*
X151727250Y-118552000D01*
X151886000Y-118393250D01*
X151886000Y-118282885D01*
X152204167Y-118283162D01*
X152547943Y-118141117D01*
X152739646Y-117949748D01*
X152995179Y-118055855D01*
X153327363Y-118056145D01*
X153413818Y-118020423D01*
X153429673Y-118058699D01*
X153608302Y-118237327D01*
X153841691Y-118334000D01*
X154032250Y-118334000D01*
X154190998Y-118175252D01*
X154190998Y-118334000D01*
X154195560Y-118334000D01*
X154195560Y-118574000D01*
X154201649Y-118606358D01*
X152867938Y-119940070D01*
X151511000Y-119940070D01*
X151239321Y-119994110D01*
X151009004Y-120148004D01*
X149993004Y-121164004D01*
X149839110Y-121394321D01*
X149787091Y-121655839D01*
X149785070Y-121666000D01*
X149785070Y-121907230D01*
X149681626Y-122010493D01*
X149535363Y-122362735D01*
X149225000Y-122301001D01*
X148836193Y-122378338D01*
X148506580Y-122598580D01*
X148286338Y-122928193D01*
X148209001Y-123317000D01*
X148286338Y-123705807D01*
X148506580Y-124035420D01*
X150792579Y-126321420D01*
X151122193Y-126541661D01*
X151511000Y-126618999D01*
X151899807Y-126541661D01*
X152229420Y-126321420D01*
X152449661Y-125991807D01*
X152526999Y-125603000D01*
X152449661Y-125214193D01*
X152229420Y-124884579D01*
X150808873Y-123464032D01*
X151038086Y-123369323D01*
X151129923Y-123277646D01*
X151220493Y-123368374D01*
X151573206Y-123514833D01*
X151955118Y-123515167D01*
X152308086Y-123369323D01*
X152399923Y-123277646D01*
X152490493Y-123368374D01*
X152843206Y-123514833D01*
X153225118Y-123515167D01*
X153578086Y-123369323D01*
X153848374Y-123099507D01*
X153994833Y-122746794D01*
X153995073Y-122471919D01*
X155758070Y-120708923D01*
X155758070Y-122764937D01*
X154438004Y-124085004D01*
X154284110Y-124315321D01*
X154263885Y-124417000D01*
X154230070Y-124587000D01*
X154230070Y-126947282D01*
X153880330Y-127180971D01*
X153670000Y-127495752D01*
X153459670Y-127180971D01*
X152973489Y-126856115D01*
X152400000Y-126742041D01*
X151826511Y-126856115D01*
X151340330Y-127180971D01*
X151015474Y-127667152D01*
X150901400Y-128240641D01*
X150901400Y-128299359D01*
X151015474Y-128872848D01*
X151326574Y-129338442D01*
X151301083Y-129343238D01*
X151084959Y-129482310D01*
X150939969Y-129694510D01*
X150919151Y-129797311D01*
X149435423Y-128313583D01*
X149435421Y-128313580D01*
X146685000Y-125563160D01*
X146685000Y-122174000D01*
X146607662Y-121785194D01*
X146387420Y-121455580D01*
X146057806Y-121235338D01*
X145669000Y-121158000D01*
X145280194Y-121235338D01*
X144950580Y-121455580D01*
X144730338Y-121785194D01*
X144653000Y-122174000D01*
X144653000Y-125563159D01*
X144233892Y-125982268D01*
X144191890Y-125953569D01*
X143940000Y-125902560D01*
X142740000Y-125902560D01*
X142504683Y-125946838D01*
X142288559Y-126085910D01*
X142240866Y-126155711D01*
X142204090Y-126098559D01*
X141991890Y-125953569D01*
X141740000Y-125902560D01*
X140540000Y-125902560D01*
X140304683Y-125946838D01*
X140088559Y-126085910D01*
X139949062Y-126290070D01*
X139884063Y-126290070D01*
X139809090Y-126173559D01*
X139596890Y-126028569D01*
X139345000Y-125977560D01*
X138145000Y-125977560D01*
X137909683Y-126021838D01*
X137806354Y-126088329D01*
X137804698Y-126086673D01*
X137571309Y-125990000D01*
X137130750Y-125990000D01*
X136972000Y-126148750D01*
X136972000Y-126873000D01*
X136992000Y-126873000D01*
X136992000Y-127127000D01*
X136972000Y-127127000D01*
X136972000Y-127851250D01*
X137130750Y-128010000D01*
X137571309Y-128010000D01*
X137804698Y-127913327D01*
X137806068Y-127911957D01*
X137893110Y-127971431D01*
X138035070Y-128000179D01*
X138035070Y-128331000D01*
X138089110Y-128602679D01*
X138243004Y-128832996D01*
X139452004Y-130041996D01*
X139682322Y-130195890D01*
X139954000Y-130249930D01*
X142468541Y-130249930D01*
X142496838Y-130400317D01*
X142635910Y-130616441D01*
X142848110Y-130761431D01*
X143100000Y-130812440D01*
X144350000Y-130812440D01*
X144585317Y-130768162D01*
X144801441Y-130629090D01*
X144946431Y-130416890D01*
X144980241Y-130249930D01*
X145542000Y-130249930D01*
X145813679Y-130195890D01*
X146043996Y-130041996D01*
X146475301Y-129610691D01*
X146776372Y-129486292D01*
X147011466Y-129251607D01*
X147138855Y-128944821D01*
X147138902Y-128890743D01*
X147998580Y-129750421D01*
X147998583Y-129750423D01*
X149903580Y-131655421D01*
X150233193Y-131875662D01*
X150297700Y-131888493D01*
X150622000Y-131953000D01*
X150961605Y-131953000D01*
X151072310Y-132125041D01*
X151284510Y-132270031D01*
X151536400Y-132321040D01*
X153263600Y-132321040D01*
X153498917Y-132276762D01*
X153715041Y-132137690D01*
X153860031Y-131925490D01*
X153879039Y-131831625D01*
X154165053Y-132092688D01*
X154580974Y-132264958D01*
X154813000Y-132143817D01*
X154813000Y-130937000D01*
X155067000Y-130937000D01*
X155067000Y-132143817D01*
X155299026Y-132264958D01*
X155714947Y-132092688D01*
X156146821Y-131698490D01*
X156210000Y-131563687D01*
X156273179Y-131698490D01*
X156705053Y-132092688D01*
X157120974Y-132264958D01*
X157353000Y-132143817D01*
X157353000Y-130937000D01*
X155067000Y-130937000D01*
X154813000Y-130937000D01*
X154793000Y-130937000D01*
X154793000Y-130683000D01*
X154813000Y-130683000D01*
X154813000Y-130663000D01*
X155067000Y-130663000D01*
X155067000Y-130683000D01*
X157353000Y-130683000D01*
X157353000Y-130663000D01*
X157607000Y-130663000D01*
X157607000Y-130683000D01*
X157627000Y-130683000D01*
X157627000Y-130937000D01*
X157607000Y-130937000D01*
X157607000Y-132143817D01*
X157839026Y-132264958D01*
X158254947Y-132092688D01*
X158686821Y-131698490D01*
X158744336Y-131575772D01*
X158960330Y-131899029D01*
X159446511Y-132223885D01*
X160020000Y-132337959D01*
X160593489Y-132223885D01*
X161079670Y-131899029D01*
X161290000Y-131584248D01*
X161500330Y-131899029D01*
X161986511Y-132223885D01*
X162560000Y-132337959D01*
X163133489Y-132223885D01*
X163619670Y-131899029D01*
X163944526Y-131412848D01*
X164058600Y-130839359D01*
X164058600Y-130780641D01*
X163944526Y-130207152D01*
X163619670Y-129720971D01*
X163348828Y-129540000D01*
X163619670Y-129359029D01*
X163944526Y-128872848D01*
X164058600Y-128299359D01*
X164058600Y-128240641D01*
X163944526Y-127667152D01*
X163619670Y-127180971D01*
X163320000Y-126980738D01*
X163320000Y-126148840D01*
X163873580Y-126702421D01*
X164203193Y-126922662D01*
X164267700Y-126935493D01*
X164592000Y-127000000D01*
X174371000Y-127000000D01*
X174695300Y-126935493D01*
X174759807Y-126922662D01*
X175089420Y-126702420D01*
X177331841Y-124460000D01*
X181102000Y-124460000D01*
X181426300Y-124395493D01*
X181490807Y-124382662D01*
X181820420Y-124162420D01*
X182963420Y-123019421D01*
X183183662Y-122689807D01*
X183203117Y-122591997D01*
X183261000Y-122301000D01*
X183261000Y-122132364D01*
X183343917Y-122116762D01*
X183560041Y-121977690D01*
X183705031Y-121765490D01*
X183756040Y-121513600D01*
X183756040Y-119786400D01*
X183711762Y-119551083D01*
X183572690Y-119334959D01*
X183360490Y-119189969D01*
X183316869Y-119181136D01*
X183334029Y-119169670D01*
X183658885Y-118683489D01*
X183772959Y-118110000D01*
X183658885Y-117536511D01*
X183334029Y-117050330D01*
X183019248Y-116840000D01*
X183334029Y-116629670D01*
X183658885Y-116143489D01*
X183772959Y-115570000D01*
X183658885Y-114996511D01*
X183334029Y-114510330D01*
X183019248Y-114300000D01*
X183334029Y-114089670D01*
X183658885Y-113603489D01*
X183772959Y-113030000D01*
X183658885Y-112456511D01*
X183334029Y-111970330D01*
X183019248Y-111760000D01*
X183334029Y-111549670D01*
X183658885Y-111063489D01*
X183772959Y-110490000D01*
X183658885Y-109916511D01*
X183334029Y-109430330D01*
X182847848Y-109105474D01*
X182274359Y-108991400D01*
X182215641Y-108991400D01*
X181642152Y-109105474D01*
X181155971Y-109430330D01*
X180975000Y-109701172D01*
X180794029Y-109430330D01*
X180307848Y-109105474D01*
X179734359Y-108991400D01*
X179675641Y-108991400D01*
X179102152Y-109105474D01*
X178615971Y-109430330D01*
X178291115Y-109916511D01*
X178177041Y-110490000D01*
X178291115Y-111063489D01*
X178615971Y-111549670D01*
X178930752Y-111760000D01*
X178615971Y-111970330D01*
X178291115Y-112456511D01*
X178177041Y-113030000D01*
X178291115Y-113603489D01*
X178615971Y-114089670D01*
X178939228Y-114305664D01*
X178816510Y-114363179D01*
X178422312Y-114795053D01*
X178250042Y-115210974D01*
X178371183Y-115443000D01*
X179578000Y-115443000D01*
X179578000Y-115423000D01*
X179832000Y-115423000D01*
X179832000Y-115443000D01*
X179852000Y-115443000D01*
X179852000Y-115697000D01*
X179832000Y-115697000D01*
X179832000Y-115717000D01*
X179578000Y-115717000D01*
X179578000Y-115697000D01*
X178371183Y-115697000D01*
X178250042Y-115929026D01*
X178333312Y-116130070D01*
X176984066Y-116130070D01*
X176984145Y-116039637D01*
X176858930Y-115736592D01*
X176858930Y-108204000D01*
X176838627Y-108101931D01*
X176804890Y-107932321D01*
X176650996Y-107702004D01*
X175736596Y-106787604D01*
X175506279Y-106633710D01*
X175234600Y-106579670D01*
X172547440Y-106579670D01*
X172547440Y-105910000D01*
X172503162Y-105674683D01*
X172364090Y-105458559D01*
X172294289Y-105410866D01*
X172351441Y-105374090D01*
X172496431Y-105161890D01*
X172547440Y-104910000D01*
X172547440Y-103710000D01*
X172503162Y-103474683D01*
X172364090Y-103258559D01*
X172151890Y-103113569D01*
X171900000Y-103062560D01*
X171000000Y-103062560D01*
X170764683Y-103106838D01*
X170548559Y-103245910D01*
X170403569Y-103458110D01*
X170352560Y-103710000D01*
X170352560Y-104403448D01*
X169932004Y-104824004D01*
X169778110Y-105054321D01*
X169751552Y-105187838D01*
X169724070Y-105326000D01*
X169724070Y-105778560D01*
X168465500Y-105778560D01*
X168284593Y-105812600D01*
X167379996Y-104908004D01*
X167149679Y-104754110D01*
X167008323Y-104725993D01*
X166900327Y-104617808D01*
X166556799Y-104475162D01*
X166184833Y-104474838D01*
X165841057Y-104616883D01*
X165577808Y-104879673D01*
X165435162Y-105223201D01*
X165434838Y-105595167D01*
X165576883Y-105938943D01*
X165582600Y-105944670D01*
X164676259Y-105944670D01*
X164526390Y-105842269D01*
X164475314Y-105831926D01*
X164495317Y-105828162D01*
X164711441Y-105689090D01*
X164856431Y-105476890D01*
X164907440Y-105225000D01*
X164907440Y-104325000D01*
X164863162Y-104089683D01*
X164724090Y-103873559D01*
X164511890Y-103728569D01*
X164260000Y-103677560D01*
X163060000Y-103677560D01*
X162824683Y-103721838D01*
X162608559Y-103860910D01*
X162560866Y-103930711D01*
X162524090Y-103873559D01*
X162455674Y-103826812D01*
X162398662Y-103540193D01*
X162178421Y-103210580D01*
X161754422Y-102786582D01*
X161754420Y-102786579D01*
X161719035Y-102751194D01*
X161732440Y-102685000D01*
X161732440Y-101785000D01*
X161688162Y-101549683D01*
X161549090Y-101333559D01*
X161336890Y-101188569D01*
X161085000Y-101137560D01*
X159885000Y-101137560D01*
X159649683Y-101181838D01*
X159433559Y-101320910D01*
X159385866Y-101390711D01*
X159349090Y-101333559D01*
X159136890Y-101188569D01*
X158885000Y-101137560D01*
X157685000Y-101137560D01*
X157449683Y-101181838D01*
X157233559Y-101320910D01*
X157088569Y-101533110D01*
X157037560Y-101785000D01*
X157037560Y-102685000D01*
X157081838Y-102920317D01*
X157220910Y-103136441D01*
X157355000Y-103228061D01*
X157355000Y-103422962D01*
X157254683Y-103441838D01*
X157038559Y-103580910D01*
X156893569Y-103793110D01*
X156842560Y-104045000D01*
X156842560Y-105545000D01*
X156886838Y-105780317D01*
X157025910Y-105996441D01*
X157095711Y-106044134D01*
X157038559Y-106080910D01*
X156893569Y-106293110D01*
X156842560Y-106545000D01*
X156842560Y-108045000D01*
X156886838Y-108280317D01*
X156979624Y-108424511D01*
X156884821Y-108385145D01*
X156552637Y-108384855D01*
X156245628Y-108511708D01*
X156010534Y-108746393D01*
X155884790Y-109049218D01*
X155690470Y-109243538D01*
X155658994Y-109222031D01*
X155801327Y-109079698D01*
X155898000Y-108846309D01*
X155898000Y-108405750D01*
X155739250Y-108247000D01*
X154940000Y-108247000D01*
X154940000Y-108267000D01*
X154686000Y-108267000D01*
X154686000Y-108247000D01*
X154666000Y-108247000D01*
X154666000Y-107993000D01*
X154686000Y-107993000D01*
X154686000Y-107043750D01*
X154940000Y-107043750D01*
X154940000Y-107993000D01*
X155739250Y-107993000D01*
X155898000Y-107834250D01*
X155898000Y-107393691D01*
X155801327Y-107160302D01*
X155622699Y-106981673D01*
X155389310Y-106885000D01*
X155098750Y-106885000D01*
X154940000Y-107043750D01*
X154686000Y-107043750D01*
X154527250Y-106885000D01*
X154236690Y-106885000D01*
X154003301Y-106981673D01*
X153859022Y-107125953D01*
X153822090Y-107068559D01*
X153609890Y-106923569D01*
X153536104Y-106908627D01*
X153753420Y-106763420D01*
X154388421Y-106128420D01*
X154608662Y-105798807D01*
X154662179Y-105529756D01*
X154666481Y-105523460D01*
X154717490Y-105271570D01*
X154717490Y-103470710D01*
X154673212Y-103235393D01*
X154534140Y-103019269D01*
X154384069Y-102916730D01*
X155020050Y-102916730D01*
X155255367Y-102872452D01*
X155471491Y-102733380D01*
X155616481Y-102521180D01*
X155667490Y-102269290D01*
X155667490Y-100468430D01*
X155636000Y-100301075D01*
X155636000Y-99883000D01*
X155558662Y-99494194D01*
X155405077Y-99264339D01*
X155338420Y-99164579D01*
X154896420Y-98722580D01*
X154566807Y-98502338D01*
X154502300Y-98489507D01*
X154178000Y-98425000D01*
X151892000Y-98425000D01*
X151503194Y-98502338D01*
X151503192Y-98502339D01*
X151503193Y-98502339D01*
X151173579Y-98722580D01*
X149776580Y-100119580D01*
X149684441Y-100257475D01*
X149634683Y-100266838D01*
X149418559Y-100405910D01*
X149283210Y-100604000D01*
X148570000Y-100604000D01*
X148181194Y-100681338D01*
X148181192Y-100681339D01*
X148181193Y-100681339D01*
X147851579Y-100901580D01*
X147574000Y-101179159D01*
X147574000Y-100488750D01*
X147415250Y-100330000D01*
X146558000Y-100330000D01*
X146558000Y-100350000D01*
X146304000Y-100350000D01*
X146304000Y-100330000D01*
X146284000Y-100330000D01*
X146284000Y-100076000D01*
X146304000Y-100076000D01*
X146304000Y-98710750D01*
X146558000Y-98710750D01*
X146558000Y-100076000D01*
X147415250Y-100076000D01*
X147574000Y-99917250D01*
X147574000Y-99060690D01*
X147477327Y-98827301D01*
X147298698Y-98648673D01*
X147065309Y-98552000D01*
X146716750Y-98552000D01*
X146558000Y-98710750D01*
X146304000Y-98710750D01*
X146145250Y-98552000D01*
X145796691Y-98552000D01*
X145563302Y-98648673D01*
X145384673Y-98827301D01*
X145288000Y-99060690D01*
X145288000Y-99120887D01*
X145256162Y-98951683D01*
X145117090Y-98735559D01*
X144904890Y-98590569D01*
X144653000Y-98539560D01*
X143637000Y-98539560D01*
X143401683Y-98583838D01*
X143185559Y-98722910D01*
X143040569Y-98935110D01*
X143002457Y-99123314D01*
X142970162Y-98951683D01*
X142831090Y-98735559D01*
X142618890Y-98590569D01*
X142367000Y-98539560D01*
X141351000Y-98539560D01*
X141115683Y-98583838D01*
X140899559Y-98722910D01*
X140754569Y-98935110D01*
X140703560Y-99187000D01*
X140703560Y-99921599D01*
X138751600Y-101873560D01*
X137932000Y-101873560D01*
X137696683Y-101917838D01*
X137480559Y-102056910D01*
X137343256Y-102257860D01*
X136280744Y-102257860D01*
X136258212Y-102138113D01*
X136119140Y-101921989D01*
X135906940Y-101776999D01*
X135655050Y-101725990D01*
X134854950Y-101725990D01*
X134619633Y-101770268D01*
X134403509Y-101909340D01*
X134258519Y-102121540D01*
X134207510Y-102373430D01*
X134207510Y-104174290D01*
X134251788Y-104409607D01*
X134390860Y-104625731D01*
X134540931Y-104728270D01*
X133904950Y-104728270D01*
X133669633Y-104772548D01*
X133453509Y-104911620D01*
X133308519Y-105123820D01*
X133257510Y-105375710D01*
X133257510Y-106299000D01*
X131756802Y-106299000D01*
X131725000Y-106292560D01*
X130525000Y-106292560D01*
X130289683Y-106336838D01*
X130186354Y-106403329D01*
X130184698Y-106401673D01*
X129951309Y-106305000D01*
X129510750Y-106305000D01*
X129352000Y-106463750D01*
X129352000Y-107188000D01*
X129372000Y-107188000D01*
X129372000Y-107442000D01*
X129352000Y-107442000D01*
X129352000Y-108166250D01*
X129510750Y-108325000D01*
X129951309Y-108325000D01*
X130109000Y-108259682D01*
X130109000Y-108349095D01*
X130095789Y-108340334D01*
X130048000Y-108331000D01*
X120090000Y-108331000D01*
X120090000Y-107600750D01*
X127990000Y-107600750D01*
X127990000Y-107816310D01*
X128086673Y-108049699D01*
X128265302Y-108228327D01*
X128498691Y-108325000D01*
X128939250Y-108325000D01*
X129098000Y-108166250D01*
X129098000Y-107442000D01*
X128148750Y-107442000D01*
X127990000Y-107600750D01*
X120090000Y-107600750D01*
X120090000Y-106813690D01*
X127990000Y-106813690D01*
X127990000Y-107029250D01*
X128148750Y-107188000D01*
X129098000Y-107188000D01*
X129098000Y-106463750D01*
X128939250Y-106305000D01*
X128498691Y-106305000D01*
X128265302Y-106401673D01*
X128086673Y-106580301D01*
X127990000Y-106813690D01*
X120090000Y-106813690D01*
X120090000Y-101141621D01*
X120496796Y-102126143D01*
X121389159Y-103020065D01*
X122555683Y-103504448D01*
X123818776Y-103505550D01*
X124986143Y-103023204D01*
X125880065Y-102130841D01*
X126364448Y-100964317D01*
X126365550Y-99701224D01*
X125883204Y-98533857D01*
X124990841Y-97639935D01*
X124003608Y-97230000D01*
X180798379Y-97230000D01*
X179813857Y-97636796D01*
G36*
X146191060Y-127942901D02*
X146138637Y-127942855D01*
X145831628Y-128069708D01*
X145596534Y-128304393D01*
X145470790Y-128607217D01*
X145247938Y-128830070D01*
X144981459Y-128830070D01*
X144953162Y-128679683D01*
X144814090Y-128463559D01*
X144601890Y-128318569D01*
X144350000Y-128267560D01*
X143100000Y-128267560D01*
X142864683Y-128311838D01*
X142648559Y-128450910D01*
X142503569Y-128663110D01*
X142469759Y-128830070D01*
X140248062Y-128830070D01*
X139454930Y-128036938D01*
X139454930Y-128001755D01*
X139580317Y-127978162D01*
X139796441Y-127839090D01*
X139884692Y-127709930D01*
X139952676Y-127709930D01*
X140075910Y-127901441D01*
X140288110Y-128046431D01*
X140540000Y-128097440D01*
X141740000Y-128097440D01*
X141975317Y-128053162D01*
X142191441Y-127914090D01*
X142239134Y-127844289D01*
X142275910Y-127901441D01*
X142488110Y-128046431D01*
X142740000Y-128097440D01*
X143940000Y-128097440D01*
X144175317Y-128053162D01*
X144233068Y-128016000D01*
X144653000Y-128016000D01*
X144977300Y-127951493D01*
X145041807Y-127938662D01*
X145371420Y-127718420D01*
X145669000Y-127420840D01*
X146191060Y-127942901D01*
X146191060Y-127942901D01*
G37*
X146191060Y-127942901D02*
X146138637Y-127942855D01*
X145831628Y-128069708D01*
X145596534Y-128304393D01*
X145470790Y-128607217D01*
X145247938Y-128830070D01*
X144981459Y-128830070D01*
X144953162Y-128679683D01*
X144814090Y-128463559D01*
X144601890Y-128318569D01*
X144350000Y-128267560D01*
X143100000Y-128267560D01*
X142864683Y-128311838D01*
X142648559Y-128450910D01*
X142503569Y-128663110D01*
X142469759Y-128830070D01*
X140248062Y-128830070D01*
X139454930Y-128036938D01*
X139454930Y-128001755D01*
X139580317Y-127978162D01*
X139796441Y-127839090D01*
X139884692Y-127709930D01*
X139952676Y-127709930D01*
X140075910Y-127901441D01*
X140288110Y-128046431D01*
X140540000Y-128097440D01*
X141740000Y-128097440D01*
X141975317Y-128053162D01*
X142191441Y-127914090D01*
X142239134Y-127844289D01*
X142275910Y-127901441D01*
X142488110Y-128046431D01*
X142740000Y-128097440D01*
X143940000Y-128097440D01*
X144175317Y-128053162D01*
X144233068Y-128016000D01*
X144653000Y-128016000D01*
X144977300Y-127951493D01*
X145041807Y-127938662D01*
X145371420Y-127718420D01*
X145669000Y-127420840D01*
X146191060Y-127942901D01*
G36*
X156117393Y-124786466D02*
X156424179Y-124913855D01*
X156756363Y-124914145D01*
X156758070Y-124913440D01*
X156758070Y-126955300D01*
X156420330Y-127180971D01*
X156210000Y-127495752D01*
X155999670Y-127180971D01*
X155649930Y-126947282D01*
X155649930Y-124881062D01*
X155931122Y-124599870D01*
X156117393Y-124786466D01*
X156117393Y-124786466D01*
G37*
X156117393Y-124786466D02*
X156424179Y-124913855D01*
X156756363Y-124914145D01*
X156758070Y-124913440D01*
X156758070Y-126955300D01*
X156420330Y-127180971D01*
X156210000Y-127495752D01*
X155999670Y-127180971D01*
X155649930Y-126947282D01*
X155649930Y-124881062D01*
X155931122Y-124599870D01*
X156117393Y-124786466D01*
G36*
X161800000Y-126980738D02*
X161500330Y-127180971D01*
X161290000Y-127495752D01*
X161079670Y-127180971D01*
X160729930Y-126947282D01*
X160729930Y-126492000D01*
X160675890Y-126220322D01*
X160675890Y-126220321D01*
X160521996Y-125990004D01*
X160069432Y-125537440D01*
X160470000Y-125537440D01*
X160705317Y-125493162D01*
X160921441Y-125354090D01*
X161066431Y-125141890D01*
X161082668Y-125061709D01*
X161162420Y-125008420D01*
X161800000Y-124370840D01*
X161800000Y-126980738D01*
X161800000Y-126980738D01*
G37*
X161800000Y-126980738D02*
X161500330Y-127180971D01*
X161290000Y-127495752D01*
X161079670Y-127180971D01*
X160729930Y-126947282D01*
X160729930Y-126492000D01*
X160675890Y-126220322D01*
X160675890Y-126220321D01*
X160521996Y-125990004D01*
X160069432Y-125537440D01*
X160470000Y-125537440D01*
X160705317Y-125493162D01*
X160921441Y-125354090D01*
X161066431Y-125141890D01*
X161082668Y-125061709D01*
X161162420Y-125008420D01*
X161800000Y-124370840D01*
X161800000Y-126980738D01*
G36*
X168659560Y-117313000D02*
X168703838Y-117548317D01*
X168842910Y-117764441D01*
X168911006Y-117810969D01*
X168768673Y-117953301D01*
X168672000Y-118186690D01*
X168672000Y-118627250D01*
X168830750Y-118786000D01*
X170180000Y-118786000D01*
X170180000Y-118766000D01*
X170434000Y-118766000D01*
X170434000Y-118786000D01*
X171783250Y-118786000D01*
X171942000Y-118627250D01*
X171942000Y-118186690D01*
X171845327Y-117953301D01*
X171704089Y-117812064D01*
X171758441Y-117777090D01*
X171903431Y-117564890D01*
X171954440Y-117313000D01*
X171954440Y-116443432D01*
X174123004Y-118611996D01*
X174353321Y-118765890D01*
X174625000Y-118819930D01*
X178382282Y-118819930D01*
X178615971Y-119169670D01*
X178930752Y-119380000D01*
X178615971Y-119590330D01*
X178291115Y-120076511D01*
X178177041Y-120650000D01*
X178291115Y-121223489D01*
X178615971Y-121709670D01*
X179102152Y-122034526D01*
X179675641Y-122148600D01*
X179734359Y-122148600D01*
X180307848Y-122034526D01*
X180773442Y-121723426D01*
X180778238Y-121748917D01*
X180917310Y-121965041D01*
X181052053Y-122057107D01*
X180681160Y-122428000D01*
X176911000Y-122428000D01*
X176522194Y-122505338D01*
X176447870Y-122555000D01*
X176192579Y-122725580D01*
X173950160Y-124968000D01*
X166820000Y-124968000D01*
X166820000Y-124575750D01*
X166661250Y-124417000D01*
X165862000Y-124417000D01*
X165862000Y-124437000D01*
X165608000Y-124437000D01*
X165608000Y-124417000D01*
X165588000Y-124417000D01*
X165588000Y-124163000D01*
X165608000Y-124163000D01*
X165608000Y-124143000D01*
X165862000Y-124143000D01*
X165862000Y-124163000D01*
X166661250Y-124163000D01*
X166820000Y-124004250D01*
X166820000Y-123563691D01*
X166723327Y-123330302D01*
X166582090Y-123189064D01*
X166636441Y-123154090D01*
X166781431Y-122941890D01*
X166832440Y-122690000D01*
X166832440Y-121490000D01*
X166788162Y-121254683D01*
X166649090Y-121038559D01*
X166436890Y-120893569D01*
X166185000Y-120842560D01*
X165285000Y-120842560D01*
X165049683Y-120886838D01*
X164833559Y-121025910D01*
X164783291Y-121099479D01*
X164744090Y-121038559D01*
X164531890Y-120893569D01*
X164280000Y-120842560D01*
X163380000Y-120842560D01*
X163144683Y-120886838D01*
X162928559Y-121025910D01*
X162885061Y-121089572D01*
X162885167Y-120967882D01*
X162739323Y-120614914D01*
X162699666Y-120575188D01*
X162814000Y-120597930D01*
X166243000Y-120597930D01*
X166514679Y-120543890D01*
X166744996Y-120389996D01*
X166974553Y-120160440D01*
X167607000Y-120160440D01*
X167842317Y-120116162D01*
X168058441Y-119977090D01*
X168203431Y-119764890D01*
X168254440Y-119513000D01*
X168254440Y-119198750D01*
X168672000Y-119198750D01*
X168672000Y-119639310D01*
X168768673Y-119872699D01*
X168947302Y-120051327D01*
X169180691Y-120148000D01*
X170021250Y-120148000D01*
X170180000Y-119989250D01*
X170180000Y-119040000D01*
X170434000Y-119040000D01*
X170434000Y-119989250D01*
X170592750Y-120148000D01*
X171433309Y-120148000D01*
X171666698Y-120051327D01*
X171845327Y-119872699D01*
X171942000Y-119639310D01*
X171942000Y-119198750D01*
X171783250Y-119040000D01*
X170434000Y-119040000D01*
X170180000Y-119040000D01*
X168830750Y-119040000D01*
X168672000Y-119198750D01*
X168254440Y-119198750D01*
X168254440Y-118313000D01*
X168210162Y-118077683D01*
X168071090Y-117861559D01*
X168002994Y-117815031D01*
X168145327Y-117672699D01*
X168242000Y-117439310D01*
X168242000Y-116998750D01*
X168083250Y-116840000D01*
X166734000Y-116840000D01*
X166734000Y-116860000D01*
X166480000Y-116860000D01*
X166480000Y-116840000D01*
X165130750Y-116840000D01*
X165003750Y-116967000D01*
X164399000Y-116967000D01*
X164399000Y-117691250D01*
X164500250Y-117792500D01*
X164399000Y-117893750D01*
X164399000Y-118618000D01*
X164419000Y-118618000D01*
X164419000Y-118872000D01*
X164399000Y-118872000D01*
X164399000Y-118892000D01*
X164145000Y-118892000D01*
X164145000Y-118872000D01*
X164125000Y-118872000D01*
X164125000Y-118618000D01*
X164145000Y-118618000D01*
X164145000Y-117893750D01*
X164043750Y-117792500D01*
X164145000Y-117691250D01*
X164145000Y-116967000D01*
X164125000Y-116967000D01*
X164125000Y-116713000D01*
X164145000Y-116713000D01*
X164145000Y-116693000D01*
X164399000Y-116693000D01*
X164399000Y-116713000D01*
X165348250Y-116713000D01*
X165475250Y-116586000D01*
X166480000Y-116586000D01*
X166480000Y-116566000D01*
X166734000Y-116566000D01*
X166734000Y-116586000D01*
X168083250Y-116586000D01*
X168242000Y-116427250D01*
X168242000Y-116279930D01*
X168659560Y-116279930D01*
X168659560Y-117313000D01*
X168659560Y-117313000D01*
G37*
X168659560Y-117313000D02*
X168703838Y-117548317D01*
X168842910Y-117764441D01*
X168911006Y-117810969D01*
X168768673Y-117953301D01*
X168672000Y-118186690D01*
X168672000Y-118627250D01*
X168830750Y-118786000D01*
X170180000Y-118786000D01*
X170180000Y-118766000D01*
X170434000Y-118766000D01*
X170434000Y-118786000D01*
X171783250Y-118786000D01*
X171942000Y-118627250D01*
X171942000Y-118186690D01*
X171845327Y-117953301D01*
X171704089Y-117812064D01*
X171758441Y-117777090D01*
X171903431Y-117564890D01*
X171954440Y-117313000D01*
X171954440Y-116443432D01*
X174123004Y-118611996D01*
X174353321Y-118765890D01*
X174625000Y-118819930D01*
X178382282Y-118819930D01*
X178615971Y-119169670D01*
X178930752Y-119380000D01*
X178615971Y-119590330D01*
X178291115Y-120076511D01*
X178177041Y-120650000D01*
X178291115Y-121223489D01*
X178615971Y-121709670D01*
X179102152Y-122034526D01*
X179675641Y-122148600D01*
X179734359Y-122148600D01*
X180307848Y-122034526D01*
X180773442Y-121723426D01*
X180778238Y-121748917D01*
X180917310Y-121965041D01*
X181052053Y-122057107D01*
X180681160Y-122428000D01*
X176911000Y-122428000D01*
X176522194Y-122505338D01*
X176447870Y-122555000D01*
X176192579Y-122725580D01*
X173950160Y-124968000D01*
X166820000Y-124968000D01*
X166820000Y-124575750D01*
X166661250Y-124417000D01*
X165862000Y-124417000D01*
X165862000Y-124437000D01*
X165608000Y-124437000D01*
X165608000Y-124417000D01*
X165588000Y-124417000D01*
X165588000Y-124163000D01*
X165608000Y-124163000D01*
X165608000Y-124143000D01*
X165862000Y-124143000D01*
X165862000Y-124163000D01*
X166661250Y-124163000D01*
X166820000Y-124004250D01*
X166820000Y-123563691D01*
X166723327Y-123330302D01*
X166582090Y-123189064D01*
X166636441Y-123154090D01*
X166781431Y-122941890D01*
X166832440Y-122690000D01*
X166832440Y-121490000D01*
X166788162Y-121254683D01*
X166649090Y-121038559D01*
X166436890Y-120893569D01*
X166185000Y-120842560D01*
X165285000Y-120842560D01*
X165049683Y-120886838D01*
X164833559Y-121025910D01*
X164783291Y-121099479D01*
X164744090Y-121038559D01*
X164531890Y-120893569D01*
X164280000Y-120842560D01*
X163380000Y-120842560D01*
X163144683Y-120886838D01*
X162928559Y-121025910D01*
X162885061Y-121089572D01*
X162885167Y-120967882D01*
X162739323Y-120614914D01*
X162699666Y-120575188D01*
X162814000Y-120597930D01*
X166243000Y-120597930D01*
X166514679Y-120543890D01*
X166744996Y-120389996D01*
X166974553Y-120160440D01*
X167607000Y-120160440D01*
X167842317Y-120116162D01*
X168058441Y-119977090D01*
X168203431Y-119764890D01*
X168254440Y-119513000D01*
X168254440Y-119198750D01*
X168672000Y-119198750D01*
X168672000Y-119639310D01*
X168768673Y-119872699D01*
X168947302Y-120051327D01*
X169180691Y-120148000D01*
X170021250Y-120148000D01*
X170180000Y-119989250D01*
X170180000Y-119040000D01*
X170434000Y-119040000D01*
X170434000Y-119989250D01*
X170592750Y-120148000D01*
X171433309Y-120148000D01*
X171666698Y-120051327D01*
X171845327Y-119872699D01*
X171942000Y-119639310D01*
X171942000Y-119198750D01*
X171783250Y-119040000D01*
X170434000Y-119040000D01*
X170180000Y-119040000D01*
X168830750Y-119040000D01*
X168672000Y-119198750D01*
X168254440Y-119198750D01*
X168254440Y-118313000D01*
X168210162Y-118077683D01*
X168071090Y-117861559D01*
X168002994Y-117815031D01*
X168145327Y-117672699D01*
X168242000Y-117439310D01*
X168242000Y-116998750D01*
X168083250Y-116840000D01*
X166734000Y-116840000D01*
X166734000Y-116860000D01*
X166480000Y-116860000D01*
X166480000Y-116840000D01*
X165130750Y-116840000D01*
X165003750Y-116967000D01*
X164399000Y-116967000D01*
X164399000Y-117691250D01*
X164500250Y-117792500D01*
X164399000Y-117893750D01*
X164399000Y-118618000D01*
X164419000Y-118618000D01*
X164419000Y-118872000D01*
X164399000Y-118872000D01*
X164399000Y-118892000D01*
X164145000Y-118892000D01*
X164145000Y-118872000D01*
X164125000Y-118872000D01*
X164125000Y-118618000D01*
X164145000Y-118618000D01*
X164145000Y-117893750D01*
X164043750Y-117792500D01*
X164145000Y-117691250D01*
X164145000Y-116967000D01*
X164125000Y-116967000D01*
X164125000Y-116713000D01*
X164145000Y-116713000D01*
X164145000Y-116693000D01*
X164399000Y-116693000D01*
X164399000Y-116713000D01*
X165348250Y-116713000D01*
X165475250Y-116586000D01*
X166480000Y-116586000D01*
X166480000Y-116566000D01*
X166734000Y-116566000D01*
X166734000Y-116586000D01*
X168083250Y-116586000D01*
X168242000Y-116427250D01*
X168242000Y-116279930D01*
X168659560Y-116279930D01*
X168659560Y-117313000D01*
G36*
X160788004Y-119246996D02*
X161018321Y-119400890D01*
X161063395Y-119409856D01*
X161224561Y-119441913D01*
X161252826Y-119485839D01*
X161071628Y-119560708D01*
X160836534Y-119795393D01*
X160709145Y-120102179D01*
X160708855Y-120434363D01*
X160834070Y-120737408D01*
X160834070Y-120904000D01*
X160849313Y-120980634D01*
X160721890Y-120893569D01*
X160470000Y-120842560D01*
X159570000Y-120842560D01*
X159334683Y-120886838D01*
X159118559Y-121025910D01*
X159116669Y-121028676D01*
X158677930Y-120589938D01*
X158677930Y-120107596D01*
X158911393Y-120341466D01*
X159218179Y-120468855D01*
X159550363Y-120469145D01*
X159857372Y-120342292D01*
X160092466Y-120107607D01*
X160219855Y-119800821D01*
X160220145Y-119468637D01*
X160093292Y-119161628D01*
X159858607Y-118926534D01*
X159555782Y-118800790D01*
X159240440Y-118485448D01*
X159240440Y-118346440D01*
X159468000Y-118346440D01*
X159703317Y-118302162D01*
X159731650Y-118283930D01*
X159824938Y-118283930D01*
X160788004Y-119246996D01*
X160788004Y-119246996D01*
G37*
X160788004Y-119246996D02*
X161018321Y-119400890D01*
X161063395Y-119409856D01*
X161224561Y-119441913D01*
X161252826Y-119485839D01*
X161071628Y-119560708D01*
X160836534Y-119795393D01*
X160709145Y-120102179D01*
X160708855Y-120434363D01*
X160834070Y-120737408D01*
X160834070Y-120904000D01*
X160849313Y-120980634D01*
X160721890Y-120893569D01*
X160470000Y-120842560D01*
X159570000Y-120842560D01*
X159334683Y-120886838D01*
X159118559Y-121025910D01*
X159116669Y-121028676D01*
X158677930Y-120589938D01*
X158677930Y-120107596D01*
X158911393Y-120341466D01*
X159218179Y-120468855D01*
X159550363Y-120469145D01*
X159857372Y-120342292D01*
X160092466Y-120107607D01*
X160219855Y-119800821D01*
X160220145Y-119468637D01*
X160093292Y-119161628D01*
X159858607Y-118926534D01*
X159555782Y-118800790D01*
X159240440Y-118485448D01*
X159240440Y-118346440D01*
X159468000Y-118346440D01*
X159703317Y-118302162D01*
X159731650Y-118283930D01*
X159824938Y-118283930D01*
X160788004Y-119246996D01*
G36*
X155982500Y-114834500D02*
X157453500Y-114834500D01*
X157453500Y-114814500D01*
X157707500Y-114814500D01*
X157707500Y-114834500D01*
X157727500Y-114834500D01*
X157727500Y-115088500D01*
X157707500Y-115088500D01*
X157707500Y-116559500D01*
X157727500Y-116559500D01*
X157727500Y-116813500D01*
X157707500Y-116813500D01*
X157707500Y-116833500D01*
X157453500Y-116833500D01*
X157453500Y-116813500D01*
X155982500Y-116813500D01*
X155982500Y-116833500D01*
X155728500Y-116833500D01*
X155728500Y-116813500D01*
X155708500Y-116813500D01*
X155708500Y-116559500D01*
X155728500Y-116559500D01*
X155728500Y-115088500D01*
X155982500Y-115088500D01*
X155982500Y-116559500D01*
X157453500Y-116559500D01*
X157453500Y-115088500D01*
X155982500Y-115088500D01*
X155728500Y-115088500D01*
X155708500Y-115088500D01*
X155708500Y-114834500D01*
X155728500Y-114834500D01*
X155728500Y-114814500D01*
X155982500Y-114814500D01*
X155982500Y-114834500D01*
X155982500Y-114834500D01*
G37*
X155982500Y-114834500D02*
X157453500Y-114834500D01*
X157453500Y-114814500D01*
X157707500Y-114814500D01*
X157707500Y-114834500D01*
X157727500Y-114834500D01*
X157727500Y-115088500D01*
X157707500Y-115088500D01*
X157707500Y-116559500D01*
X157727500Y-116559500D01*
X157727500Y-116813500D01*
X157707500Y-116813500D01*
X157707500Y-116833500D01*
X157453500Y-116833500D01*
X157453500Y-116813500D01*
X155982500Y-116813500D01*
X155982500Y-116833500D01*
X155728500Y-116833500D01*
X155728500Y-116813500D01*
X155708500Y-116813500D01*
X155708500Y-116559500D01*
X155728500Y-116559500D01*
X155728500Y-115088500D01*
X155982500Y-115088500D01*
X155982500Y-116559500D01*
X157453500Y-116559500D01*
X157453500Y-115088500D01*
X155982500Y-115088500D01*
X155728500Y-115088500D01*
X155708500Y-115088500D01*
X155708500Y-114834500D01*
X155728500Y-114834500D01*
X155728500Y-114814500D01*
X155982500Y-114814500D01*
X155982500Y-114834500D01*
G36*
X175439070Y-108498062D02*
X175439070Y-115737327D01*
X175314145Y-116038179D01*
X175314065Y-116130070D01*
X175046062Y-116130070D01*
X173175930Y-114259938D01*
X173175930Y-111183036D01*
X173446372Y-111071292D01*
X173681466Y-110836607D01*
X173808855Y-110529821D01*
X173809145Y-110197637D01*
X173682292Y-109890628D01*
X173447607Y-109655534D01*
X173144782Y-109529790D01*
X171614522Y-107999530D01*
X174940538Y-107999530D01*
X175439070Y-108498062D01*
X175439070Y-108498062D01*
G37*
X175439070Y-108498062D02*
X175439070Y-115737327D01*
X175314145Y-116038179D01*
X175314065Y-116130070D01*
X175046062Y-116130070D01*
X173175930Y-114259938D01*
X173175930Y-111183036D01*
X173446372Y-111071292D01*
X173681466Y-110836607D01*
X173808855Y-110529821D01*
X173809145Y-110197637D01*
X173682292Y-109890628D01*
X173447607Y-109655534D01*
X173144782Y-109529790D01*
X171614522Y-107999530D01*
X174940538Y-107999530D01*
X175439070Y-108498062D01*
G36*
X144461395Y-116027613D02*
X144404090Y-115938559D01*
X144330521Y-115888291D01*
X144391441Y-115849090D01*
X144435963Y-115783930D01*
X144705078Y-115783930D01*
X144461395Y-116027613D01*
X144461395Y-116027613D01*
G37*
X144461395Y-116027613D02*
X144404090Y-115938559D01*
X144330521Y-115888291D01*
X144391441Y-115849090D01*
X144435963Y-115783930D01*
X144705078Y-115783930D01*
X144461395Y-116027613D01*
G36*
X170740070Y-111419063D02*
X170740070Y-111470127D01*
X170615145Y-111770979D01*
X170614855Y-112103163D01*
X170740070Y-112406208D01*
X170740070Y-114935000D01*
X170794110Y-115206679D01*
X170948004Y-115436996D01*
X170976568Y-115465560D01*
X170820059Y-115465560D01*
X170808996Y-115449003D01*
X170427996Y-115068004D01*
X170197679Y-114914110D01*
X169926000Y-114860070D01*
X165670922Y-114860070D01*
X166998996Y-113531996D01*
X167379996Y-113150997D01*
X167510159Y-112956194D01*
X167533890Y-112920678D01*
X167587930Y-112649000D01*
X167587930Y-111325066D01*
X167678363Y-111325145D01*
X167858462Y-111250730D01*
X168063741Y-111250730D01*
X168213610Y-111353131D01*
X168465500Y-111404140D01*
X169862500Y-111404140D01*
X170097817Y-111359862D01*
X170313941Y-111220790D01*
X170406432Y-111085425D01*
X170740070Y-111419063D01*
X170740070Y-111419063D01*
G37*
X170740070Y-111419063D02*
X170740070Y-111470127D01*
X170615145Y-111770979D01*
X170614855Y-112103163D01*
X170740070Y-112406208D01*
X170740070Y-114935000D01*
X170794110Y-115206679D01*
X170948004Y-115436996D01*
X170976568Y-115465560D01*
X170820059Y-115465560D01*
X170808996Y-115449003D01*
X170427996Y-115068004D01*
X170197679Y-114914110D01*
X169926000Y-114860070D01*
X165670922Y-114860070D01*
X166998996Y-113531996D01*
X167379996Y-113150997D01*
X167510159Y-112956194D01*
X167533890Y-112920678D01*
X167587930Y-112649000D01*
X167587930Y-111325066D01*
X167678363Y-111325145D01*
X167858462Y-111250730D01*
X168063741Y-111250730D01*
X168213610Y-111353131D01*
X168465500Y-111404140D01*
X169862500Y-111404140D01*
X170097817Y-111359862D01*
X170313941Y-111220790D01*
X170406432Y-111085425D01*
X170740070Y-111419063D01*
G36*
X133336125Y-112074734D02*
X133323569Y-112093110D01*
X133272560Y-112345000D01*
X133272560Y-113345000D01*
X133316838Y-113580317D01*
X133455910Y-113796441D01*
X133506316Y-113830882D01*
X133327298Y-114009900D01*
X132059267Y-114009900D01*
X132159185Y-113860363D01*
X132330317Y-113828162D01*
X132546441Y-113689090D01*
X132691431Y-113476890D01*
X132742440Y-113225000D01*
X132742440Y-112237280D01*
X132912300Y-112203493D01*
X132976807Y-112190662D01*
X133295843Y-111977487D01*
X133336125Y-112074734D01*
X133336125Y-112074734D01*
G37*
X133336125Y-112074734D02*
X133323569Y-112093110D01*
X133272560Y-112345000D01*
X133272560Y-113345000D01*
X133316838Y-113580317D01*
X133455910Y-113796441D01*
X133506316Y-113830882D01*
X133327298Y-114009900D01*
X132059267Y-114009900D01*
X132159185Y-113860363D01*
X132330317Y-113828162D01*
X132546441Y-113689090D01*
X132691431Y-113476890D01*
X132742440Y-113225000D01*
X132742440Y-112237280D01*
X132912300Y-112203493D01*
X132976807Y-112190662D01*
X133295843Y-111977487D01*
X133336125Y-112074734D01*
G36*
X166168070Y-112354938D02*
X164697251Y-113825757D01*
X164789833Y-113602794D01*
X164790167Y-113220882D01*
X164644323Y-112867914D01*
X164374507Y-112597626D01*
X164021794Y-112451167D01*
X163874030Y-112451038D01*
X163015930Y-111592938D01*
X163015930Y-111391700D01*
X163290250Y-111391700D01*
X163449000Y-111232950D01*
X163449000Y-110756440D01*
X163703000Y-110756440D01*
X163703000Y-111232950D01*
X163861750Y-111391700D01*
X164400810Y-111391700D01*
X164634199Y-111295027D01*
X164812827Y-111116398D01*
X164909500Y-110883009D01*
X164909500Y-110807500D01*
X164750750Y-110648750D01*
X164608362Y-110648750D01*
X164725941Y-110573090D01*
X164870931Y-110360890D01*
X164883176Y-110300424D01*
X164909500Y-110274100D01*
X164909500Y-110198591D01*
X164905670Y-110189344D01*
X164921940Y-110109000D01*
X164921940Y-109677200D01*
X164900882Y-109565287D01*
X164921940Y-109461300D01*
X164921940Y-109294930D01*
X165100000Y-109294930D01*
X165371679Y-109240890D01*
X165601996Y-109086996D01*
X165855996Y-108832996D01*
X165913862Y-108746393D01*
X166009890Y-108602678D01*
X166063930Y-108331000D01*
X166063930Y-108054446D01*
X166146192Y-107972327D01*
X166168070Y-107919639D01*
X166168070Y-112354938D01*
X166168070Y-112354938D01*
G37*
X166168070Y-112354938D02*
X164697251Y-113825757D01*
X164789833Y-113602794D01*
X164790167Y-113220882D01*
X164644323Y-112867914D01*
X164374507Y-112597626D01*
X164021794Y-112451167D01*
X163874030Y-112451038D01*
X163015930Y-111592938D01*
X163015930Y-111391700D01*
X163290250Y-111391700D01*
X163449000Y-111232950D01*
X163449000Y-110756440D01*
X163703000Y-110756440D01*
X163703000Y-111232950D01*
X163861750Y-111391700D01*
X164400810Y-111391700D01*
X164634199Y-111295027D01*
X164812827Y-111116398D01*
X164909500Y-110883009D01*
X164909500Y-110807500D01*
X164750750Y-110648750D01*
X164608362Y-110648750D01*
X164725941Y-110573090D01*
X164870931Y-110360890D01*
X164883176Y-110300424D01*
X164909500Y-110274100D01*
X164909500Y-110198591D01*
X164905670Y-110189344D01*
X164921940Y-110109000D01*
X164921940Y-109677200D01*
X164900882Y-109565287D01*
X164921940Y-109461300D01*
X164921940Y-109294930D01*
X165100000Y-109294930D01*
X165371679Y-109240890D01*
X165601996Y-109086996D01*
X165855996Y-108832996D01*
X165913862Y-108746393D01*
X166009890Y-108602678D01*
X166063930Y-108331000D01*
X166063930Y-108054446D01*
X166146192Y-107972327D01*
X166168070Y-107919639D01*
X166168070Y-112354938D01*
G36*
X159946708Y-112283172D02*
X160181393Y-112518266D01*
X160488179Y-112645655D01*
X160820363Y-112645945D01*
X161088070Y-112535331D01*
X161088070Y-112776000D01*
X161096244Y-112817096D01*
X160821821Y-112703145D01*
X160489637Y-112702855D01*
X160462495Y-112714070D01*
X159115976Y-112714070D01*
X159057090Y-112622559D01*
X158958676Y-112555316D01*
X159096615Y-112417377D01*
X159218179Y-112467855D01*
X159550363Y-112468145D01*
X159857372Y-112341292D01*
X159937622Y-112261182D01*
X159946708Y-112283172D01*
X159946708Y-112283172D01*
G37*
X159946708Y-112283172D02*
X160181393Y-112518266D01*
X160488179Y-112645655D01*
X160820363Y-112645945D01*
X161088070Y-112535331D01*
X161088070Y-112776000D01*
X161096244Y-112817096D01*
X160821821Y-112703145D01*
X160489637Y-112702855D01*
X160462495Y-112714070D01*
X159115976Y-112714070D01*
X159057090Y-112622559D01*
X158958676Y-112555316D01*
X159096615Y-112417377D01*
X159218179Y-112467855D01*
X159550363Y-112468145D01*
X159857372Y-112341292D01*
X159937622Y-112261182D01*
X159946708Y-112283172D01*
G36*
X134747000Y-110998000D02*
X134767000Y-110998000D01*
X134767000Y-111252000D01*
X134747000Y-111252000D01*
X134747000Y-111272000D01*
X134493000Y-111272000D01*
X134493000Y-111252000D01*
X134473000Y-111252000D01*
X134473000Y-110998000D01*
X134493000Y-110998000D01*
X134493000Y-110978000D01*
X134747000Y-110978000D01*
X134747000Y-110998000D01*
X134747000Y-110998000D01*
G37*
X134747000Y-110998000D02*
X134767000Y-110998000D01*
X134767000Y-111252000D01*
X134747000Y-111252000D01*
X134747000Y-111272000D01*
X134493000Y-111272000D01*
X134493000Y-111252000D01*
X134473000Y-111252000D01*
X134473000Y-110998000D01*
X134493000Y-110998000D01*
X134493000Y-110978000D01*
X134747000Y-110978000D01*
X134747000Y-110998000D01*
G36*
X134326160Y-108585000D02*
X133477000Y-108585000D01*
X133088194Y-108662338D01*
X133020620Y-108707490D01*
X132758579Y-108882580D01*
X132722442Y-108918718D01*
X132698162Y-108789683D01*
X132559090Y-108573559D01*
X132346890Y-108428569D01*
X132305000Y-108420086D01*
X132305000Y-108331000D01*
X134072160Y-108331000D01*
X134326160Y-108585000D01*
X134326160Y-108585000D01*
G37*
X134326160Y-108585000D02*
X133477000Y-108585000D01*
X133088194Y-108662338D01*
X133020620Y-108707490D01*
X132758579Y-108882580D01*
X132722442Y-108918718D01*
X132698162Y-108789683D01*
X132559090Y-108573559D01*
X132346890Y-108428569D01*
X132305000Y-108420086D01*
X132305000Y-108331000D01*
X134072160Y-108331000D01*
X134326160Y-108585000D01*
G36*
X143033838Y-101454317D02*
X143172910Y-101670441D01*
X143196779Y-101686750D01*
X143206338Y-101734807D01*
X143426580Y-102064420D01*
X144315580Y-102953421D01*
X144645193Y-103173662D01*
X144709700Y-103186493D01*
X145034000Y-103251000D01*
X147955000Y-103251000D01*
X148279300Y-103186493D01*
X148343807Y-103173662D01*
X148673420Y-102953420D01*
X148990841Y-102636000D01*
X149286582Y-102636000D01*
X149405910Y-102821441D01*
X149475711Y-102869134D01*
X149418559Y-102905910D01*
X149273569Y-103118110D01*
X149222560Y-103370000D01*
X149222560Y-104870000D01*
X149266838Y-105105317D01*
X149405910Y-105321441D01*
X149565000Y-105430143D01*
X149565000Y-106247666D01*
X149489683Y-106261838D01*
X149273559Y-106400910D01*
X149227031Y-106469006D01*
X149084698Y-106326673D01*
X148851309Y-106230000D01*
X148410750Y-106230000D01*
X148252000Y-106388750D01*
X148252000Y-107188000D01*
X148272000Y-107188000D01*
X148272000Y-107442000D01*
X148252000Y-107442000D01*
X148252000Y-107462000D01*
X147998000Y-107462000D01*
X147998000Y-107442000D01*
X147048750Y-107442000D01*
X146890000Y-107600750D01*
X146890000Y-107891310D01*
X146914310Y-107950000D01*
X146595522Y-107950000D01*
X146621240Y-107823000D01*
X146621240Y-106738690D01*
X146890000Y-106738690D01*
X146890000Y-107029250D01*
X147048750Y-107188000D01*
X147998000Y-107188000D01*
X147998000Y-106388750D01*
X147839250Y-106230000D01*
X147398691Y-106230000D01*
X147165302Y-106326673D01*
X146986673Y-106505301D01*
X146890000Y-106738690D01*
X146621240Y-106738690D01*
X146621240Y-105791000D01*
X146576962Y-105555683D01*
X146437890Y-105339559D01*
X146225690Y-105194569D01*
X145973800Y-105143560D01*
X142316200Y-105143560D01*
X142080883Y-105187838D01*
X141864759Y-105326910D01*
X141719769Y-105539110D01*
X141668760Y-105791000D01*
X141668760Y-107823000D01*
X141692657Y-107950000D01*
X141390841Y-107950000D01*
X140926420Y-107485580D01*
X140596807Y-107265338D01*
X140532300Y-107252507D01*
X140208000Y-107188000D01*
X137250175Y-107188000D01*
X137252490Y-107176570D01*
X137252490Y-106056750D01*
X137297000Y-106056750D01*
X137297000Y-106647309D01*
X137393673Y-106880698D01*
X137572301Y-107059327D01*
X137805690Y-107156000D01*
X138271250Y-107156000D01*
X138430000Y-106997250D01*
X138430000Y-105898000D01*
X138684000Y-105898000D01*
X138684000Y-106997250D01*
X138842750Y-107156000D01*
X139308310Y-107156000D01*
X139541699Y-107059327D01*
X139720327Y-106880698D01*
X139817000Y-106647309D01*
X139817000Y-106056750D01*
X139658250Y-105898000D01*
X138684000Y-105898000D01*
X138430000Y-105898000D01*
X137455750Y-105898000D01*
X137297000Y-106056750D01*
X137252490Y-106056750D01*
X137252490Y-105375710D01*
X137208212Y-105140393D01*
X137069140Y-104924269D01*
X136856940Y-104779279D01*
X136605050Y-104728270D01*
X135966798Y-104728270D01*
X136106491Y-104638380D01*
X136251481Y-104426180D01*
X136279086Y-104289860D01*
X137350422Y-104289860D01*
X137467910Y-104472441D01*
X137536006Y-104518969D01*
X137393673Y-104661302D01*
X137297000Y-104894691D01*
X137297000Y-105485250D01*
X137455750Y-105644000D01*
X138430000Y-105644000D01*
X138430000Y-105624000D01*
X138684000Y-105624000D01*
X138684000Y-105644000D01*
X139658250Y-105644000D01*
X139817000Y-105485250D01*
X139817000Y-104894691D01*
X139720327Y-104661302D01*
X139579090Y-104520064D01*
X139633441Y-104485090D01*
X139778431Y-104272890D01*
X139829440Y-104021000D01*
X139829440Y-103669400D01*
X141632401Y-101866440D01*
X142367000Y-101866440D01*
X142602317Y-101822162D01*
X142818441Y-101683090D01*
X142963431Y-101470890D01*
X143001543Y-101282686D01*
X143033838Y-101454317D01*
X143033838Y-101454317D01*
G37*
X143033838Y-101454317D02*
X143172910Y-101670441D01*
X143196779Y-101686750D01*
X143206338Y-101734807D01*
X143426580Y-102064420D01*
X144315580Y-102953421D01*
X144645193Y-103173662D01*
X144709700Y-103186493D01*
X145034000Y-103251000D01*
X147955000Y-103251000D01*
X148279300Y-103186493D01*
X148343807Y-103173662D01*
X148673420Y-102953420D01*
X148990841Y-102636000D01*
X149286582Y-102636000D01*
X149405910Y-102821441D01*
X149475711Y-102869134D01*
X149418559Y-102905910D01*
X149273569Y-103118110D01*
X149222560Y-103370000D01*
X149222560Y-104870000D01*
X149266838Y-105105317D01*
X149405910Y-105321441D01*
X149565000Y-105430143D01*
X149565000Y-106247666D01*
X149489683Y-106261838D01*
X149273559Y-106400910D01*
X149227031Y-106469006D01*
X149084698Y-106326673D01*
X148851309Y-106230000D01*
X148410750Y-106230000D01*
X148252000Y-106388750D01*
X148252000Y-107188000D01*
X148272000Y-107188000D01*
X148272000Y-107442000D01*
X148252000Y-107442000D01*
X148252000Y-107462000D01*
X147998000Y-107462000D01*
X147998000Y-107442000D01*
X147048750Y-107442000D01*
X146890000Y-107600750D01*
X146890000Y-107891310D01*
X146914310Y-107950000D01*
X146595522Y-107950000D01*
X146621240Y-107823000D01*
X146621240Y-106738690D01*
X146890000Y-106738690D01*
X146890000Y-107029250D01*
X147048750Y-107188000D01*
X147998000Y-107188000D01*
X147998000Y-106388750D01*
X147839250Y-106230000D01*
X147398691Y-106230000D01*
X147165302Y-106326673D01*
X146986673Y-106505301D01*
X146890000Y-106738690D01*
X146621240Y-106738690D01*
X146621240Y-105791000D01*
X146576962Y-105555683D01*
X146437890Y-105339559D01*
X146225690Y-105194569D01*
X145973800Y-105143560D01*
X142316200Y-105143560D01*
X142080883Y-105187838D01*
X141864759Y-105326910D01*
X141719769Y-105539110D01*
X141668760Y-105791000D01*
X141668760Y-107823000D01*
X141692657Y-107950000D01*
X141390841Y-107950000D01*
X140926420Y-107485580D01*
X140596807Y-107265338D01*
X140532300Y-107252507D01*
X140208000Y-107188000D01*
X137250175Y-107188000D01*
X137252490Y-107176570D01*
X137252490Y-106056750D01*
X137297000Y-106056750D01*
X137297000Y-106647309D01*
X137393673Y-106880698D01*
X137572301Y-107059327D01*
X137805690Y-107156000D01*
X138271250Y-107156000D01*
X138430000Y-106997250D01*
X138430000Y-105898000D01*
X138684000Y-105898000D01*
X138684000Y-106997250D01*
X138842750Y-107156000D01*
X139308310Y-107156000D01*
X139541699Y-107059327D01*
X139720327Y-106880698D01*
X139817000Y-106647309D01*
X139817000Y-106056750D01*
X139658250Y-105898000D01*
X138684000Y-105898000D01*
X138430000Y-105898000D01*
X137455750Y-105898000D01*
X137297000Y-106056750D01*
X137252490Y-106056750D01*
X137252490Y-105375710D01*
X137208212Y-105140393D01*
X137069140Y-104924269D01*
X136856940Y-104779279D01*
X136605050Y-104728270D01*
X135966798Y-104728270D01*
X136106491Y-104638380D01*
X136251481Y-104426180D01*
X136279086Y-104289860D01*
X137350422Y-104289860D01*
X137467910Y-104472441D01*
X137536006Y-104518969D01*
X137393673Y-104661302D01*
X137297000Y-104894691D01*
X137297000Y-105485250D01*
X137455750Y-105644000D01*
X138430000Y-105644000D01*
X138430000Y-105624000D01*
X138684000Y-105624000D01*
X138684000Y-105644000D01*
X139658250Y-105644000D01*
X139817000Y-105485250D01*
X139817000Y-104894691D01*
X139720327Y-104661302D01*
X139579090Y-104520064D01*
X139633441Y-104485090D01*
X139778431Y-104272890D01*
X139829440Y-104021000D01*
X139829440Y-103669400D01*
X141632401Y-101866440D01*
X142367000Y-101866440D01*
X142602317Y-101822162D01*
X142818441Y-101683090D01*
X142963431Y-101470890D01*
X143001543Y-101282686D01*
X143033838Y-101454317D01*
G36*
X159420910Y-103136441D02*
X159558426Y-103230402D01*
X159571077Y-103293999D01*
X159589338Y-103385807D01*
X159809580Y-103715420D01*
X160247352Y-104153193D01*
X160212560Y-104325000D01*
X160212560Y-105225000D01*
X160256838Y-105460317D01*
X160395910Y-105676441D01*
X160608110Y-105821431D01*
X160860000Y-105872440D01*
X162060000Y-105872440D01*
X162295317Y-105828162D01*
X162511441Y-105689090D01*
X162559134Y-105619289D01*
X162595910Y-105676441D01*
X162788471Y-105808012D01*
X162642183Y-105835538D01*
X162426059Y-105974610D01*
X162281069Y-106186810D01*
X162230060Y-106438700D01*
X162230060Y-106579670D01*
X160426400Y-106579670D01*
X160154721Y-106633710D01*
X159924404Y-106787603D01*
X159387440Y-107324568D01*
X159387440Y-106545000D01*
X159343162Y-106309683D01*
X159204090Y-106093559D01*
X159134289Y-106045866D01*
X159191441Y-106009090D01*
X159336431Y-105796890D01*
X159387440Y-105545000D01*
X159387440Y-104045000D01*
X159343162Y-103809683D01*
X159204090Y-103593559D01*
X158991890Y-103448569D01*
X158875000Y-103424898D01*
X158875000Y-103332440D01*
X158885000Y-103332440D01*
X159120317Y-103288162D01*
X159336441Y-103149090D01*
X159384134Y-103079289D01*
X159420910Y-103136441D01*
X159420910Y-103136441D01*
G37*
X159420910Y-103136441D02*
X159558426Y-103230402D01*
X159571077Y-103293999D01*
X159589338Y-103385807D01*
X159809580Y-103715420D01*
X160247352Y-104153193D01*
X160212560Y-104325000D01*
X160212560Y-105225000D01*
X160256838Y-105460317D01*
X160395910Y-105676441D01*
X160608110Y-105821431D01*
X160860000Y-105872440D01*
X162060000Y-105872440D01*
X162295317Y-105828162D01*
X162511441Y-105689090D01*
X162559134Y-105619289D01*
X162595910Y-105676441D01*
X162788471Y-105808012D01*
X162642183Y-105835538D01*
X162426059Y-105974610D01*
X162281069Y-106186810D01*
X162230060Y-106438700D01*
X162230060Y-106579670D01*
X160426400Y-106579670D01*
X160154721Y-106633710D01*
X159924404Y-106787603D01*
X159387440Y-107324568D01*
X159387440Y-106545000D01*
X159343162Y-106309683D01*
X159204090Y-106093559D01*
X159134289Y-106045866D01*
X159191441Y-106009090D01*
X159336431Y-105796890D01*
X159387440Y-105545000D01*
X159387440Y-104045000D01*
X159343162Y-103809683D01*
X159204090Y-103593559D01*
X158991890Y-103448569D01*
X158875000Y-103424898D01*
X158875000Y-103332440D01*
X158885000Y-103332440D01*
X159120317Y-103288162D01*
X159336441Y-103149090D01*
X159384134Y-103079289D01*
X159420910Y-103136441D01*
G36*
X151855860Y-102720731D02*
X152068060Y-102865721D01*
X152319950Y-102916730D01*
X152958202Y-102916730D01*
X152818509Y-103006620D01*
X152673519Y-103218820D01*
X152622510Y-103470710D01*
X152622510Y-105020650D01*
X152614160Y-105029000D01*
X152146000Y-105029000D01*
X151757194Y-105106338D01*
X151701740Y-105143392D01*
X151716431Y-105121890D01*
X151767440Y-104870000D01*
X151767440Y-103370000D01*
X151723162Y-103134683D01*
X151584090Y-102918559D01*
X151514289Y-102870866D01*
X151571441Y-102834090D01*
X151716431Y-102621890D01*
X151734582Y-102532259D01*
X151855860Y-102720731D01*
X151855860Y-102720731D01*
G37*
X151855860Y-102720731D02*
X152068060Y-102865721D01*
X152319950Y-102916730D01*
X152958202Y-102916730D01*
X152818509Y-103006620D01*
X152673519Y-103218820D01*
X152622510Y-103470710D01*
X152622510Y-105020650D01*
X152614160Y-105029000D01*
X152146000Y-105029000D01*
X151757194Y-105106338D01*
X151701740Y-105143392D01*
X151716431Y-105121890D01*
X151767440Y-104870000D01*
X151767440Y-103370000D01*
X151723162Y-103134683D01*
X151584090Y-102918559D01*
X151514289Y-102870866D01*
X151571441Y-102834090D01*
X151716431Y-102621890D01*
X151734582Y-102532259D01*
X151855860Y-102720731D01*
M02*
