%FSLAX45Y45*%
G04 Gerber Fmt 4.5, Leading zero omitted, Abs format (unit mm)*
G04 Created by KiCad (PCBNEW 4.0.2+dfsg1-stable) date Fri 29 Jul 2016 09:24:40 AM CST*
%MOMM*%
G01*
G04 APERTURE LIST*
%ADD10C,0.127000*%
%ADD11C,0.150000*%
%ADD12C,0.200000*%
%ADD13C,0.300000*%
G04 APERTURE END LIST*
D10*
D11*
X18161000Y-13462000D02*
X17399000Y-13462000D01*
X18542000Y-13081000D02*
X18542000Y-12446000D01*
X18161000Y-13462000D02*
G75*
G03X18542000Y-13081000I0J381000D01*
G01*
X18161000Y-9652000D02*
X17399000Y-9652000D01*
X18542000Y-10033000D02*
X18542000Y-10541000D01*
X18542000Y-10033000D02*
G75*
G03X18161000Y-9652000I-381000J0D01*
G01*
X11938000Y-10033000D02*
X11938000Y-10160000D01*
X12319000Y-9652000D02*
X12700000Y-9652000D01*
X12319000Y-9652000D02*
G75*
G03X11938000Y-10033000I0J-381000D01*
G01*
X11938000Y-13081000D02*
X11938000Y-12954000D01*
X12573000Y-13462000D02*
X12319000Y-13462000D01*
X11938000Y-13081000D02*
G75*
G03X12319000Y-13462000I381000J0D01*
G01*
X13208000Y-13462000D02*
X12573000Y-13462000D01*
X13208000Y-13462000D02*
X17399000Y-13462000D01*
X18542000Y-10541000D02*
X18542000Y-12446000D01*
X14224000Y-9652000D02*
X17399000Y-9652000D01*
X14224000Y-9652000D02*
X12700000Y-9652000D01*
X11938000Y-10160000D02*
X11938000Y-12954000D01*
D12*
X12486132Y-11292078D02*
X12576048Y-11381994D01*
X12576048Y-11292078D02*
X12486132Y-11381994D01*
X12486132Y-11732006D02*
X12576048Y-11821922D01*
X12576048Y-11732006D02*
X12486132Y-11821922D01*
X12446000Y-10033000D02*
G75*
G03X12446000Y-10033000I-127000J0D01*
G01*
X12446000Y-13081000D02*
G75*
G03X12446000Y-13081000I-127000J0D01*
G01*
X18288000Y-10033000D02*
G75*
G03X18288000Y-10033000I-127000J0D01*
G01*
X18288000Y-13081000D02*
G75*
G03X18288000Y-13081000I-127000J0D01*
G01*
D13*
X12201928Y-13935214D02*
X12201928Y-13635214D01*
X12273357Y-13635214D01*
X12316214Y-13649500D01*
X12344786Y-13678071D01*
X12359071Y-13706643D01*
X12373357Y-13763786D01*
X12373357Y-13806643D01*
X12359071Y-13863786D01*
X12344786Y-13892357D01*
X12316214Y-13920929D01*
X12273357Y-13935214D01*
X12201928Y-13935214D01*
X12501928Y-13935214D02*
X12501928Y-13735214D01*
X12501928Y-13792357D02*
X12516214Y-13763786D01*
X12530500Y-13749500D01*
X12559071Y-13735214D01*
X12587643Y-13735214D01*
X12687643Y-13935214D02*
X12687643Y-13735214D01*
X12687643Y-13635214D02*
X12673357Y-13649500D01*
X12687643Y-13663786D01*
X12701928Y-13649500D01*
X12687643Y-13635214D01*
X12687643Y-13663786D01*
X12873357Y-13935214D02*
X12844786Y-13920929D01*
X12830500Y-13892357D01*
X12830500Y-13635214D01*
X13030500Y-13935214D02*
X13001928Y-13920929D01*
X12987643Y-13892357D01*
X12987643Y-13635214D01*
X13373357Y-13935214D02*
X13373357Y-13635214D01*
X13473357Y-13849500D01*
X13573357Y-13635214D01*
X13573357Y-13935214D01*
X13844786Y-13935214D02*
X13844786Y-13778071D01*
X13830500Y-13749500D01*
X13801928Y-13735214D01*
X13744786Y-13735214D01*
X13716214Y-13749500D01*
X13844786Y-13920929D02*
X13816214Y-13935214D01*
X13744786Y-13935214D01*
X13716214Y-13920929D01*
X13701928Y-13892357D01*
X13701928Y-13863786D01*
X13716214Y-13835214D01*
X13744786Y-13820929D01*
X13816214Y-13820929D01*
X13844786Y-13806643D01*
X13987643Y-13735214D02*
X13987643Y-14035214D01*
X13987643Y-13749500D02*
X14016214Y-13735214D01*
X14073357Y-13735214D01*
X14101928Y-13749500D01*
X14116214Y-13763786D01*
X14130500Y-13792357D01*
X14130500Y-13878071D01*
X14116214Y-13906643D01*
X14101928Y-13920929D01*
X14073357Y-13935214D01*
X14016214Y-13935214D01*
X13987643Y-13920929D01*
X14259071Y-13906643D02*
X14273357Y-13920929D01*
X14259071Y-13935214D01*
X14244786Y-13920929D01*
X14259071Y-13906643D01*
X14259071Y-13935214D01*
X14259071Y-13749500D02*
X14273357Y-13763786D01*
X14259071Y-13778071D01*
X14244786Y-13763786D01*
X14259071Y-13749500D01*
X14259071Y-13778071D01*
X11840584Y-14384542D02*
X11930500Y-14474458D01*
X11930500Y-14384542D02*
X11840584Y-14474458D01*
X12259071Y-14265214D02*
X12287643Y-14265214D01*
X12316214Y-14279500D01*
X12330500Y-14293786D01*
X12344786Y-14322357D01*
X12359071Y-14379500D01*
X12359071Y-14450929D01*
X12344786Y-14508071D01*
X12330500Y-14536643D01*
X12316214Y-14550929D01*
X12287643Y-14565214D01*
X12259071Y-14565214D01*
X12230500Y-14550929D01*
X12216214Y-14536643D01*
X12201928Y-14508071D01*
X12187643Y-14450929D01*
X12187643Y-14379500D01*
X12201928Y-14322357D01*
X12216214Y-14293786D01*
X12230500Y-14279500D01*
X12259071Y-14265214D01*
X12487643Y-14536643D02*
X12501928Y-14550929D01*
X12487643Y-14565214D01*
X12473357Y-14550929D01*
X12487643Y-14536643D01*
X12487643Y-14565214D01*
X12644786Y-14565214D02*
X12701928Y-14565214D01*
X12730500Y-14550929D01*
X12744786Y-14536643D01*
X12773357Y-14493786D01*
X12787643Y-14436643D01*
X12787643Y-14322357D01*
X12773357Y-14293786D01*
X12759071Y-14279500D01*
X12730500Y-14265214D01*
X12673357Y-14265214D01*
X12644786Y-14279500D01*
X12630500Y-14293786D01*
X12616214Y-14322357D01*
X12616214Y-14393786D01*
X12630500Y-14422357D01*
X12644786Y-14436643D01*
X12673357Y-14450929D01*
X12730500Y-14450929D01*
X12759071Y-14436643D01*
X12773357Y-14422357D01*
X12787643Y-14393786D01*
X12973357Y-14265214D02*
X13001928Y-14265214D01*
X13030500Y-14279500D01*
X13044786Y-14293786D01*
X13059071Y-14322357D01*
X13073357Y-14379500D01*
X13073357Y-14450929D01*
X13059071Y-14508071D01*
X13044786Y-14536643D01*
X13030500Y-14550929D01*
X13001928Y-14565214D01*
X12973357Y-14565214D01*
X12944786Y-14550929D01*
X12930500Y-14536643D01*
X12916214Y-14508071D01*
X12901928Y-14450929D01*
X12901928Y-14379500D01*
X12916214Y-14322357D01*
X12930500Y-14293786D01*
X12944786Y-14279500D01*
X12973357Y-14265214D01*
X13201928Y-14565214D02*
X13201928Y-14365214D01*
X13201928Y-14393786D02*
X13216214Y-14379500D01*
X13244786Y-14365214D01*
X13287643Y-14365214D01*
X13316214Y-14379500D01*
X13330500Y-14408071D01*
X13330500Y-14565214D01*
X13330500Y-14408071D02*
X13344786Y-14379500D01*
X13373357Y-14365214D01*
X13416214Y-14365214D01*
X13444786Y-14379500D01*
X13459071Y-14408071D01*
X13459071Y-14565214D01*
X13601928Y-14565214D02*
X13601928Y-14365214D01*
X13601928Y-14393786D02*
X13616214Y-14379500D01*
X13644786Y-14365214D01*
X13687643Y-14365214D01*
X13716214Y-14379500D01*
X13730500Y-14408071D01*
X13730500Y-14565214D01*
X13730500Y-14408071D02*
X13744786Y-14379500D01*
X13773357Y-14365214D01*
X13816214Y-14365214D01*
X13844786Y-14379500D01*
X13859071Y-14408071D01*
X13859071Y-14565214D01*
X14444786Y-14250929D02*
X14187643Y-14636643D01*
X14830500Y-14265214D02*
X14859071Y-14265214D01*
X14887643Y-14279500D01*
X14901928Y-14293786D01*
X14916214Y-14322357D01*
X14930500Y-14379500D01*
X14930500Y-14450929D01*
X14916214Y-14508071D01*
X14901928Y-14536643D01*
X14887643Y-14550929D01*
X14859071Y-14565214D01*
X14830500Y-14565214D01*
X14801928Y-14550929D01*
X14787643Y-14536643D01*
X14773357Y-14508071D01*
X14759071Y-14450929D01*
X14759071Y-14379500D01*
X14773357Y-14322357D01*
X14787643Y-14293786D01*
X14801928Y-14279500D01*
X14830500Y-14265214D01*
X15059071Y-14536643D02*
X15073357Y-14550929D01*
X15059071Y-14565214D01*
X15044786Y-14550929D01*
X15059071Y-14536643D01*
X15059071Y-14565214D01*
X15259071Y-14265214D02*
X15287643Y-14265214D01*
X15316214Y-14279500D01*
X15330500Y-14293786D01*
X15344785Y-14322357D01*
X15359071Y-14379500D01*
X15359071Y-14450929D01*
X15344785Y-14508071D01*
X15330500Y-14536643D01*
X15316214Y-14550929D01*
X15287643Y-14565214D01*
X15259071Y-14565214D01*
X15230500Y-14550929D01*
X15216214Y-14536643D01*
X15201928Y-14508071D01*
X15187643Y-14450929D01*
X15187643Y-14379500D01*
X15201928Y-14322357D01*
X15216214Y-14293786D01*
X15230500Y-14279500D01*
X15259071Y-14265214D01*
X15459071Y-14265214D02*
X15644785Y-14265214D01*
X15544785Y-14379500D01*
X15587643Y-14379500D01*
X15616214Y-14393786D01*
X15630500Y-14408071D01*
X15644785Y-14436643D01*
X15644785Y-14508071D01*
X15630500Y-14536643D01*
X15616214Y-14550929D01*
X15587643Y-14565214D01*
X15501928Y-14565214D01*
X15473357Y-14550929D01*
X15459071Y-14536643D01*
X15916214Y-14265214D02*
X15773357Y-14265214D01*
X15759071Y-14408071D01*
X15773357Y-14393786D01*
X15801928Y-14379500D01*
X15873357Y-14379500D01*
X15901928Y-14393786D01*
X15916214Y-14408071D01*
X15930500Y-14436643D01*
X15930500Y-14508071D01*
X15916214Y-14536643D01*
X15901928Y-14550929D01*
X15873357Y-14565214D01*
X15801928Y-14565214D01*
X15773357Y-14550929D01*
X15759071Y-14536643D01*
X16044786Y-14265214D02*
X16044786Y-14322357D01*
X16159071Y-14265214D02*
X16159071Y-14322357D01*
X16601928Y-14679500D02*
X16587643Y-14665214D01*
X16559071Y-14622357D01*
X16544785Y-14593786D01*
X16530500Y-14550929D01*
X16516214Y-14479500D01*
X16516214Y-14422357D01*
X16530500Y-14350929D01*
X16544785Y-14308071D01*
X16559071Y-14279500D01*
X16587643Y-14236643D01*
X16601928Y-14222357D01*
X16701928Y-14293786D02*
X16716214Y-14279500D01*
X16744785Y-14265214D01*
X16816214Y-14265214D01*
X16844786Y-14279500D01*
X16859071Y-14293786D01*
X16873357Y-14322357D01*
X16873357Y-14350929D01*
X16859071Y-14393786D01*
X16687643Y-14565214D01*
X16873357Y-14565214D01*
X17230500Y-14565214D02*
X17230500Y-14265214D01*
X17359071Y-14565214D02*
X17359071Y-14408071D01*
X17344786Y-14379500D01*
X17316214Y-14365214D01*
X17273357Y-14365214D01*
X17244786Y-14379500D01*
X17230500Y-14393786D01*
X17544786Y-14565214D02*
X17516214Y-14550929D01*
X17501928Y-14536643D01*
X17487643Y-14508071D01*
X17487643Y-14422357D01*
X17501928Y-14393786D01*
X17516214Y-14379500D01*
X17544786Y-14365214D01*
X17587643Y-14365214D01*
X17616214Y-14379500D01*
X17630500Y-14393786D01*
X17644786Y-14422357D01*
X17644786Y-14508071D01*
X17630500Y-14536643D01*
X17616214Y-14550929D01*
X17587643Y-14565214D01*
X17544786Y-14565214D01*
X17816214Y-14565214D02*
X17787643Y-14550929D01*
X17773357Y-14522357D01*
X17773357Y-14265214D01*
X18044786Y-14550929D02*
X18016214Y-14565214D01*
X17959071Y-14565214D01*
X17930500Y-14550929D01*
X17916214Y-14522357D01*
X17916214Y-14408071D01*
X17930500Y-14379500D01*
X17959071Y-14365214D01*
X18016214Y-14365214D01*
X18044786Y-14379500D01*
X18059071Y-14408071D01*
X18059071Y-14436643D01*
X17916214Y-14465214D01*
X18173357Y-14550929D02*
X18201929Y-14565214D01*
X18259071Y-14565214D01*
X18287643Y-14550929D01*
X18301929Y-14522357D01*
X18301929Y-14508071D01*
X18287643Y-14479500D01*
X18259071Y-14465214D01*
X18216214Y-14465214D01*
X18187643Y-14450929D01*
X18173357Y-14422357D01*
X18173357Y-14408071D01*
X18187643Y-14379500D01*
X18216214Y-14365214D01*
X18259071Y-14365214D01*
X18287643Y-14379500D01*
X18401928Y-14679500D02*
X18416214Y-14665214D01*
X18444786Y-14622357D01*
X18459071Y-14593786D01*
X18473357Y-14550929D01*
X18487643Y-14479500D01*
X18487643Y-14422357D01*
X18473357Y-14350929D01*
X18459071Y-14308071D01*
X18444786Y-14279500D01*
X18416214Y-14236643D01*
X18401928Y-14222357D01*
X18944786Y-14679500D02*
X18930500Y-14665214D01*
X18901928Y-14622357D01*
X18887643Y-14593786D01*
X18873357Y-14550929D01*
X18859071Y-14479500D01*
X18859071Y-14422357D01*
X18873357Y-14350929D01*
X18887643Y-14308071D01*
X18901928Y-14279500D01*
X18930500Y-14236643D01*
X18944786Y-14222357D01*
X19059071Y-14365214D02*
X19059071Y-14565214D01*
X19059071Y-14393786D02*
X19073357Y-14379500D01*
X19101928Y-14365214D01*
X19144786Y-14365214D01*
X19173357Y-14379500D01*
X19187643Y-14408071D01*
X19187643Y-14565214D01*
X19373357Y-14565214D02*
X19344786Y-14550929D01*
X19330500Y-14536643D01*
X19316214Y-14508071D01*
X19316214Y-14422357D01*
X19330500Y-14393786D01*
X19344786Y-14379500D01*
X19373357Y-14365214D01*
X19416214Y-14365214D01*
X19444786Y-14379500D01*
X19459071Y-14393786D01*
X19473357Y-14422357D01*
X19473357Y-14508071D01*
X19459071Y-14536643D01*
X19444786Y-14550929D01*
X19416214Y-14565214D01*
X19373357Y-14565214D01*
X19559071Y-14365214D02*
X19673357Y-14365214D01*
X19601929Y-14265214D02*
X19601929Y-14522357D01*
X19616214Y-14550929D01*
X19644786Y-14565214D01*
X19673357Y-14565214D01*
X20001929Y-14365214D02*
X20001929Y-14665214D01*
X20001929Y-14379500D02*
X20030500Y-14365214D01*
X20087643Y-14365214D01*
X20116214Y-14379500D01*
X20130500Y-14393786D01*
X20144786Y-14422357D01*
X20144786Y-14508071D01*
X20130500Y-14536643D01*
X20116214Y-14550929D01*
X20087643Y-14565214D01*
X20030500Y-14565214D01*
X20001929Y-14550929D01*
X20316214Y-14565214D02*
X20287643Y-14550929D01*
X20273357Y-14522357D01*
X20273357Y-14265214D01*
X20559071Y-14565214D02*
X20559071Y-14408071D01*
X20544786Y-14379500D01*
X20516214Y-14365214D01*
X20459071Y-14365214D01*
X20430500Y-14379500D01*
X20559071Y-14550929D02*
X20530500Y-14565214D01*
X20459071Y-14565214D01*
X20430500Y-14550929D01*
X20416214Y-14522357D01*
X20416214Y-14493786D01*
X20430500Y-14465214D01*
X20459071Y-14450929D01*
X20530500Y-14450929D01*
X20559071Y-14436643D01*
X20659071Y-14365214D02*
X20773357Y-14365214D01*
X20701929Y-14265214D02*
X20701929Y-14522357D01*
X20716214Y-14550929D01*
X20744786Y-14565214D01*
X20773357Y-14565214D01*
X20987643Y-14550929D02*
X20959072Y-14565214D01*
X20901929Y-14565214D01*
X20873357Y-14550929D01*
X20859072Y-14522357D01*
X20859072Y-14408071D01*
X20873357Y-14379500D01*
X20901929Y-14365214D01*
X20959072Y-14365214D01*
X20987643Y-14379500D01*
X21001929Y-14408071D01*
X21001929Y-14436643D01*
X20859072Y-14465214D01*
X21259072Y-14565214D02*
X21259072Y-14265214D01*
X21259072Y-14550929D02*
X21230500Y-14565214D01*
X21173357Y-14565214D01*
X21144786Y-14550929D01*
X21130500Y-14536643D01*
X21116214Y-14508071D01*
X21116214Y-14422357D01*
X21130500Y-14393786D01*
X21144786Y-14379500D01*
X21173357Y-14365214D01*
X21230500Y-14365214D01*
X21259072Y-14379500D01*
X21373357Y-14679500D02*
X21387643Y-14665214D01*
X21416214Y-14622357D01*
X21430500Y-14593786D01*
X21444786Y-14550929D01*
X21459072Y-14479500D01*
X21459072Y-14422357D01*
X21444786Y-14350929D01*
X21430500Y-14308071D01*
X21416214Y-14279500D01*
X21387643Y-14236643D01*
X21373357Y-14222357D01*
X11930500Y-14825500D02*
G75*
G03X11930500Y-14825500I-127000J0D01*
G01*
X12187643Y-14689786D02*
X12201928Y-14675500D01*
X12230500Y-14661214D01*
X12301928Y-14661214D01*
X12330500Y-14675500D01*
X12344786Y-14689786D01*
X12359071Y-14718357D01*
X12359071Y-14746929D01*
X12344786Y-14789786D01*
X12173357Y-14961214D01*
X12359071Y-14961214D01*
X12487643Y-14932643D02*
X12501928Y-14946929D01*
X12487643Y-14961214D01*
X12473357Y-14946929D01*
X12487643Y-14932643D01*
X12487643Y-14961214D01*
X12773357Y-14661214D02*
X12630500Y-14661214D01*
X12616214Y-14804071D01*
X12630500Y-14789786D01*
X12659071Y-14775500D01*
X12730500Y-14775500D01*
X12759071Y-14789786D01*
X12773357Y-14804071D01*
X12787643Y-14832643D01*
X12787643Y-14904071D01*
X12773357Y-14932643D01*
X12759071Y-14946929D01*
X12730500Y-14961214D01*
X12659071Y-14961214D01*
X12630500Y-14946929D01*
X12616214Y-14932643D01*
X13044786Y-14761214D02*
X13044786Y-14961214D01*
X12973357Y-14646929D02*
X12901928Y-14861214D01*
X13087643Y-14861214D01*
X13201928Y-14961214D02*
X13201928Y-14761214D01*
X13201928Y-14789786D02*
X13216214Y-14775500D01*
X13244786Y-14761214D01*
X13287643Y-14761214D01*
X13316214Y-14775500D01*
X13330500Y-14804071D01*
X13330500Y-14961214D01*
X13330500Y-14804071D02*
X13344786Y-14775500D01*
X13373357Y-14761214D01*
X13416214Y-14761214D01*
X13444786Y-14775500D01*
X13459071Y-14804071D01*
X13459071Y-14961214D01*
X13601928Y-14961214D02*
X13601928Y-14761214D01*
X13601928Y-14789786D02*
X13616214Y-14775500D01*
X13644786Y-14761214D01*
X13687643Y-14761214D01*
X13716214Y-14775500D01*
X13730500Y-14804071D01*
X13730500Y-14961214D01*
X13730500Y-14804071D02*
X13744786Y-14775500D01*
X13773357Y-14761214D01*
X13816214Y-14761214D01*
X13844786Y-14775500D01*
X13859071Y-14804071D01*
X13859071Y-14961214D01*
X14444786Y-14646929D02*
X14187643Y-15032643D01*
X14830500Y-14661214D02*
X14859071Y-14661214D01*
X14887643Y-14675500D01*
X14901928Y-14689786D01*
X14916214Y-14718357D01*
X14930500Y-14775500D01*
X14930500Y-14846929D01*
X14916214Y-14904071D01*
X14901928Y-14932643D01*
X14887643Y-14946929D01*
X14859071Y-14961214D01*
X14830500Y-14961214D01*
X14801928Y-14946929D01*
X14787643Y-14932643D01*
X14773357Y-14904071D01*
X14759071Y-14846929D01*
X14759071Y-14775500D01*
X14773357Y-14718357D01*
X14787643Y-14689786D01*
X14801928Y-14675500D01*
X14830500Y-14661214D01*
X15059071Y-14932643D02*
X15073357Y-14946929D01*
X15059071Y-14961214D01*
X15044786Y-14946929D01*
X15059071Y-14932643D01*
X15059071Y-14961214D01*
X15359071Y-14961214D02*
X15187643Y-14961214D01*
X15273357Y-14961214D02*
X15273357Y-14661214D01*
X15244785Y-14704071D01*
X15216214Y-14732643D01*
X15187643Y-14746929D01*
X15544785Y-14661214D02*
X15573357Y-14661214D01*
X15601928Y-14675500D01*
X15616214Y-14689786D01*
X15630500Y-14718357D01*
X15644785Y-14775500D01*
X15644785Y-14846929D01*
X15630500Y-14904071D01*
X15616214Y-14932643D01*
X15601928Y-14946929D01*
X15573357Y-14961214D01*
X15544785Y-14961214D01*
X15516214Y-14946929D01*
X15501928Y-14932643D01*
X15487643Y-14904071D01*
X15473357Y-14846929D01*
X15473357Y-14775500D01*
X15487643Y-14718357D01*
X15501928Y-14689786D01*
X15516214Y-14675500D01*
X15544785Y-14661214D01*
X15830500Y-14661214D02*
X15859071Y-14661214D01*
X15887643Y-14675500D01*
X15901928Y-14689786D01*
X15916214Y-14718357D01*
X15930500Y-14775500D01*
X15930500Y-14846929D01*
X15916214Y-14904071D01*
X15901928Y-14932643D01*
X15887643Y-14946929D01*
X15859071Y-14961214D01*
X15830500Y-14961214D01*
X15801928Y-14946929D01*
X15787643Y-14932643D01*
X15773357Y-14904071D01*
X15759071Y-14846929D01*
X15759071Y-14775500D01*
X15773357Y-14718357D01*
X15787643Y-14689786D01*
X15801928Y-14675500D01*
X15830500Y-14661214D01*
X16044786Y-14661214D02*
X16044786Y-14718357D01*
X16159071Y-14661214D02*
X16159071Y-14718357D01*
X16601928Y-15075500D02*
X16587643Y-15061214D01*
X16559071Y-15018357D01*
X16544785Y-14989786D01*
X16530500Y-14946929D01*
X16516214Y-14875500D01*
X16516214Y-14818357D01*
X16530500Y-14746929D01*
X16544785Y-14704071D01*
X16559071Y-14675500D01*
X16587643Y-14632643D01*
X16601928Y-14618357D01*
X16844786Y-14761214D02*
X16844786Y-14961214D01*
X16773357Y-14646929D02*
X16701928Y-14861214D01*
X16887643Y-14861214D01*
X17230500Y-14961214D02*
X17230500Y-14661214D01*
X17359071Y-14961214D02*
X17359071Y-14804071D01*
X17344786Y-14775500D01*
X17316214Y-14761214D01*
X17273357Y-14761214D01*
X17244786Y-14775500D01*
X17230500Y-14789786D01*
X17544786Y-14961214D02*
X17516214Y-14946929D01*
X17501928Y-14932643D01*
X17487643Y-14904071D01*
X17487643Y-14818357D01*
X17501928Y-14789786D01*
X17516214Y-14775500D01*
X17544786Y-14761214D01*
X17587643Y-14761214D01*
X17616214Y-14775500D01*
X17630500Y-14789786D01*
X17644786Y-14818357D01*
X17644786Y-14904071D01*
X17630500Y-14932643D01*
X17616214Y-14946929D01*
X17587643Y-14961214D01*
X17544786Y-14961214D01*
X17816214Y-14961214D02*
X17787643Y-14946929D01*
X17773357Y-14918357D01*
X17773357Y-14661214D01*
X18044786Y-14946929D02*
X18016214Y-14961214D01*
X17959071Y-14961214D01*
X17930500Y-14946929D01*
X17916214Y-14918357D01*
X17916214Y-14804071D01*
X17930500Y-14775500D01*
X17959071Y-14761214D01*
X18016214Y-14761214D01*
X18044786Y-14775500D01*
X18059071Y-14804071D01*
X18059071Y-14832643D01*
X17916214Y-14861214D01*
X18173357Y-14946929D02*
X18201929Y-14961214D01*
X18259071Y-14961214D01*
X18287643Y-14946929D01*
X18301929Y-14918357D01*
X18301929Y-14904071D01*
X18287643Y-14875500D01*
X18259071Y-14861214D01*
X18216214Y-14861214D01*
X18187643Y-14846929D01*
X18173357Y-14818357D01*
X18173357Y-14804071D01*
X18187643Y-14775500D01*
X18216214Y-14761214D01*
X18259071Y-14761214D01*
X18287643Y-14775500D01*
X18401928Y-15075500D02*
X18416214Y-15061214D01*
X18444786Y-15018357D01*
X18459071Y-14989786D01*
X18473357Y-14946929D01*
X18487643Y-14875500D01*
X18487643Y-14818357D01*
X18473357Y-14746929D01*
X18459071Y-14704071D01*
X18444786Y-14675500D01*
X18416214Y-14632643D01*
X18401928Y-14618357D01*
X18944786Y-15075500D02*
X18930500Y-15061214D01*
X18901928Y-15018357D01*
X18887643Y-14989786D01*
X18873357Y-14946929D01*
X18859071Y-14875500D01*
X18859071Y-14818357D01*
X18873357Y-14746929D01*
X18887643Y-14704071D01*
X18901928Y-14675500D01*
X18930500Y-14632643D01*
X18944786Y-14618357D01*
X19059071Y-14761214D02*
X19059071Y-14961214D01*
X19059071Y-14789786D02*
X19073357Y-14775500D01*
X19101928Y-14761214D01*
X19144786Y-14761214D01*
X19173357Y-14775500D01*
X19187643Y-14804071D01*
X19187643Y-14961214D01*
X19373357Y-14961214D02*
X19344786Y-14946929D01*
X19330500Y-14932643D01*
X19316214Y-14904071D01*
X19316214Y-14818357D01*
X19330500Y-14789786D01*
X19344786Y-14775500D01*
X19373357Y-14761214D01*
X19416214Y-14761214D01*
X19444786Y-14775500D01*
X19459071Y-14789786D01*
X19473357Y-14818357D01*
X19473357Y-14904071D01*
X19459071Y-14932643D01*
X19444786Y-14946929D01*
X19416214Y-14961214D01*
X19373357Y-14961214D01*
X19559071Y-14761214D02*
X19673357Y-14761214D01*
X19601929Y-14661214D02*
X19601929Y-14918357D01*
X19616214Y-14946929D01*
X19644786Y-14961214D01*
X19673357Y-14961214D01*
X20001929Y-14761214D02*
X20001929Y-15061214D01*
X20001929Y-14775500D02*
X20030500Y-14761214D01*
X20087643Y-14761214D01*
X20116214Y-14775500D01*
X20130500Y-14789786D01*
X20144786Y-14818357D01*
X20144786Y-14904071D01*
X20130500Y-14932643D01*
X20116214Y-14946929D01*
X20087643Y-14961214D01*
X20030500Y-14961214D01*
X20001929Y-14946929D01*
X20316214Y-14961214D02*
X20287643Y-14946929D01*
X20273357Y-14918357D01*
X20273357Y-14661214D01*
X20559071Y-14961214D02*
X20559071Y-14804071D01*
X20544786Y-14775500D01*
X20516214Y-14761214D01*
X20459071Y-14761214D01*
X20430500Y-14775500D01*
X20559071Y-14946929D02*
X20530500Y-14961214D01*
X20459071Y-14961214D01*
X20430500Y-14946929D01*
X20416214Y-14918357D01*
X20416214Y-14889786D01*
X20430500Y-14861214D01*
X20459071Y-14846929D01*
X20530500Y-14846929D01*
X20559071Y-14832643D01*
X20659071Y-14761214D02*
X20773357Y-14761214D01*
X20701929Y-14661214D02*
X20701929Y-14918357D01*
X20716214Y-14946929D01*
X20744786Y-14961214D01*
X20773357Y-14961214D01*
X20987643Y-14946929D02*
X20959072Y-14961214D01*
X20901929Y-14961214D01*
X20873357Y-14946929D01*
X20859072Y-14918357D01*
X20859072Y-14804071D01*
X20873357Y-14775500D01*
X20901929Y-14761214D01*
X20959072Y-14761214D01*
X20987643Y-14775500D01*
X21001929Y-14804071D01*
X21001929Y-14832643D01*
X20859072Y-14861214D01*
X21259072Y-14961214D02*
X21259072Y-14661214D01*
X21259072Y-14946929D02*
X21230500Y-14961214D01*
X21173357Y-14961214D01*
X21144786Y-14946929D01*
X21130500Y-14932643D01*
X21116214Y-14904071D01*
X21116214Y-14818357D01*
X21130500Y-14789786D01*
X21144786Y-14775500D01*
X21173357Y-14761214D01*
X21230500Y-14761214D01*
X21259072Y-14775500D01*
X21373357Y-15075500D02*
X21387643Y-15061214D01*
X21416214Y-15018357D01*
X21430500Y-14989786D01*
X21444786Y-14946929D01*
X21459072Y-14875500D01*
X21459072Y-14818357D01*
X21444786Y-14746929D01*
X21430500Y-14704071D01*
X21416214Y-14675500D01*
X21387643Y-14632643D01*
X21373357Y-14618357D01*
M02*
