G04 #@! TF.FileFunction,Copper,L2,Bot,Signal*
%FSLAX46Y46*%
G04 Gerber Fmt 4.6, Leading zero omitted, Abs format (unit mm)*
G04 Created by KiCad (PCBNEW 4.0.2+dfsg1-stable) date Fri 29 Jul 2016 09:24:32 AM CST*
%MOMM*%
G01*
G04 APERTURE LIST*
%ADD10C,0.100000*%
%ADD11R,1.727200X1.727200*%
%ADD12O,1.727200X1.727200*%
%ADD13C,5.080000*%
%ADD14C,0.600000*%
%ADD15C,0.400000*%
%ADD16C,0.127000*%
%ADD17C,0.762000*%
%ADD18C,0.149860*%
%ADD19C,0.450000*%
%ADD20C,0.250000*%
%ADD21C,0.254000*%
G04 APERTURE END LIST*
D10*
D11*
X182245000Y-120650000D03*
D12*
X179705000Y-120650000D03*
X182245000Y-118110000D03*
X179705000Y-118110000D03*
X182245000Y-115570000D03*
X179705000Y-115570000D03*
X182245000Y-113030000D03*
X179705000Y-113030000D03*
X182245000Y-110490000D03*
X179705000Y-110490000D03*
D11*
X152400000Y-130810000D03*
D12*
X152400000Y-128270000D03*
X154940000Y-130810000D03*
X154940000Y-128270000D03*
X157480000Y-130810000D03*
X157480000Y-128270000D03*
X160020000Y-130810000D03*
X160020000Y-128270000D03*
X162560000Y-130810000D03*
X162560000Y-128270000D03*
D13*
X181610000Y-100330000D03*
X181610000Y-130810000D03*
X123190000Y-130810000D03*
X123190000Y-100330000D03*
D14*
X166370000Y-105410000D03*
X165354000Y-107442000D03*
X161798000Y-122936000D03*
X161036000Y-103505000D03*
D15*
X145669000Y-122174000D03*
X153162000Y-117221000D03*
X153035000Y-113411000D03*
D14*
X145669000Y-112903000D03*
X152146000Y-106045000D03*
D15*
X175260000Y-110363000D03*
X175260000Y-111252000D03*
X177292000Y-121285000D03*
X161544000Y-106299000D03*
X165227000Y-105410000D03*
X152273000Y-104394000D03*
X133350000Y-108585000D03*
X141097000Y-128524000D03*
X144907000Y-128270000D03*
X158115000Y-122047000D03*
X159004000Y-120523000D03*
X161671000Y-124587000D03*
X174307500Y-108267500D03*
X173228000Y-112395000D03*
X169418000Y-112649000D03*
X159766000Y-112522000D03*
X140208000Y-111379000D03*
X143256000Y-111379000D03*
X147447000Y-116332000D03*
X147447000Y-118999000D03*
X147447000Y-121920000D03*
X175260000Y-112395000D03*
X175133000Y-116205000D03*
X169799000Y-124460000D03*
X173355000Y-124460000D03*
X175006000Y-118872000D03*
X156210000Y-124841000D03*
X152908000Y-124841000D03*
X155067000Y-122174000D03*
X137160000Y-122555000D03*
X137160000Y-125222000D03*
X140716000Y-125222000D03*
X140716000Y-122555000D03*
X140716000Y-119507000D03*
X143764000Y-119507000D03*
X143764000Y-122555000D03*
X143764000Y-125222000D03*
X152654000Y-119634000D03*
X139573000Y-131572000D03*
X143510000Y-131572000D03*
X146939000Y-131572000D03*
X149479000Y-132842000D03*
X183769000Y-126111000D03*
X180975000Y-126111000D03*
X177355500Y-126174500D03*
X177419000Y-129159000D03*
X177419000Y-132715000D03*
X174307500Y-129222500D03*
X170878500Y-132651500D03*
X174371000Y-132715000D03*
X162941000Y-97790000D03*
X162941000Y-100711000D03*
X166116000Y-100711000D03*
X166116000Y-97790000D03*
X159004000Y-100711000D03*
X172974000Y-97790000D03*
X176403000Y-97790000D03*
X176403000Y-100711000D03*
X169418000Y-97790000D03*
X169418000Y-100711000D03*
X169418000Y-103886000D03*
X182499000Y-104013000D03*
X182372000Y-107696000D03*
X178816000Y-107823000D03*
X178816000Y-103886000D03*
X176403000Y-103759000D03*
X172974000Y-103886000D03*
X172974000Y-100711000D03*
X164084000Y-116205000D03*
X157580500Y-116686500D03*
X157607000Y-115824000D03*
X157580500Y-114961500D03*
X156718000Y-114935000D03*
X155855500Y-114961500D03*
X155829000Y-115824000D03*
X155855500Y-116686500D03*
X156718000Y-116713000D03*
X166243000Y-108458000D03*
X138557000Y-98298000D03*
X138557000Y-101219000D03*
X136017000Y-101219000D03*
X135890000Y-98298000D03*
X133096000Y-98298000D03*
X133096000Y-101219000D03*
X132969000Y-104140000D03*
X130556000Y-104140000D03*
X130556000Y-101219000D03*
X130429000Y-98298000D03*
X127254000Y-98298000D03*
X127283524Y-101252320D03*
X127254000Y-104140000D03*
X127254000Y-106680000D03*
X123952000Y-106680000D03*
X123983918Y-104176022D03*
X121158000Y-104140000D03*
X133096000Y-131445000D03*
X133096000Y-128016000D03*
X133096000Y-125349000D03*
X130175000Y-125349000D03*
X130175000Y-128016000D03*
X130175000Y-131445000D03*
X121158000Y-127635000D03*
X121158000Y-125349000D03*
X123825000Y-125349000D03*
X127254000Y-125349000D03*
X127254000Y-128016000D03*
X127254000Y-131445000D03*
X121158000Y-106680000D03*
X173101000Y-118872000D03*
X167132000Y-130683000D03*
X169799000Y-127889000D03*
X167132000Y-127889000D03*
X164846000Y-127889000D03*
X164846000Y-130683000D03*
X159004000Y-97790000D03*
X140589000Y-104394000D03*
X137160000Y-119507000D03*
X133096000Y-113792000D03*
X144653000Y-115824000D03*
X144653000Y-112776000D03*
D14*
X152019000Y-117348000D03*
X164592000Y-125984000D03*
X149225000Y-123317000D03*
X152146000Y-108839000D03*
X151511000Y-125603000D03*
D15*
X146304000Y-128778000D03*
X160020000Y-115443000D03*
D14*
X134620000Y-113792000D03*
X139573000Y-116840000D03*
X136820000Y-113751000D03*
X139573000Y-114935000D03*
D15*
X156591000Y-124079000D03*
X158877000Y-124841000D03*
X161163000Y-116205000D03*
X161544000Y-120269000D03*
X160655000Y-111810800D03*
X171450000Y-111937800D03*
X160528000Y-114300000D03*
X160655000Y-113538000D03*
X156718000Y-109220000D03*
X155321000Y-111887000D03*
X176149000Y-116205000D03*
X159385000Y-119634000D03*
X159385000Y-111633000D03*
X172974000Y-110363000D03*
X167513000Y-110490000D03*
X158369000Y-110490000D03*
D16*
X166624000Y-113861568D02*
X166497000Y-113861568D01*
D17*
X165862000Y-107442000D02*
X166370000Y-106934000D01*
X166370000Y-106934000D02*
X166370000Y-105410000D01*
X165862000Y-107442000D02*
X165354000Y-107442000D01*
X159893000Y-107442000D02*
X165354000Y-107442000D01*
X159893000Y-107442000D02*
X158496000Y-106045000D01*
X161798000Y-122936000D02*
X177419000Y-122936000D01*
X152400000Y-130810000D02*
X152400000Y-131699000D01*
X167259000Y-133096000D02*
X174371000Y-125984000D01*
X174371000Y-125984000D02*
X177292000Y-123063000D01*
X177292000Y-123063000D02*
X179705000Y-120650000D01*
X153797000Y-133096000D02*
X167259000Y-133096000D01*
X152400000Y-131699000D02*
X153797000Y-133096000D01*
X157607000Y-106045000D02*
X158496000Y-106045000D01*
X152146000Y-106045000D02*
X157607000Y-106045000D01*
X158496000Y-106045000D02*
X161036000Y-103505000D01*
X145669000Y-112903000D02*
X145669000Y-122174000D01*
D18*
X152654000Y-114046000D02*
X152654000Y-113792000D01*
X153162000Y-117221000D02*
X152654000Y-116713000D01*
X152654000Y-116713000D02*
X152654000Y-114046000D01*
X152654000Y-113792000D02*
X153035000Y-113411000D01*
D17*
X152146000Y-106045000D02*
X150749000Y-106045000D01*
X150749000Y-106045000D02*
X145669000Y-111125000D01*
X145669000Y-111125000D02*
X145669000Y-112903000D01*
D19*
X145669000Y-111125000D02*
X145669000Y-112903000D01*
X150749000Y-106045000D02*
X145669000Y-111125000D01*
D20*
X175260000Y-112395000D02*
X175260000Y-111252000D01*
X178181000Y-120396000D02*
X178181000Y-119507000D01*
X177292000Y-121285000D02*
X178181000Y-120396000D01*
X177038000Y-116205000D02*
X177038000Y-117348000D01*
X177038000Y-117348000D02*
X176911000Y-117475000D01*
D18*
X161925000Y-105918000D02*
X161544000Y-106299000D01*
X164719000Y-105918000D02*
X161925000Y-105918000D01*
X165227000Y-105410000D02*
X164719000Y-105918000D01*
D20*
X152654000Y-97790000D02*
X152654000Y-104013000D01*
X152654000Y-104013000D02*
X152273000Y-104394000D01*
X132969000Y-104140000D02*
X132969000Y-108204000D01*
X132969000Y-108204000D02*
X133350000Y-108585000D01*
X146939000Y-131572000D02*
X144907000Y-131572000D01*
X144907000Y-131572000D02*
X144907000Y-128270000D01*
X159004000Y-121158000D02*
X158115000Y-122047000D01*
X155067000Y-122174000D02*
X155067000Y-121412000D01*
X155956000Y-120523000D02*
X159004000Y-120523000D01*
X155067000Y-121412000D02*
X155956000Y-120523000D01*
X159004000Y-120523000D02*
X159004000Y-121158000D01*
D18*
X169799000Y-124460000D02*
X161798000Y-124460000D01*
X161798000Y-124460000D02*
X161671000Y-124587000D01*
D20*
X174244000Y-108331000D02*
X174307500Y-108267500D01*
X174244000Y-108331000D02*
X171958000Y-108331000D01*
D18*
X172212000Y-112395000D02*
X171958000Y-112649000D01*
X171958000Y-112649000D02*
X169418000Y-112649000D01*
X169418000Y-112649000D02*
X159893000Y-112649000D01*
X159893000Y-112649000D02*
X159766000Y-112522000D01*
X173228000Y-112395000D02*
X172212000Y-112395000D01*
X143256000Y-111379000D02*
X140208000Y-111379000D01*
D20*
X147447000Y-125222000D02*
X147447000Y-121920000D01*
X147447000Y-118999000D02*
X147447000Y-116332000D01*
X175260000Y-112395000D02*
X173228000Y-112395000D01*
X175133000Y-116205000D02*
X175133000Y-116078000D01*
X177038000Y-116205000D02*
X177038000Y-117221000D01*
X176403000Y-115570000D02*
X177038000Y-116205000D01*
X175641000Y-115570000D02*
X176403000Y-115570000D01*
X175133000Y-116078000D02*
X175641000Y-115570000D01*
X169799000Y-127889000D02*
X169799000Y-124460000D01*
X175006000Y-118872000D02*
X173101000Y-118872000D01*
X152654000Y-121158000D02*
X154051000Y-121158000D01*
X152908000Y-124841000D02*
X156210000Y-124841000D01*
X154051000Y-121158000D02*
X155067000Y-122174000D01*
X143764000Y-125222000D02*
X147447000Y-125222000D01*
X147447000Y-125222000D02*
X148590000Y-125222000D01*
X137160000Y-122555000D02*
X137160000Y-125222000D01*
X140716000Y-125222000D02*
X140716000Y-122555000D01*
X140716000Y-119507000D02*
X143764000Y-119507000D01*
X143764000Y-122555000D02*
X143764000Y-125222000D01*
X152654000Y-121158000D02*
X152654000Y-119634000D01*
X148590000Y-125222000D02*
X152654000Y-121158000D01*
X146939000Y-131572000D02*
X148209000Y-131572000D01*
X139573000Y-131572000D02*
X143510000Y-131572000D01*
X148209000Y-131572000D02*
X149479000Y-132842000D01*
X174371000Y-132715000D02*
X177419000Y-132715000D01*
X180975000Y-126111000D02*
X183769000Y-126111000D01*
X177355500Y-129095500D02*
X177355500Y-126174500D01*
X177419000Y-129159000D02*
X177355500Y-129095500D01*
X170942000Y-132588000D02*
X170942000Y-132715000D01*
X170878500Y-132651500D02*
X170942000Y-132715000D01*
X174371000Y-129286000D02*
X174371000Y-132715000D01*
X174371000Y-129286000D02*
X174307500Y-129222500D01*
X169418000Y-97790000D02*
X166116000Y-97790000D01*
X162941000Y-97790000D02*
X159004000Y-97790000D01*
X166116000Y-100711000D02*
X162941000Y-100711000D01*
X159004000Y-97790000D02*
X159004000Y-100711000D01*
X176403000Y-100711000D02*
X176403000Y-97790000D01*
X169418000Y-97790000D02*
X169418000Y-100711000D01*
X169418000Y-103886000D02*
X169418000Y-100711000D01*
X169418000Y-100711000D02*
X172974000Y-100711000D01*
X182499000Y-107569000D02*
X182499000Y-104013000D01*
X182372000Y-107696000D02*
X182499000Y-107569000D01*
X178816000Y-103886000D02*
X178816000Y-107823000D01*
X173101000Y-103759000D02*
X176403000Y-103759000D01*
X172974000Y-103886000D02*
X173101000Y-103759000D01*
D18*
X164084000Y-116205000D02*
X163449000Y-115570000D01*
X157988000Y-116205000D02*
X157607000Y-115824000D01*
X160147000Y-116205000D02*
X157988000Y-116205000D01*
X160782000Y-115570000D02*
X160147000Y-116205000D01*
X163449000Y-115570000D02*
X160782000Y-115570000D01*
X157607000Y-116660000D02*
X157580500Y-116686500D01*
X157607000Y-116660000D02*
X157607000Y-115824000D01*
X157580500Y-114961500D02*
X157554000Y-114935000D01*
X157554000Y-114935000D02*
X156718000Y-114935000D01*
X155855500Y-114961500D02*
X155829000Y-114988000D01*
X155829000Y-114988000D02*
X155829000Y-115824000D01*
X155855500Y-116686500D02*
X155882000Y-116713000D01*
X155882000Y-116713000D02*
X156718000Y-116713000D01*
X167640000Y-107061000D02*
X167640000Y-97790000D01*
X166243000Y-108458000D02*
X167640000Y-107061000D01*
D20*
X136017000Y-101219000D02*
X138557000Y-101219000D01*
X133096000Y-98298000D02*
X135890000Y-98298000D01*
X133096000Y-104013000D02*
X133096000Y-101219000D01*
X132969000Y-104140000D02*
X133096000Y-104013000D01*
X130556000Y-101219000D02*
X130556000Y-104140000D01*
X127254000Y-98298000D02*
X130429000Y-98298000D01*
X127283524Y-104110476D02*
X127283524Y-101252320D01*
X127254000Y-104140000D02*
X127283524Y-104110476D01*
X123952000Y-106680000D02*
X127254000Y-106680000D01*
X121194022Y-104176022D02*
X123983918Y-104176022D01*
X121158000Y-104140000D02*
X121194022Y-104176022D01*
X133096000Y-131445000D02*
X133096000Y-128016000D01*
X133096000Y-125349000D02*
X130175000Y-125349000D01*
X130175000Y-128016000D02*
X130175000Y-131445000D01*
X121031000Y-125476000D02*
X121158000Y-127635000D01*
X121158000Y-125349000D02*
X121031000Y-125476000D01*
X127254000Y-125349000D02*
X123825000Y-125349000D01*
X127254000Y-131445000D02*
X127254000Y-128016000D01*
X121158000Y-106680000D02*
X131191000Y-97790000D01*
X159004000Y-97790000D02*
X152654000Y-97790000D01*
X152654000Y-97790000D02*
X131191000Y-97790000D01*
X173101000Y-118872000D02*
X173101000Y-118237000D01*
X173101000Y-118237000D02*
X175133000Y-116205000D01*
X173101000Y-118872000D02*
X174244000Y-120015000D01*
X167132000Y-127889000D02*
X169799000Y-127889000D01*
X164846000Y-130683000D02*
X164846000Y-127889000D01*
X183134000Y-124714000D02*
X178816000Y-124714000D01*
X131191000Y-133985000D02*
X169545000Y-133985000D01*
X169545000Y-133985000D02*
X169799000Y-133731000D01*
X178816000Y-124714000D02*
X170942000Y-132588000D01*
X170942000Y-132588000D02*
X169799000Y-133731000D01*
X167640000Y-97790000D02*
X171323000Y-97790000D01*
X171323000Y-97790000D02*
X181229000Y-107696000D01*
X181229000Y-107696000D02*
X183769000Y-107696000D01*
X183769000Y-107696000D02*
X184658000Y-108585000D01*
X184658000Y-108585000D02*
X184658000Y-123190000D01*
X184658000Y-123190000D02*
X183134000Y-124714000D01*
X159004000Y-97790000D02*
X167640000Y-97790000D01*
X143002000Y-97917000D02*
X143002000Y-102235000D01*
X143002000Y-102235000D02*
X140589000Y-104394000D01*
X137160000Y-117856000D02*
X137160000Y-119507000D01*
X133096000Y-113792000D02*
X137160000Y-117856000D01*
X144653000Y-112776000D02*
X144653000Y-115824000D01*
D17*
X152019000Y-117348000D02*
X149225000Y-120142000D01*
X164592000Y-125984000D02*
X159258000Y-125984000D01*
X151892000Y-125984000D02*
X159258000Y-125984000D01*
X150495000Y-110490000D02*
X149225000Y-111760000D01*
X149225000Y-111760000D02*
X149225000Y-117729000D01*
X149225000Y-117729000D02*
X149225000Y-120142000D01*
X149225000Y-120142000D02*
X149225000Y-123317000D01*
X152146000Y-108839000D02*
X150495000Y-110490000D01*
X151511000Y-125603000D02*
X151892000Y-125984000D01*
D18*
X177165000Y-115443000D02*
X176657000Y-114935000D01*
X178562000Y-116840000D02*
X177165000Y-115443000D01*
X160528000Y-114935000D02*
X160020000Y-115443000D01*
X176657000Y-114935000D02*
X160528000Y-114935000D01*
X177165000Y-118237000D02*
X178562000Y-116840000D01*
X177165000Y-120142000D02*
X177165000Y-118237000D01*
X175514000Y-121793000D02*
X177165000Y-120142000D01*
X161290000Y-121793000D02*
X175514000Y-121793000D01*
X159639000Y-123444000D02*
X161290000Y-121793000D01*
X151638000Y-123444000D02*
X159639000Y-123444000D01*
X146304000Y-128778000D02*
X151638000Y-123444000D01*
X180975000Y-116840000D02*
X182245000Y-115570000D01*
X178562000Y-116840000D02*
X180975000Y-116840000D01*
X160020000Y-115443000D02*
X160020000Y-115443000D01*
X160020000Y-115443000D02*
X160020000Y-115443000D01*
D20*
X137668000Y-116840000D02*
X139573000Y-116840000D01*
X137668000Y-116840000D02*
X134620000Y-113792000D01*
X138004000Y-114935000D02*
X139573000Y-114935000D01*
X138004000Y-114935000D02*
X136820000Y-113751000D01*
D18*
X158115000Y-124079000D02*
X156591000Y-124079000D01*
X158877000Y-124841000D02*
X158115000Y-124079000D01*
X161163000Y-116205000D02*
X161544000Y-116586000D01*
X161544000Y-116586000D02*
X161544000Y-120269000D01*
X160655000Y-111810800D02*
X160782000Y-111937800D01*
X160782000Y-111937800D02*
X171450000Y-111937800D01*
X181102000Y-114300000D02*
X182245000Y-113157000D01*
X160528000Y-114300000D02*
X181102000Y-114300000D01*
X182245000Y-113157000D02*
X182245000Y-113030000D01*
X182245000Y-113030000D02*
X182245000Y-113157000D01*
X160782000Y-113411000D02*
X179324000Y-113411000D01*
X160655000Y-113538000D02*
X160782000Y-113411000D01*
X179324000Y-113411000D02*
X179705000Y-113030000D01*
X156718000Y-109220000D02*
X156718000Y-109220000D01*
X180975000Y-109220000D02*
X182245000Y-110490000D01*
X156718000Y-109220000D02*
X180975000Y-109220000D01*
X178943000Y-109728000D02*
X179705000Y-110490000D01*
X157480000Y-109728000D02*
X178943000Y-109728000D01*
X155321000Y-111887000D02*
X157480000Y-109728000D01*
X160909000Y-121158000D02*
X174625000Y-121158000D01*
X174625000Y-121158000D02*
X176149000Y-119634000D01*
X176149000Y-119634000D02*
X176149000Y-116205000D01*
X159385000Y-119634000D02*
X160909000Y-121158000D01*
X172110400Y-111226600D02*
X172974000Y-110363000D01*
X159791400Y-111226600D02*
X172110400Y-111226600D01*
X159385000Y-111633000D02*
X159791400Y-111226600D01*
X158369000Y-110490000D02*
X167513000Y-110490000D01*
D21*
G36*
X179813857Y-97636796D02*
X178919935Y-98529159D01*
X178435552Y-99695683D01*
X178434450Y-100958776D01*
X178916796Y-102126143D01*
X179809159Y-103020065D01*
X180975683Y-103504448D01*
X182238776Y-103505550D01*
X183406143Y-103023204D01*
X184300065Y-102130841D01*
X184710000Y-101143608D01*
X184710000Y-129998379D01*
X184303204Y-129013857D01*
X183410841Y-128119935D01*
X182244317Y-127635552D01*
X180981224Y-127634450D01*
X179813857Y-128116796D01*
X178919935Y-129009159D01*
X178435552Y-130175683D01*
X178434450Y-131438776D01*
X178916796Y-132606143D01*
X179809159Y-133500065D01*
X180796392Y-133910000D01*
X167834375Y-133910000D01*
X167977420Y-133814420D01*
X175089421Y-126702420D01*
X175089423Y-126702417D01*
X178010421Y-123781420D01*
X178010423Y-123781417D01*
X179648616Y-122143224D01*
X179675641Y-122148600D01*
X179734359Y-122148600D01*
X180307848Y-122034526D01*
X180773442Y-121723426D01*
X180778238Y-121748917D01*
X180917310Y-121965041D01*
X181129510Y-122110031D01*
X181381400Y-122161040D01*
X183108600Y-122161040D01*
X183343917Y-122116762D01*
X183560041Y-121977690D01*
X183705031Y-121765490D01*
X183756040Y-121513600D01*
X183756040Y-119786400D01*
X183711762Y-119551083D01*
X183572690Y-119334959D01*
X183360490Y-119189969D01*
X183316869Y-119181136D01*
X183334029Y-119169670D01*
X183658885Y-118683489D01*
X183772959Y-118110000D01*
X183658885Y-117536511D01*
X183334029Y-117050330D01*
X183019248Y-116840000D01*
X183334029Y-116629670D01*
X183658885Y-116143489D01*
X183772959Y-115570000D01*
X183658885Y-114996511D01*
X183334029Y-114510330D01*
X183019248Y-114300000D01*
X183334029Y-114089670D01*
X183658885Y-113603489D01*
X183772959Y-113030000D01*
X183658885Y-112456511D01*
X183334029Y-111970330D01*
X183019248Y-111760000D01*
X183334029Y-111549670D01*
X183658885Y-111063489D01*
X183772959Y-110490000D01*
X183658885Y-109916511D01*
X183334029Y-109430330D01*
X182847848Y-109105474D01*
X182274359Y-108991400D01*
X182215641Y-108991400D01*
X181827582Y-109068590D01*
X181476996Y-108718004D01*
X181246679Y-108564110D01*
X180975000Y-108510070D01*
X157185673Y-108510070D01*
X156884821Y-108385145D01*
X156552637Y-108384855D01*
X156245628Y-108511708D01*
X156010534Y-108746393D01*
X155883145Y-109053179D01*
X155882855Y-109385363D01*
X156009708Y-109692372D01*
X156244393Y-109927466D01*
X156267109Y-109936899D01*
X155149700Y-111054308D01*
X154848628Y-111178708D01*
X154613534Y-111413393D01*
X154486145Y-111720179D01*
X154485855Y-112052363D01*
X154612708Y-112359372D01*
X154847393Y-112594466D01*
X155154179Y-112721855D01*
X155486363Y-112722145D01*
X155793372Y-112595292D01*
X156028466Y-112360607D01*
X156154210Y-112057782D01*
X157540514Y-110671478D01*
X157660708Y-110962372D01*
X157895393Y-111197466D01*
X158202179Y-111324855D01*
X158534363Y-111325145D01*
X158624105Y-111288065D01*
X158550145Y-111466179D01*
X158549855Y-111798363D01*
X158676708Y-112105372D01*
X158911393Y-112340466D01*
X159218179Y-112467855D01*
X159550363Y-112468145D01*
X159857372Y-112341292D01*
X159937622Y-112261182D01*
X159946708Y-112283172D01*
X160181393Y-112518266D01*
X160488179Y-112645655D01*
X160772818Y-112645903D01*
X160782000Y-112647730D01*
X170982327Y-112647730D01*
X171110784Y-112701070D01*
X160782000Y-112701070D01*
X160771788Y-112703101D01*
X160489637Y-112702855D01*
X160182628Y-112829708D01*
X159947534Y-113064393D01*
X159820145Y-113371179D01*
X159819855Y-113703363D01*
X159856043Y-113790946D01*
X159820534Y-113826393D01*
X159693145Y-114133179D01*
X159692855Y-114465363D01*
X159766738Y-114644174D01*
X159547628Y-114734708D01*
X159312534Y-114969393D01*
X159185145Y-115276179D01*
X159184855Y-115608363D01*
X159311708Y-115915372D01*
X159546393Y-116150466D01*
X159853179Y-116277855D01*
X160185363Y-116278145D01*
X160327987Y-116219214D01*
X160327855Y-116370363D01*
X160454708Y-116677372D01*
X160689393Y-116912466D01*
X160834070Y-116972541D01*
X160834070Y-119801327D01*
X160752577Y-119997584D01*
X160217692Y-119462699D01*
X160093292Y-119161628D01*
X159858607Y-118926534D01*
X159551821Y-118799145D01*
X159219637Y-118798855D01*
X158912628Y-118925708D01*
X158677534Y-119160393D01*
X158550145Y-119467179D01*
X158549855Y-119799363D01*
X158676708Y-120106372D01*
X158911393Y-120341466D01*
X159214218Y-120467210D01*
X160407003Y-121659996D01*
X160414201Y-121664806D01*
X159344938Y-122734070D01*
X151638000Y-122734070D01*
X151411395Y-122779144D01*
X151366321Y-122788110D01*
X151136004Y-122942004D01*
X146132700Y-127945308D01*
X145831628Y-128069708D01*
X145596534Y-128304393D01*
X145469145Y-128611179D01*
X145468855Y-128943363D01*
X145595708Y-129250372D01*
X145830393Y-129485466D01*
X146137179Y-129612855D01*
X146469363Y-129613145D01*
X146776372Y-129486292D01*
X147011466Y-129251607D01*
X147137210Y-128948782D01*
X150497983Y-125588009D01*
X150495001Y-125603000D01*
X150572338Y-125991807D01*
X150792580Y-126321420D01*
X151173579Y-126702420D01*
X151283987Y-126776192D01*
X151503194Y-126922662D01*
X151675594Y-126956954D01*
X151340330Y-127180971D01*
X151015474Y-127667152D01*
X150901400Y-128240641D01*
X150901400Y-128299359D01*
X151015474Y-128872848D01*
X151326574Y-129338442D01*
X151301083Y-129343238D01*
X151084959Y-129482310D01*
X150939969Y-129694510D01*
X150888960Y-129946400D01*
X150888960Y-131673600D01*
X150933238Y-131908917D01*
X151072310Y-132125041D01*
X151284510Y-132270031D01*
X151536400Y-132321040D01*
X151617180Y-132321040D01*
X151681580Y-132417420D01*
X153078579Y-133814420D01*
X153221625Y-133910000D01*
X124001621Y-133910000D01*
X124986143Y-133503204D01*
X125880065Y-132610841D01*
X126364448Y-131444317D01*
X126365550Y-130181224D01*
X125883204Y-129013857D01*
X124990841Y-128119935D01*
X123824317Y-127635552D01*
X122561224Y-127634450D01*
X121393857Y-128116796D01*
X120499935Y-129009159D01*
X120090000Y-129996392D01*
X120090000Y-117984430D01*
X124226132Y-117984430D01*
X124390902Y-118383203D01*
X124695733Y-118688566D01*
X125094217Y-118854031D01*
X125525690Y-118854408D01*
X125924463Y-118689638D01*
X126229826Y-118384807D01*
X126395291Y-117986323D01*
X126395668Y-117554850D01*
X126230898Y-117156077D01*
X125926067Y-116850714D01*
X125527583Y-116685249D01*
X125096110Y-116684872D01*
X124697337Y-116849642D01*
X124391974Y-117154473D01*
X124226509Y-117552957D01*
X124226132Y-117984430D01*
X120090000Y-117984430D01*
X120090000Y-113585150D01*
X124226132Y-113585150D01*
X124390902Y-113983923D01*
X124695733Y-114289286D01*
X125094217Y-114454751D01*
X125525690Y-114455128D01*
X125924463Y-114290358D01*
X126229826Y-113985527D01*
X126233297Y-113977167D01*
X133684838Y-113977167D01*
X133826883Y-114320943D01*
X134089673Y-114584192D01*
X134433201Y-114726838D01*
X134480077Y-114726879D01*
X137130599Y-117377401D01*
X137377161Y-117542148D01*
X137668000Y-117600000D01*
X139010537Y-117600000D01*
X139042673Y-117632192D01*
X139386201Y-117774838D01*
X139758167Y-117775162D01*
X140101943Y-117633117D01*
X140365192Y-117370327D01*
X140507838Y-117026799D01*
X140508162Y-116654833D01*
X140366117Y-116311057D01*
X140103327Y-116047808D01*
X139759799Y-115905162D01*
X139387833Y-115904838D01*
X139044057Y-116046883D01*
X139010882Y-116080000D01*
X137982802Y-116080000D01*
X136556997Y-114654195D01*
X136633201Y-114685838D01*
X136680077Y-114685879D01*
X137466599Y-115472401D01*
X137713161Y-115637148D01*
X138004000Y-115695000D01*
X139010537Y-115695000D01*
X139042673Y-115727192D01*
X139386201Y-115869838D01*
X139758167Y-115870162D01*
X140101943Y-115728117D01*
X140365192Y-115465327D01*
X140507838Y-115121799D01*
X140508162Y-114749833D01*
X140366117Y-114406057D01*
X140103327Y-114142808D01*
X139759799Y-114000162D01*
X139387833Y-113999838D01*
X139044057Y-114141883D01*
X139010882Y-114175000D01*
X138318802Y-114175000D01*
X137755122Y-113611320D01*
X137755162Y-113565833D01*
X137613117Y-113222057D01*
X137350327Y-112958808D01*
X137006799Y-112816162D01*
X136634833Y-112815838D01*
X136291057Y-112957883D01*
X136027808Y-113220673D01*
X135885162Y-113564201D01*
X135884838Y-113936167D01*
X135917136Y-114014334D01*
X135555122Y-113652320D01*
X135555162Y-113606833D01*
X135413117Y-113263057D01*
X135150327Y-112999808D01*
X134806799Y-112857162D01*
X134434833Y-112856838D01*
X134091057Y-112998883D01*
X133827808Y-113261673D01*
X133685162Y-113605201D01*
X133684838Y-113977167D01*
X126233297Y-113977167D01*
X126395291Y-113587043D01*
X126395668Y-113155570D01*
X126230898Y-112756797D01*
X125926067Y-112451434D01*
X125527583Y-112285969D01*
X125096110Y-112285592D01*
X124697337Y-112450362D01*
X124391974Y-112755193D01*
X124226509Y-113153677D01*
X124226132Y-113585150D01*
X120090000Y-113585150D01*
X120090000Y-111125000D01*
X144653000Y-111125000D01*
X144653000Y-122174000D01*
X144730338Y-122562806D01*
X144950580Y-122892420D01*
X145280194Y-123112662D01*
X145669000Y-123190000D01*
X146057806Y-123112662D01*
X146387420Y-122892420D01*
X146607662Y-122562806D01*
X146685000Y-122174000D01*
X146685000Y-111760000D01*
X148209000Y-111760000D01*
X148209000Y-123317000D01*
X148286338Y-123705806D01*
X148506580Y-124035420D01*
X148836194Y-124255662D01*
X149225000Y-124333000D01*
X149613806Y-124255662D01*
X149943420Y-124035420D01*
X150163662Y-123705806D01*
X150241000Y-123317000D01*
X150241000Y-120562840D01*
X152737421Y-118066420D01*
X152798930Y-117974365D01*
X152995179Y-118055855D01*
X153327363Y-118056145D01*
X153634372Y-117929292D01*
X153869466Y-117694607D01*
X153996855Y-117387821D01*
X153997145Y-117055637D01*
X153870292Y-116748628D01*
X153635607Y-116513534D01*
X153363930Y-116400724D01*
X153363930Y-114178561D01*
X153507372Y-114119292D01*
X153742466Y-113884607D01*
X153869855Y-113577821D01*
X153870145Y-113245637D01*
X153743292Y-112938628D01*
X153508607Y-112703534D01*
X153201821Y-112576145D01*
X152869637Y-112575855D01*
X152562628Y-112702708D01*
X152327534Y-112937393D01*
X152201790Y-113240218D01*
X152152004Y-113290004D01*
X151998110Y-113520321D01*
X151980902Y-113606833D01*
X151944070Y-113792000D01*
X151944070Y-116346904D01*
X151630193Y-116409338D01*
X151300580Y-116629579D01*
X150241000Y-117689159D01*
X150241000Y-112180840D01*
X151213420Y-111208421D01*
X151213422Y-111208418D01*
X152864421Y-109557420D01*
X153084662Y-109227807D01*
X153162000Y-108839000D01*
X153084662Y-108450193D01*
X152864421Y-108120579D01*
X152534807Y-107900338D01*
X152146000Y-107823000D01*
X151757193Y-107900338D01*
X151427580Y-108120579D01*
X149776582Y-109771578D01*
X149776579Y-109771580D01*
X148506580Y-111041580D01*
X148286338Y-111371193D01*
X148286338Y-111371194D01*
X148209000Y-111760000D01*
X146685000Y-111760000D01*
X146685000Y-111545840D01*
X151169841Y-107061000D01*
X158075160Y-107061000D01*
X159174579Y-108160420D01*
X159284987Y-108234192D01*
X159504194Y-108380662D01*
X159893000Y-108458000D01*
X165862000Y-108458000D01*
X166186300Y-108393493D01*
X166250807Y-108380662D01*
X166580420Y-108160420D01*
X167088420Y-107652421D01*
X167308661Y-107322807D01*
X167308662Y-107322806D01*
X167386000Y-106934000D01*
X167386000Y-105410000D01*
X167308662Y-105021194D01*
X167088420Y-104691580D01*
X166758806Y-104471338D01*
X166370000Y-104394000D01*
X165981194Y-104471338D01*
X165651580Y-104691580D01*
X165431338Y-105021194D01*
X165354000Y-105410000D01*
X165354000Y-106426000D01*
X160313841Y-106426000D01*
X159932840Y-106045000D01*
X161754420Y-104223421D01*
X161974661Y-103893807D01*
X162051999Y-103505000D01*
X161974661Y-103116193D01*
X161754420Y-102786580D01*
X161424807Y-102566339D01*
X161036000Y-102489001D01*
X160647193Y-102566339D01*
X160317579Y-102786580D01*
X158075160Y-105029000D01*
X150749000Y-105029000D01*
X150424700Y-105093507D01*
X150360193Y-105106338D01*
X150030580Y-105326579D01*
X144950580Y-110406580D01*
X144730338Y-110736193D01*
X144730338Y-110736194D01*
X144653000Y-111125000D01*
X120090000Y-111125000D01*
X120090000Y-101141621D01*
X120496796Y-102126143D01*
X121389159Y-103020065D01*
X122555683Y-103504448D01*
X123818776Y-103505550D01*
X124986143Y-103023204D01*
X125880065Y-102130841D01*
X126364448Y-100964317D01*
X126365550Y-99701224D01*
X125883204Y-98533857D01*
X124990841Y-97639935D01*
X124003608Y-97230000D01*
X180798379Y-97230000D01*
X179813857Y-97636796D01*
X179813857Y-97636796D01*
G37*
X179813857Y-97636796D02*
X178919935Y-98529159D01*
X178435552Y-99695683D01*
X178434450Y-100958776D01*
X178916796Y-102126143D01*
X179809159Y-103020065D01*
X180975683Y-103504448D01*
X182238776Y-103505550D01*
X183406143Y-103023204D01*
X184300065Y-102130841D01*
X184710000Y-101143608D01*
X184710000Y-129998379D01*
X184303204Y-129013857D01*
X183410841Y-128119935D01*
X182244317Y-127635552D01*
X180981224Y-127634450D01*
X179813857Y-128116796D01*
X178919935Y-129009159D01*
X178435552Y-130175683D01*
X178434450Y-131438776D01*
X178916796Y-132606143D01*
X179809159Y-133500065D01*
X180796392Y-133910000D01*
X167834375Y-133910000D01*
X167977420Y-133814420D01*
X175089421Y-126702420D01*
X175089423Y-126702417D01*
X178010421Y-123781420D01*
X178010423Y-123781417D01*
X179648616Y-122143224D01*
X179675641Y-122148600D01*
X179734359Y-122148600D01*
X180307848Y-122034526D01*
X180773442Y-121723426D01*
X180778238Y-121748917D01*
X180917310Y-121965041D01*
X181129510Y-122110031D01*
X181381400Y-122161040D01*
X183108600Y-122161040D01*
X183343917Y-122116762D01*
X183560041Y-121977690D01*
X183705031Y-121765490D01*
X183756040Y-121513600D01*
X183756040Y-119786400D01*
X183711762Y-119551083D01*
X183572690Y-119334959D01*
X183360490Y-119189969D01*
X183316869Y-119181136D01*
X183334029Y-119169670D01*
X183658885Y-118683489D01*
X183772959Y-118110000D01*
X183658885Y-117536511D01*
X183334029Y-117050330D01*
X183019248Y-116840000D01*
X183334029Y-116629670D01*
X183658885Y-116143489D01*
X183772959Y-115570000D01*
X183658885Y-114996511D01*
X183334029Y-114510330D01*
X183019248Y-114300000D01*
X183334029Y-114089670D01*
X183658885Y-113603489D01*
X183772959Y-113030000D01*
X183658885Y-112456511D01*
X183334029Y-111970330D01*
X183019248Y-111760000D01*
X183334029Y-111549670D01*
X183658885Y-111063489D01*
X183772959Y-110490000D01*
X183658885Y-109916511D01*
X183334029Y-109430330D01*
X182847848Y-109105474D01*
X182274359Y-108991400D01*
X182215641Y-108991400D01*
X181827582Y-109068590D01*
X181476996Y-108718004D01*
X181246679Y-108564110D01*
X180975000Y-108510070D01*
X157185673Y-108510070D01*
X156884821Y-108385145D01*
X156552637Y-108384855D01*
X156245628Y-108511708D01*
X156010534Y-108746393D01*
X155883145Y-109053179D01*
X155882855Y-109385363D01*
X156009708Y-109692372D01*
X156244393Y-109927466D01*
X156267109Y-109936899D01*
X155149700Y-111054308D01*
X154848628Y-111178708D01*
X154613534Y-111413393D01*
X154486145Y-111720179D01*
X154485855Y-112052363D01*
X154612708Y-112359372D01*
X154847393Y-112594466D01*
X155154179Y-112721855D01*
X155486363Y-112722145D01*
X155793372Y-112595292D01*
X156028466Y-112360607D01*
X156154210Y-112057782D01*
X157540514Y-110671478D01*
X157660708Y-110962372D01*
X157895393Y-111197466D01*
X158202179Y-111324855D01*
X158534363Y-111325145D01*
X158624105Y-111288065D01*
X158550145Y-111466179D01*
X158549855Y-111798363D01*
X158676708Y-112105372D01*
X158911393Y-112340466D01*
X159218179Y-112467855D01*
X159550363Y-112468145D01*
X159857372Y-112341292D01*
X159937622Y-112261182D01*
X159946708Y-112283172D01*
X160181393Y-112518266D01*
X160488179Y-112645655D01*
X160772818Y-112645903D01*
X160782000Y-112647730D01*
X170982327Y-112647730D01*
X171110784Y-112701070D01*
X160782000Y-112701070D01*
X160771788Y-112703101D01*
X160489637Y-112702855D01*
X160182628Y-112829708D01*
X159947534Y-113064393D01*
X159820145Y-113371179D01*
X159819855Y-113703363D01*
X159856043Y-113790946D01*
X159820534Y-113826393D01*
X159693145Y-114133179D01*
X159692855Y-114465363D01*
X159766738Y-114644174D01*
X159547628Y-114734708D01*
X159312534Y-114969393D01*
X159185145Y-115276179D01*
X159184855Y-115608363D01*
X159311708Y-115915372D01*
X159546393Y-116150466D01*
X159853179Y-116277855D01*
X160185363Y-116278145D01*
X160327987Y-116219214D01*
X160327855Y-116370363D01*
X160454708Y-116677372D01*
X160689393Y-116912466D01*
X160834070Y-116972541D01*
X160834070Y-119801327D01*
X160752577Y-119997584D01*
X160217692Y-119462699D01*
X160093292Y-119161628D01*
X159858607Y-118926534D01*
X159551821Y-118799145D01*
X159219637Y-118798855D01*
X158912628Y-118925708D01*
X158677534Y-119160393D01*
X158550145Y-119467179D01*
X158549855Y-119799363D01*
X158676708Y-120106372D01*
X158911393Y-120341466D01*
X159214218Y-120467210D01*
X160407003Y-121659996D01*
X160414201Y-121664806D01*
X159344938Y-122734070D01*
X151638000Y-122734070D01*
X151411395Y-122779144D01*
X151366321Y-122788110D01*
X151136004Y-122942004D01*
X146132700Y-127945308D01*
X145831628Y-128069708D01*
X145596534Y-128304393D01*
X145469145Y-128611179D01*
X145468855Y-128943363D01*
X145595708Y-129250372D01*
X145830393Y-129485466D01*
X146137179Y-129612855D01*
X146469363Y-129613145D01*
X146776372Y-129486292D01*
X147011466Y-129251607D01*
X147137210Y-128948782D01*
X150497983Y-125588009D01*
X150495001Y-125603000D01*
X150572338Y-125991807D01*
X150792580Y-126321420D01*
X151173579Y-126702420D01*
X151283987Y-126776192D01*
X151503194Y-126922662D01*
X151675594Y-126956954D01*
X151340330Y-127180971D01*
X151015474Y-127667152D01*
X150901400Y-128240641D01*
X150901400Y-128299359D01*
X151015474Y-128872848D01*
X151326574Y-129338442D01*
X151301083Y-129343238D01*
X151084959Y-129482310D01*
X150939969Y-129694510D01*
X150888960Y-129946400D01*
X150888960Y-131673600D01*
X150933238Y-131908917D01*
X151072310Y-132125041D01*
X151284510Y-132270031D01*
X151536400Y-132321040D01*
X151617180Y-132321040D01*
X151681580Y-132417420D01*
X153078579Y-133814420D01*
X153221625Y-133910000D01*
X124001621Y-133910000D01*
X124986143Y-133503204D01*
X125880065Y-132610841D01*
X126364448Y-131444317D01*
X126365550Y-130181224D01*
X125883204Y-129013857D01*
X124990841Y-128119935D01*
X123824317Y-127635552D01*
X122561224Y-127634450D01*
X121393857Y-128116796D01*
X120499935Y-129009159D01*
X120090000Y-129996392D01*
X120090000Y-117984430D01*
X124226132Y-117984430D01*
X124390902Y-118383203D01*
X124695733Y-118688566D01*
X125094217Y-118854031D01*
X125525690Y-118854408D01*
X125924463Y-118689638D01*
X126229826Y-118384807D01*
X126395291Y-117986323D01*
X126395668Y-117554850D01*
X126230898Y-117156077D01*
X125926067Y-116850714D01*
X125527583Y-116685249D01*
X125096110Y-116684872D01*
X124697337Y-116849642D01*
X124391974Y-117154473D01*
X124226509Y-117552957D01*
X124226132Y-117984430D01*
X120090000Y-117984430D01*
X120090000Y-113585150D01*
X124226132Y-113585150D01*
X124390902Y-113983923D01*
X124695733Y-114289286D01*
X125094217Y-114454751D01*
X125525690Y-114455128D01*
X125924463Y-114290358D01*
X126229826Y-113985527D01*
X126233297Y-113977167D01*
X133684838Y-113977167D01*
X133826883Y-114320943D01*
X134089673Y-114584192D01*
X134433201Y-114726838D01*
X134480077Y-114726879D01*
X137130599Y-117377401D01*
X137377161Y-117542148D01*
X137668000Y-117600000D01*
X139010537Y-117600000D01*
X139042673Y-117632192D01*
X139386201Y-117774838D01*
X139758167Y-117775162D01*
X140101943Y-117633117D01*
X140365192Y-117370327D01*
X140507838Y-117026799D01*
X140508162Y-116654833D01*
X140366117Y-116311057D01*
X140103327Y-116047808D01*
X139759799Y-115905162D01*
X139387833Y-115904838D01*
X139044057Y-116046883D01*
X139010882Y-116080000D01*
X137982802Y-116080000D01*
X136556997Y-114654195D01*
X136633201Y-114685838D01*
X136680077Y-114685879D01*
X137466599Y-115472401D01*
X137713161Y-115637148D01*
X138004000Y-115695000D01*
X139010537Y-115695000D01*
X139042673Y-115727192D01*
X139386201Y-115869838D01*
X139758167Y-115870162D01*
X140101943Y-115728117D01*
X140365192Y-115465327D01*
X140507838Y-115121799D01*
X140508162Y-114749833D01*
X140366117Y-114406057D01*
X140103327Y-114142808D01*
X139759799Y-114000162D01*
X139387833Y-113999838D01*
X139044057Y-114141883D01*
X139010882Y-114175000D01*
X138318802Y-114175000D01*
X137755122Y-113611320D01*
X137755162Y-113565833D01*
X137613117Y-113222057D01*
X137350327Y-112958808D01*
X137006799Y-112816162D01*
X136634833Y-112815838D01*
X136291057Y-112957883D01*
X136027808Y-113220673D01*
X135885162Y-113564201D01*
X135884838Y-113936167D01*
X135917136Y-114014334D01*
X135555122Y-113652320D01*
X135555162Y-113606833D01*
X135413117Y-113263057D01*
X135150327Y-112999808D01*
X134806799Y-112857162D01*
X134434833Y-112856838D01*
X134091057Y-112998883D01*
X133827808Y-113261673D01*
X133685162Y-113605201D01*
X133684838Y-113977167D01*
X126233297Y-113977167D01*
X126395291Y-113587043D01*
X126395668Y-113155570D01*
X126230898Y-112756797D01*
X125926067Y-112451434D01*
X125527583Y-112285969D01*
X125096110Y-112285592D01*
X124697337Y-112450362D01*
X124391974Y-112755193D01*
X124226509Y-113153677D01*
X124226132Y-113585150D01*
X120090000Y-113585150D01*
X120090000Y-111125000D01*
X144653000Y-111125000D01*
X144653000Y-122174000D01*
X144730338Y-122562806D01*
X144950580Y-122892420D01*
X145280194Y-123112662D01*
X145669000Y-123190000D01*
X146057806Y-123112662D01*
X146387420Y-122892420D01*
X146607662Y-122562806D01*
X146685000Y-122174000D01*
X146685000Y-111760000D01*
X148209000Y-111760000D01*
X148209000Y-123317000D01*
X148286338Y-123705806D01*
X148506580Y-124035420D01*
X148836194Y-124255662D01*
X149225000Y-124333000D01*
X149613806Y-124255662D01*
X149943420Y-124035420D01*
X150163662Y-123705806D01*
X150241000Y-123317000D01*
X150241000Y-120562840D01*
X152737421Y-118066420D01*
X152798930Y-117974365D01*
X152995179Y-118055855D01*
X153327363Y-118056145D01*
X153634372Y-117929292D01*
X153869466Y-117694607D01*
X153996855Y-117387821D01*
X153997145Y-117055637D01*
X153870292Y-116748628D01*
X153635607Y-116513534D01*
X153363930Y-116400724D01*
X153363930Y-114178561D01*
X153507372Y-114119292D01*
X153742466Y-113884607D01*
X153869855Y-113577821D01*
X153870145Y-113245637D01*
X153743292Y-112938628D01*
X153508607Y-112703534D01*
X153201821Y-112576145D01*
X152869637Y-112575855D01*
X152562628Y-112702708D01*
X152327534Y-112937393D01*
X152201790Y-113240218D01*
X152152004Y-113290004D01*
X151998110Y-113520321D01*
X151980902Y-113606833D01*
X151944070Y-113792000D01*
X151944070Y-116346904D01*
X151630193Y-116409338D01*
X151300580Y-116629579D01*
X150241000Y-117689159D01*
X150241000Y-112180840D01*
X151213420Y-111208421D01*
X151213422Y-111208418D01*
X152864421Y-109557420D01*
X153084662Y-109227807D01*
X153162000Y-108839000D01*
X153084662Y-108450193D01*
X152864421Y-108120579D01*
X152534807Y-107900338D01*
X152146000Y-107823000D01*
X151757193Y-107900338D01*
X151427580Y-108120579D01*
X149776582Y-109771578D01*
X149776579Y-109771580D01*
X148506580Y-111041580D01*
X148286338Y-111371193D01*
X148286338Y-111371194D01*
X148209000Y-111760000D01*
X146685000Y-111760000D01*
X146685000Y-111545840D01*
X151169841Y-107061000D01*
X158075160Y-107061000D01*
X159174579Y-108160420D01*
X159284987Y-108234192D01*
X159504194Y-108380662D01*
X159893000Y-108458000D01*
X165862000Y-108458000D01*
X166186300Y-108393493D01*
X166250807Y-108380662D01*
X166580420Y-108160420D01*
X167088420Y-107652421D01*
X167308661Y-107322807D01*
X167308662Y-107322806D01*
X167386000Y-106934000D01*
X167386000Y-105410000D01*
X167308662Y-105021194D01*
X167088420Y-104691580D01*
X166758806Y-104471338D01*
X166370000Y-104394000D01*
X165981194Y-104471338D01*
X165651580Y-104691580D01*
X165431338Y-105021194D01*
X165354000Y-105410000D01*
X165354000Y-106426000D01*
X160313841Y-106426000D01*
X159932840Y-106045000D01*
X161754420Y-104223421D01*
X161974661Y-103893807D01*
X162051999Y-103505000D01*
X161974661Y-103116193D01*
X161754420Y-102786580D01*
X161424807Y-102566339D01*
X161036000Y-102489001D01*
X160647193Y-102566339D01*
X160317579Y-102786580D01*
X158075160Y-105029000D01*
X150749000Y-105029000D01*
X150424700Y-105093507D01*
X150360193Y-105106338D01*
X150030580Y-105326579D01*
X144950580Y-110406580D01*
X144730338Y-110736193D01*
X144730338Y-110736194D01*
X144653000Y-111125000D01*
X120090000Y-111125000D01*
X120090000Y-101141621D01*
X120496796Y-102126143D01*
X121389159Y-103020065D01*
X122555683Y-103504448D01*
X123818776Y-103505550D01*
X124986143Y-103023204D01*
X125880065Y-102130841D01*
X126364448Y-100964317D01*
X126365550Y-99701224D01*
X125883204Y-98533857D01*
X124990841Y-97639935D01*
X124003608Y-97230000D01*
X180798379Y-97230000D01*
X179813857Y-97636796D01*
G36*
X160859338Y-123324806D02*
X161079580Y-123654420D01*
X161409194Y-123874662D01*
X161798000Y-123952000D01*
X174966160Y-123952000D01*
X173652583Y-125265577D01*
X173652580Y-125265579D01*
X166838160Y-132080000D01*
X163348828Y-132080000D01*
X163619670Y-131899029D01*
X163944526Y-131412848D01*
X164058600Y-130839359D01*
X164058600Y-130780641D01*
X163944526Y-130207152D01*
X163619670Y-129720971D01*
X163348828Y-129540000D01*
X163619670Y-129359029D01*
X163944526Y-128872848D01*
X164058600Y-128299359D01*
X164058600Y-128240641D01*
X163944526Y-127667152D01*
X163619670Y-127180971D01*
X163348828Y-127000000D01*
X164592000Y-127000000D01*
X164980806Y-126922662D01*
X165310420Y-126702420D01*
X165530662Y-126372806D01*
X165608000Y-125984000D01*
X165530662Y-125595194D01*
X165310420Y-125265580D01*
X164980806Y-125045338D01*
X164592000Y-124968000D01*
X159711890Y-124968000D01*
X159712145Y-124675637D01*
X159585292Y-124368628D01*
X159370968Y-124153930D01*
X159639000Y-124153930D01*
X159910679Y-124099890D01*
X160140996Y-123945996D01*
X160843220Y-123243773D01*
X160859338Y-123324806D01*
X160859338Y-123324806D01*
G37*
X160859338Y-123324806D02*
X161079580Y-123654420D01*
X161409194Y-123874662D01*
X161798000Y-123952000D01*
X174966160Y-123952000D01*
X173652583Y-125265577D01*
X173652580Y-125265579D01*
X166838160Y-132080000D01*
X163348828Y-132080000D01*
X163619670Y-131899029D01*
X163944526Y-131412848D01*
X164058600Y-130839359D01*
X164058600Y-130780641D01*
X163944526Y-130207152D01*
X163619670Y-129720971D01*
X163348828Y-129540000D01*
X163619670Y-129359029D01*
X163944526Y-128872848D01*
X164058600Y-128299359D01*
X164058600Y-128240641D01*
X163944526Y-127667152D01*
X163619670Y-127180971D01*
X163348828Y-127000000D01*
X164592000Y-127000000D01*
X164980806Y-126922662D01*
X165310420Y-126702420D01*
X165530662Y-126372806D01*
X165608000Y-125984000D01*
X165530662Y-125595194D01*
X165310420Y-125265580D01*
X164980806Y-125045338D01*
X164592000Y-124968000D01*
X159711890Y-124968000D01*
X159712145Y-124675637D01*
X159585292Y-124368628D01*
X159370968Y-124153930D01*
X159639000Y-124153930D01*
X159910679Y-124099890D01*
X160140996Y-123945996D01*
X160843220Y-123243773D01*
X160859338Y-123324806D01*
G36*
X155067000Y-130683000D02*
X157353000Y-130683000D01*
X157353000Y-130663000D01*
X157607000Y-130663000D01*
X157607000Y-130683000D01*
X157627000Y-130683000D01*
X157627000Y-130937000D01*
X157607000Y-130937000D01*
X157607000Y-130957000D01*
X157353000Y-130957000D01*
X157353000Y-130937000D01*
X155067000Y-130937000D01*
X155067000Y-130957000D01*
X154813000Y-130957000D01*
X154813000Y-130937000D01*
X154793000Y-130937000D01*
X154793000Y-130683000D01*
X154813000Y-130683000D01*
X154813000Y-130663000D01*
X155067000Y-130663000D01*
X155067000Y-130683000D01*
X155067000Y-130683000D01*
G37*
X155067000Y-130683000D02*
X157353000Y-130683000D01*
X157353000Y-130663000D01*
X157607000Y-130663000D01*
X157607000Y-130683000D01*
X157627000Y-130683000D01*
X157627000Y-130937000D01*
X157607000Y-130937000D01*
X157607000Y-130957000D01*
X157353000Y-130957000D01*
X157353000Y-130937000D01*
X155067000Y-130937000D01*
X155067000Y-130957000D01*
X154813000Y-130957000D01*
X154813000Y-130937000D01*
X154793000Y-130937000D01*
X154793000Y-130683000D01*
X154813000Y-130683000D01*
X154813000Y-130663000D01*
X155067000Y-130663000D01*
X155067000Y-130683000D01*
G36*
X155755855Y-124244363D02*
X155882708Y-124551372D01*
X156117393Y-124786466D01*
X156424179Y-124913855D01*
X156756363Y-124914145D01*
X157059408Y-124788930D01*
X157820938Y-124788930D01*
X158000007Y-124968000D01*
X152312840Y-124968000D01*
X152229420Y-124884580D01*
X151899807Y-124664338D01*
X151511000Y-124587001D01*
X151496009Y-124589983D01*
X151932062Y-124153930D01*
X155755934Y-124153930D01*
X155755855Y-124244363D01*
X155755855Y-124244363D01*
G37*
X155755855Y-124244363D02*
X155882708Y-124551372D01*
X156117393Y-124786466D01*
X156424179Y-124913855D01*
X156756363Y-124914145D01*
X157059408Y-124788930D01*
X157820938Y-124788930D01*
X158000007Y-124968000D01*
X152312840Y-124968000D01*
X152229420Y-124884580D01*
X151899807Y-124664338D01*
X151511000Y-124587001D01*
X151496009Y-124589983D01*
X151932062Y-124153930D01*
X155755934Y-124153930D01*
X155755855Y-124244363D01*
G36*
X178291115Y-118683489D02*
X178615971Y-119169670D01*
X178930752Y-119380000D01*
X178615971Y-119590330D01*
X178291115Y-120076511D01*
X178177041Y-120650000D01*
X178192158Y-120726001D01*
X176998160Y-121920000D01*
X176390992Y-121920000D01*
X177666997Y-120643996D01*
X177820890Y-120413679D01*
X177874930Y-120142000D01*
X177874930Y-118531062D01*
X178196776Y-118209216D01*
X178291115Y-118683489D01*
X178291115Y-118683489D01*
G37*
X178291115Y-118683489D02*
X178615971Y-119169670D01*
X178930752Y-119380000D01*
X178615971Y-119590330D01*
X178291115Y-120076511D01*
X178177041Y-120650000D01*
X178192158Y-120726001D01*
X176998160Y-121920000D01*
X176390992Y-121920000D01*
X177666997Y-120643996D01*
X177820890Y-120413679D01*
X177874930Y-120142000D01*
X177874930Y-118531062D01*
X178196776Y-118209216D01*
X178291115Y-118683489D01*
G36*
X175441534Y-115731393D02*
X175314145Y-116038179D01*
X175313855Y-116370363D01*
X175439070Y-116673408D01*
X175439070Y-119339937D01*
X174330938Y-120448070D01*
X162373769Y-120448070D01*
X162378855Y-120435821D01*
X162379145Y-120103637D01*
X162253930Y-119800592D01*
X162253930Y-116586000D01*
X162199890Y-116314322D01*
X162092051Y-116152930D01*
X162045996Y-116084003D01*
X161995691Y-116033698D01*
X161871292Y-115732628D01*
X161783747Y-115644930D01*
X175528148Y-115644930D01*
X175441534Y-115731393D01*
X175441534Y-115731393D01*
G37*
X175441534Y-115731393D02*
X175314145Y-116038179D01*
X175313855Y-116370363D01*
X175439070Y-116673408D01*
X175439070Y-119339937D01*
X174330938Y-120448070D01*
X162373769Y-120448070D01*
X162378855Y-120435821D01*
X162379145Y-120103637D01*
X162253930Y-119800592D01*
X162253930Y-116586000D01*
X162199890Y-116314322D01*
X162092051Y-116152930D01*
X162045996Y-116084003D01*
X161995691Y-116033698D01*
X161871292Y-115732628D01*
X161783747Y-115644930D01*
X175528148Y-115644930D01*
X175441534Y-115731393D01*
G36*
X177558007Y-116840000D02*
X176858930Y-117539078D01*
X176858930Y-116672673D01*
X176983855Y-116371821D01*
X176983947Y-116265940D01*
X177558007Y-116840000D01*
X177558007Y-116840000D01*
G37*
X177558007Y-116840000D02*
X176858930Y-117539078D01*
X176858930Y-116672673D01*
X176983855Y-116371821D01*
X176983947Y-116265940D01*
X177558007Y-116840000D01*
G36*
X179832000Y-115443000D02*
X179852000Y-115443000D01*
X179852000Y-115697000D01*
X179832000Y-115697000D01*
X179832000Y-115717000D01*
X179578000Y-115717000D01*
X179578000Y-115697000D01*
X179558000Y-115697000D01*
X179558000Y-115443000D01*
X179578000Y-115443000D01*
X179578000Y-115423000D01*
X179832000Y-115423000D01*
X179832000Y-115443000D01*
X179832000Y-115443000D01*
G37*
X179832000Y-115443000D02*
X179852000Y-115443000D01*
X179852000Y-115697000D01*
X179832000Y-115697000D01*
X179832000Y-115717000D01*
X179578000Y-115717000D01*
X179578000Y-115697000D01*
X179558000Y-115697000D01*
X179558000Y-115443000D01*
X179578000Y-115443000D01*
X179578000Y-115423000D01*
X179832000Y-115423000D01*
X179832000Y-115443000D01*
G36*
X178177041Y-110490000D02*
X178291115Y-111063489D01*
X178615971Y-111549670D01*
X178930752Y-111760000D01*
X178615971Y-111970330D01*
X178291115Y-112456511D01*
X178242469Y-112701070D01*
X171789315Y-112701070D01*
X171922372Y-112646092D01*
X172157466Y-112411407D01*
X172284855Y-112104621D01*
X172285032Y-111901794D01*
X172382079Y-111882490D01*
X172612396Y-111728596D01*
X173145300Y-111195692D01*
X173446372Y-111071292D01*
X173681466Y-110836607D01*
X173808855Y-110529821D01*
X173808935Y-110437930D01*
X178187398Y-110437930D01*
X178177041Y-110490000D01*
X178177041Y-110490000D01*
G37*
X178177041Y-110490000D02*
X178291115Y-111063489D01*
X178615971Y-111549670D01*
X178930752Y-111760000D01*
X178615971Y-111970330D01*
X178291115Y-112456511D01*
X178242469Y-112701070D01*
X171789315Y-112701070D01*
X171922372Y-112646092D01*
X172157466Y-112411407D01*
X172284855Y-112104621D01*
X172285032Y-111901794D01*
X172382079Y-111882490D01*
X172612396Y-111728596D01*
X173145300Y-111195692D01*
X173446372Y-111071292D01*
X173681466Y-110836607D01*
X173808855Y-110529821D01*
X173808935Y-110437930D01*
X178187398Y-110437930D01*
X178177041Y-110490000D01*
M02*
