G04 #@! TF.FileFunction,Paste,Top*
%FSLAX46Y46*%
G04 Gerber Fmt 4.6, Leading zero omitted, Abs format (unit mm)*
G04 Created by KiCad (PCBNEW 4.0.2+dfsg1-stable) date Fri 29 Jul 2016 09:24:32 AM CST*
%MOMM*%
G01*
G04 APERTURE LIST*
%ADD10C,0.100000*%
%ADD11C,0.650000*%
%ADD12R,1.250000X1.250000*%
%ADD13R,2.000000X1.200000*%
%ADD14R,1.400000X1.400000*%
%ADD15R,1.400000X1.000000*%
%ADD16R,3.657600X2.032000*%
%ADD17R,1.016000X2.032000*%
%ADD18R,1.397000X0.431800*%
%ADD19R,1.200000X0.900000*%
%ADD20R,0.900000X1.200000*%
%ADD21R,2.301240X0.500380*%
%ADD22R,2.499360X1.998980*%
%ADD23R,1.300000X1.500000*%
%ADD24R,0.800100X1.800860*%
%ADD25R,1.250000X1.500000*%
%ADD26R,1.200000X0.750000*%
%ADD27R,0.750000X1.200000*%
%ADD28R,0.700000X0.250000*%
%ADD29R,0.250000X0.700000*%
%ADD30R,1.035000X1.035000*%
G04 APERTURE END LIST*
D10*
D11*
X148590000Y-101600000D03*
D12*
X136525000Y-129540000D03*
X143725000Y-129540000D03*
D11*
X153543000Y-112014000D03*
X158115000Y-109220000D03*
X163830000Y-113411000D03*
X162433000Y-113411000D03*
D13*
X170307000Y-116713000D03*
X166607000Y-116713000D03*
X166607000Y-118913000D03*
X170307000Y-118913000D03*
D11*
X161925000Y-121158000D03*
X150495000Y-122555000D03*
X151765000Y-122555000D03*
X135255000Y-117602000D03*
X153035000Y-122555000D03*
D14*
X134620000Y-111125000D03*
D15*
X134620000Y-112845000D03*
X136820000Y-112845000D03*
X136820000Y-110925000D03*
D16*
X144145000Y-106807000D03*
D17*
X144145000Y-100203000D03*
X141859000Y-100203000D03*
X146431000Y-100203000D03*
D18*
X163576000Y-106654600D03*
X163576000Y-107289600D03*
X163576000Y-107950000D03*
X163576000Y-108585000D03*
X163576000Y-109245400D03*
X163576000Y-109893100D03*
X163576000Y-110540800D03*
X169164000Y-110540800D03*
X169164000Y-109893100D03*
X169164000Y-109245400D03*
X169164000Y-108585000D03*
X169164000Y-107937300D03*
X169164000Y-107289600D03*
X169164000Y-106641900D03*
D19*
X150325000Y-107315000D03*
X148125000Y-107315000D03*
X143340000Y-127000000D03*
X141140000Y-127000000D03*
D20*
X154813000Y-110320000D03*
X154813000Y-108120000D03*
X152908000Y-108120000D03*
X152908000Y-110320000D03*
X160020000Y-122090000D03*
X160020000Y-124290000D03*
X165735000Y-122090000D03*
X165735000Y-124290000D03*
D19*
X160485000Y-102235000D03*
X158285000Y-102235000D03*
D20*
X163830000Y-124290000D03*
X163830000Y-122090000D03*
D19*
X161460000Y-104775000D03*
X163660000Y-104775000D03*
X143340000Y-114935000D03*
X141140000Y-114935000D03*
X141140000Y-116840000D03*
X143340000Y-116840000D03*
D20*
X171450000Y-104310000D03*
X171450000Y-106510000D03*
D21*
X127909320Y-113969800D03*
X127909320Y-114769900D03*
X127909320Y-115570000D03*
X127909320Y-116370100D03*
X127909320Y-117170200D03*
D22*
X127810260Y-111119920D03*
X122311160Y-111119920D03*
X127810260Y-120020080D03*
X122311160Y-120020080D03*
D23*
X131445000Y-121365000D03*
X131445000Y-118665000D03*
X131445000Y-112475000D03*
X131445000Y-109775000D03*
D24*
X154620000Y-101368860D03*
X152720000Y-101368860D03*
X153670000Y-104371140D03*
X134305000Y-106276140D03*
X136205000Y-106276140D03*
X135255000Y-103273860D03*
D25*
X158115000Y-107295000D03*
X158115000Y-104795000D03*
X150495000Y-101620000D03*
X150495000Y-104120000D03*
X138557000Y-103271000D03*
X138557000Y-105771000D03*
D26*
X138745000Y-127000000D03*
X136845000Y-127000000D03*
D27*
X150876000Y-116779000D03*
X150876000Y-118679000D03*
D26*
X131125000Y-107315000D03*
X129225000Y-107315000D03*
X162372000Y-118745000D03*
X164272000Y-118745000D03*
X162372000Y-116840000D03*
X164272000Y-116840000D03*
D27*
X147320000Y-113345000D03*
X147320000Y-111445000D03*
X149225000Y-113345000D03*
X149225000Y-111445000D03*
X151130000Y-113345000D03*
X151130000Y-111445000D03*
D28*
X154318000Y-114074000D03*
X154318000Y-114574000D03*
X154318000Y-115074000D03*
X154318000Y-115574000D03*
X154318000Y-116074000D03*
X154318000Y-116574000D03*
X154318000Y-117074000D03*
X154318000Y-117574000D03*
D29*
X154968000Y-118224000D03*
X155468000Y-118224000D03*
X155968000Y-118224000D03*
X156468000Y-118224000D03*
X156968000Y-118224000D03*
X157468000Y-118224000D03*
X157968000Y-118224000D03*
X158468000Y-118224000D03*
D28*
X159118000Y-117574000D03*
X159118000Y-117074000D03*
X159118000Y-116574000D03*
X159118000Y-116074000D03*
X159118000Y-115574000D03*
X159118000Y-115074000D03*
X159118000Y-114574000D03*
X159118000Y-114074000D03*
D29*
X158468000Y-113424000D03*
X157968000Y-113424000D03*
X157468000Y-113424000D03*
X156968000Y-113424000D03*
X156468000Y-113424000D03*
X155968000Y-113424000D03*
X155468000Y-113424000D03*
X154968000Y-113424000D03*
D30*
X157580500Y-116686500D03*
X157580500Y-114961500D03*
X155855500Y-116686500D03*
X155855500Y-114961500D03*
M02*
